SplineFontDB: 3.2
FontName: SpartanTT-Bold
FullName: SpartanTT Bold
FamilyName: SpartanTT
Weight: Bold
Copyright: Copyright 2020 The Spartan Project Authors (https://github.com/bghryct/Spartan-MB)\nSpartanTT variant by Nathanael Nerode
Version: 1.004
ItalicAngle: 0
UnderlinePosition: -200
UnderlineWidth: 100
Ascent: 1600
Descent: 400
InvalidEm: 0
sfntRevision: 0x00010106
LayerCount: 2
Layer: 0 1 "Back" 1
Layer: 1 1 "Fore" 0
XUID: [1021 407 1219447775 8310514]
StyleMap: 0x0020
FSType: 0
OS2Version: 4
OS2_WeightWidthSlopeOnly: 0
OS2_UseTypoMetrics: 1
CreationTime: 1580155577
ModificationTime: 1646872099
PfmFamily: 81
TTFWeight: 700
TTFWidth: 5
LineGap: 0
VLineGap: 0
Panose: 0 0 0 0 0 0 0 0 0 0
OS2TypoAscent: 1720
OS2TypoAOffset: 0
OS2TypoDescent: -520
OS2TypoDOffset: 0
OS2TypoLinegap: 130
OS2WinAscent: 2398
OS2WinAOffset: 0
OS2WinDescent: 592
OS2WinDOffset: 0
HheadAscent: 1720
HheadAOffset: 0
HheadDescent: -520
HheadDOffset: 0
OS2SubXSize: 650
OS2SubYSize: 600
OS2SubXOff: 0
OS2SubYOff: 75
OS2SupXSize: 650
OS2SupYSize: 600
OS2SupXOff: 0
OS2SupYOff: 350
OS2StrikeYSize: 100
OS2StrikeYPos: 614
OS2CapHeight: 1650
OS2XHeight: 1026
OS2Vendor: 'NONE'
OS2CodePages: 20000093.00000000
OS2UnicodeRanges: a00000ef.4000205b.00000000.00000000
Lookup: 1 0 0 "'aalt' Access All Alternates in Latin lookup 0" { "'aalt' Access All Alternates in Latin lookup 0 subtable"  } ['aalt' ('DFLT' <'dflt' > 'latn' <'MOL ' 'TRK ' 'dflt' > ) ]
Lookup: 3 0 0 "'aalt' Access All Alternates in Latin lookup 1" { "'aalt' Access All Alternates in Latin lookup 1 subtable"  } ['aalt' ('DFLT' <'dflt' > 'latn' <'MOL ' 'TRK ' 'dflt' > ) ]
Lookup: 6 0 0 "'ccmp' Glyph Composition/Decomposition in Latin lookup 2" { "'ccmp' Glyph Composition/Decomposition in Latin lookup 2 contextual 0"  "'ccmp' Glyph Composition/Decomposition in Latin lookup 2 contextual 1"  } ['ccmp' ('DFLT' <'dflt' > 'latn' <'MOL ' 'TRK ' 'dflt' > ) ]
Lookup: 1 0 0 "Single Substitution lookup 3" { "Single Substitution lookup 3 subtable"  } []

StartChar: A
Encoding: 65 65 1
Width: 1665
GlyphClass: 2
Flags: W
AnchorPoint: "Anchor-2" 1645 7 basechar 0
AnchorPoint: "Anchor-1" 832 0 basechar 0
AnchorPoint: "Anchor-0" 832 1650 basechar 0
LayerCount: 2
Fore
SplineSet
19 0 m 1,0,-1
 682 1650 l 1,1,-1
 983 1650 l 1,2,-1
 1645 0 l 1,3,-1
 1296 0 l 1,4,-1
 1156 376 l 1,5,-1
 508 376 l 1,6,-1
 368 0 l 1,7,-1
 19 0 l 1,0,-1
619 660 m 1,8,-1
 1046 660 l 1,9,-1
 832 1213 l 1,10,-1
 619 660 l 1,8,-1
EndSplineSet
Substitution2: "'tnum' Tabular Numbers lookup 19-1" A.tnum
Substitution2: "Single Substitution lookup 16 subtable" ordfeminine
Substitution2: "'aalt' Access All Alternates in Latin lookup 0 subtable" ordfeminine
EndChar

StartChar: AE
Encoding: 198 198 11
Width: 2233
Flags: W
LayerCount: 2
Fore
SplineSet
19 0 m 1,0,-1
 682 1650 l 1,1,-1
 1580 1650 l 1,2,-1
 1690 1366 l 1,3,-1
 1099 1366 l 1,4,-1
 1255 969 l 1,5,-1
 1818 969 l 1,6,-1
 1927 685 l 1,7,-1
 1371 685 l 1,8,-1
 1530 284 l 1,9,-1
 2105 284 l 1,10,-1
 2214 0 l 1,11,-1
 1296 0 l 1,12,-1
 1156 376 l 1,13,-1
 508 376 l 1,14,-1
 368 0 l 1,15,-1
 19 0 l 1,0,-1
619 660 m 1,16,-1
 1046 660 l 1,17,-1
 832 1212 l 1,18,-1
 619 660 l 1,16,-1
EndSplineSet
EndChar

StartChar: B
Encoding: 66 66 12
Width: 1324
GlyphClass: 2
Flags: W
AnchorPoint: "Anchor-1" 662 0 basechar 0
AnchorPoint: "Anchor-0" 662 1650 basechar 0
LayerCount: 2
Fore
SplineSet
139 0 m 1,0,-1
 139 1650 l 1,1,-1
 612 1650 l 2,2,3
 850 1650 850 1650 985 1546 c 128,-1,4
 1120 1442 1120 1442 1120 1235 c 0,5,6
 1120 978 1120 978 908 872 c 1,7,8
 1081 845 1081 845 1173.5 739.5 c 128,-1,9
 1266 634 1266 634 1266 463 c 0,10,11
 1266 319 1266 319 1201 215 c 128,-1,12
 1136 111 1136 111 1016 55.5 c 128,-1,13
 896 0 896 0 732 0 c 2,14,-1
 139 0 l 1,0,-1
462 982 m 1,15,-1
 537 982 l 2,16,17
 668 982 668 982 738 1036.5 c 128,-1,18
 808 1091 808 1091 808 1193 c 0,19,20
 808 1296 808 1296 740 1347.5 c 128,-1,21
 672 1399 672 1399 537 1399 c 2,22,-1
 462 1399 l 1,23,-1
 462 982 l 1,15,-1
462 252 m 1,24,-1
 622 252 l 2,25,26
 774 252 774 252 850.5 308 c 128,-1,27
 927 364 927 364 927 473 c 0,28,29
 927 584 927 584 848.5 643.5 c 128,-1,30
 770 703 770 703 622 703 c 2,31,-1
 462 703 l 1,32,-1
 462 252 l 1,24,-1
EndSplineSet
EndChar

StartChar: C
Encoding: 67 67 13
Width: 1530
GlyphClass: 2
Flags: W
AnchorPoint: "Anchor-1" 968 -32 basechar 0
AnchorPoint: "Anchor-0" 966 1680 basechar 0
LayerCount: 2
Fore
SplineSet
968 -32 m 0,0,1
 781 -32 781 -32 617 34 c 128,-1,2
 453 100 453 100 328 217.5 c 128,-1,3
 203 335 203 335 133 490 c 128,-1,4
 63 645 63 645 63 823 c 0,5,6
 63 1002 63 1002 133.5 1157.5 c 128,-1,7
 204 1313 204 1313 328.5 1430.5 c 128,-1,8
 453 1548 453 1548 616.5 1614 c 128,-1,9
 780 1680 780 1680 966 1680 c 0,10,11
 1118 1680 1118 1680 1255.5 1637 c 128,-1,12
 1393 1594 1393 1594 1491 1524 c 1,13,-1
 1351 1249 l 1,14,15
 1284 1302 1284 1302 1188 1332 c 128,-1,16
 1092 1362 1092 1362 987 1362 c 0,17,18
 864 1362 864 1362 759.5 1321 c 128,-1,19
 655 1280 655 1280 577.5 1207 c 128,-1,20
 500 1134 500 1134 457 1036 c 128,-1,21
 414 938 414 938 414 824 c 256,22,23
 414 710 414 710 457 612 c 128,-1,24
 500 514 500 514 577.5 441 c 128,-1,25
 655 368 655 368 759.5 327 c 128,-1,26
 864 286 864 286 987 286 c 0,27,28
 1092 286 1092 286 1188 316 c 128,-1,29
 1284 346 1284 346 1351 399 c 1,30,-1
 1491 124 l 1,31,32
 1397 56 1397 56 1260 12 c 128,-1,33
 1123 -32 1123 -32 968 -32 c 0,0,1
EndSplineSet
EndChar

StartChar: D
Encoding: 68 68 18
Width: 1612
GlyphClass: 2
Flags: W
AnchorPoint: "Anchor-1" 806 0 basechar 0
AnchorPoint: "Anchor-0" 806 1650 basechar 0
LayerCount: 2
Fore
SplineSet
225 0 m 1,0,-1
 225 1650 l 1,1,-1
 678 1650 l 2,2,3
 854 1650 854 1650 1005 1587 c 128,-1,4
 1156 1524 1156 1524 1269.5 1411 c 128,-1,5
 1383 1298 1383 1298 1446.5 1148 c 128,-1,6
 1510 998 1510 998 1510 824 c 0,7,8
 1510 649 1510 649 1447 499.5 c 128,-1,9
 1384 350 1384 350 1270.5 237.5 c 128,-1,10
 1157 125 1157 125 1005.5 62.5 c 128,-1,11
 854 0 854 0 678 0 c 2,12,-1
 225 0 l 1,0,-1
549 290 m 1,13,-1
 642 290 l 2,14,15
 754 290 754 290 849 330 c 128,-1,16
 944 370 944 370 1014 442 c 128,-1,17
 1084 514 1084 514 1123 611.5 c 128,-1,18
 1162 709 1162 709 1162 825 c 0,19,20
 1162 940 1162 940 1123 1037.5 c 128,-1,21
 1084 1135 1084 1135 1014 1207.5 c 128,-1,22
 944 1280 944 1280 849 1320 c 128,-1,23
 754 1360 754 1360 642 1360 c 2,24,-1
 549 1360 l 1,25,-1
 549 290 l 1,13,-1
EndSplineSet
EndChar

StartChar: Eth
Encoding: 208 208 19
Width: 1656
Flags: W
LayerCount: 2
Fore
SplineSet
270 0 m 1,0,-1
 270 693 l 1,1,-1
 106 693 l 1,2,-1
 106 957 l 1,3,-1
 270 957 l 1,4,-1
 270 1650 l 1,5,-1
 723 1650 l 2,6,7
 893 1650 893 1650 1043 1589 c 128,-1,8
 1193 1528 1193 1528 1308.5 1417 c 128,-1,9
 1424 1306 1424 1306 1489.5 1155.5 c 128,-1,10
 1555 1005 1555 1005 1555 825 c 0,11,12
 1555 643 1555 643 1489.5 492.5 c 128,-1,13
 1424 342 1424 342 1309 231.5 c 128,-1,14
 1194 121 1194 121 1043.5 60.5 c 128,-1,15
 893 0 893 0 723 0 c 2,16,-1
 270 0 l 1,0,-1
593 290 m 1,17,-1
 686 290 l 2,18,19
 799 290 799 290 894 330.5 c 128,-1,20
 989 371 989 371 1059 444 c 128,-1,21
 1129 517 1129 517 1167.5 614 c 128,-1,22
 1206 711 1206 711 1206 824 c 0,23,24
 1206 938 1206 938 1168.5 1035 c 128,-1,25
 1131 1132 1131 1132 1061 1205 c 128,-1,26
 991 1278 991 1278 895.5 1319 c 128,-1,27
 800 1360 800 1360 686 1360 c 2,28,-1
 593 1360 l 1,29,-1
 593 957 l 1,30,-1
 864 957 l 1,31,-1
 864 693 l 1,32,-1
 593 693 l 1,33,-1
 593 290 l 1,17,-1
EndSplineSet
EndChar

StartChar: Dcroat
Encoding: 272 272 21
Width: 1656
Flags: W
LayerCount: 2
Fore
SplineSet
270 0 m 1,0,-1
 270 693 l 1,1,-1
 106 693 l 1,2,-1
 106 957 l 1,3,-1
 270 957 l 1,4,-1
 270 1650 l 1,5,-1
 723 1650 l 2,6,7
 893 1650 893 1650 1043 1589 c 128,-1,8
 1193 1528 1193 1528 1308.5 1417 c 128,-1,9
 1424 1306 1424 1306 1489.5 1155.5 c 128,-1,10
 1555 1005 1555 1005 1555 825 c 0,11,12
 1555 643 1555 643 1489.5 492.5 c 128,-1,13
 1424 342 1424 342 1309 231.5 c 128,-1,14
 1194 121 1194 121 1043.5 60.5 c 128,-1,15
 893 0 893 0 723 0 c 2,16,-1
 270 0 l 1,0,-1
593 290 m 1,17,-1
 686 290 l 2,18,19
 799 290 799 290 894 330.5 c 128,-1,20
 989 371 989 371 1059 444 c 128,-1,21
 1129 517 1129 517 1167.5 614 c 128,-1,22
 1206 711 1206 711 1206 824 c 0,23,24
 1206 938 1206 938 1168.5 1035 c 128,-1,25
 1131 1132 1131 1132 1061 1205 c 128,-1,26
 991 1278 991 1278 895.5 1319 c 128,-1,27
 800 1360 800 1360 686 1360 c 2,28,-1
 593 1360 l 1,29,-1
 593 957 l 1,30,-1
 864 957 l 1,31,-1
 864 693 l 1,32,-1
 593 693 l 1,33,-1
 593 290 l 1,17,-1
EndSplineSet
EndChar

StartChar: E
Encoding: 69 69 22
Width: 1314
GlyphClass: 2
Flags: W
AnchorPoint: "Anchor-2" 1143 0 basechar 0
AnchorPoint: "Anchor-1" 687 0 basechar 0
AnchorPoint: "Anchor-0" 681 1650 basechar 0
LayerCount: 2
Fore
SplineSet
225 0 m 1,0,-1
 225 1650 l 1,1,-1
 1143 1650 l 1,2,-1
 1143 1366 l 1,3,-1
 549 1366 l 1,4,-1
 549 969 l 1,5,-1
 1119 969 l 1,6,-1
 1119 685 l 1,7,-1
 549 685 l 1,8,-1
 549 284 l 1,9,-1
 1143 284 l 1,10,-1
 1143 0 l 1,11,-1
 225 0 l 1,0,-1
EndSplineSet
EndChar

StartChar: F
Encoding: 70 70 31
Width: 1254
GlyphClass: 2
Flags: W
AnchorPoint: "Anchor-1" 627 0 basechar 0
AnchorPoint: "Anchor-0" 627 1650 basechar 0
LayerCount: 2
Fore
SplineSet
225 0 m 1,0,-1
 225 1650 l 1,1,-1
 1152 1650 l 1,2,-1
 1152 1366 l 1,3,-1
 471 1366 l 1,4,-1
 549 1437 l 1,5,-1
 549 879 l 1,6,-1
 471 969 l 1,7,-1
 1107 969 l 1,8,-1
 1107 685 l 1,9,-1
 471 685 l 1,10,-1
 549 775 l 1,11,-1
 549 0 l 1,12,-1
 225 0 l 1,0,-1
EndSplineSet
EndChar

StartChar: G
Encoding: 71 71 32
Width: 1776
GlyphClass: 2
Flags: W
AnchorPoint: "Anchor-1" 974 -4 basechar 0
AnchorPoint: "Anchor-0" 941 1671 basechar 0
LayerCount: 2
Fore
SplineSet
915 -32 m 0,0,1
 745 -32 745 -32 598 33 c 128,-1,2
 451 98 451 98 341 214.5 c 128,-1,3
 231 331 231 331 169 487 c 128,-1,4
 107 643 107 643 107 825 c 0,5,6
 107 999 107 999 165 1153.5 c 128,-1,7
 223 1308 223 1308 332 1426.5 c 128,-1,8
 441 1545 441 1545 595 1612.5 c 128,-1,9
 749 1680 749 1680 940 1680 c 0,10,11
 1048 1680 1048 1680 1157.5 1656 c 128,-1,12
 1267 1632 1267 1632 1368 1585.5 c 128,-1,13
 1469 1539 1469 1539 1550 1472 c 1,14,-1
 1398 1221 l 1,15,16
 1311 1302 1311 1302 1187.5 1346.5 c 128,-1,17
 1064 1391 1064 1391 944 1391 c 0,18,19
 826 1391 826 1391 735.5 1349.5 c 128,-1,20
 645 1308 645 1308 583 1233 c 128,-1,21
 521 1158 521 1158 489 1057.5 c 128,-1,22
 457 957 457 957 457 839 c 0,23,24
 457 710 457 710 493 605 c 128,-1,25
 529 500 529 500 593.5 424 c 128,-1,26
 658 348 658 348 744.5 307 c 128,-1,27
 831 266 831 266 931 266 c 0,28,29
 1011 266 1011 266 1085.5 292.5 c 128,-1,30
 1160 319 1160 319 1218 367 c 128,-1,31
 1276 415 1276 415 1310 480 c 128,-1,32
 1344 545 1344 545 1344 622 c 2,33,-1
 1344 647 l 1,34,-1
 911 647 l 1,35,-1
 911 898 l 1,36,-1
 1674 898 l 1,37,-1
 1674 648 l 2,38,39
 1674 497 1674 497 1611.5 372.5 c 128,-1,40
 1549 248 1549 248 1441 157.5 c 128,-1,41
 1333 67 1333 67 1197 17.5 c 128,-1,42
 1061 -32 1061 -32 915 -32 c 0,0,1
EndSplineSet
EndChar

StartChar: H
Encoding: 72 72 36
Width: 1715
GlyphClass: 2
Flags: W
AnchorPoint: "Anchor-1" 857 0 basechar 0
AnchorPoint: "Anchor-0" 857 1650 basechar 0
LayerCount: 2
Fore
SplineSet
225 0 m 1,0,-1
 225 1650 l 1,1,-1
 549 1650 l 1,2,-1
 549 969 l 1,3,-1
 1166 969 l 1,4,-1
 1166 1650 l 1,5,-1
 1489 1650 l 1,6,-1
 1489 0 l 1,7,-1
 1166 0 l 1,8,-1
 1166 685 l 1,9,-1
 549 685 l 1,10,-1
 549 0 l 1,11,-1
 225 0 l 1,0,-1
EndSplineSet
EndChar

StartChar: Hbar
Encoding: 294 294 37
Width: 1715
Flags: W
LayerCount: 2
Fore
SplineSet
225 0 m 1,0,-1
 225 1650 l 1,1,-1
 549 1650 l 1,2,-1
 549 858 l 1,3,-1
 1166 858 l 1,4,-1
 1166 1650 l 1,5,-1
 1489 1650 l 1,6,-1
 1489 0 l 1,7,-1
 1166 0 l 1,8,-1
 1166 638 l 1,9,-1
 549 638 l 1,10,-1
 549 0 l 1,11,-1
 225 0 l 1,0,-1
94 1066 m 1,12,-1
 94 1286 l 1,13,-1
 1626 1286 l 1,14,-1
 1626 1066 l 1,15,-1
 94 1066 l 1,12,-1
EndSplineSet
EndChar

StartChar: I
Encoding: 73 73 38
Width: 775
GlyphClass: 2
Flags: W
AnchorPoint: "Anchor-2" 549 0 basechar 0
AnchorPoint: "Anchor-1" 387 0 basechar 0
AnchorPoint: "Anchor-0" 387 1650 basechar 0
LayerCount: 2
Fore
SplineSet
225 0 m 1,0,-1
 225 1650 l 1,1,-1
 549 1650 l 1,2,-1
 549 0 l 1,3,-1
 225 0 l 1,0,-1
EndSplineSet
EndChar

StartChar: J
Encoding: 74 74 46
Width: 1133
GlyphClass: 2
Flags: W
AnchorPoint: "Anchor-1" 434 -22 basechar 0
AnchorPoint: "Anchor-0" 650 1650 basechar 0
LayerCount: 2
Fore
SplineSet
433 -32 m 0,0,1
 203 -32 203 -32 37 124 c 1,2,-1
 145 392 l 1,3,4
 268 278 268 278 381 278 c 0,5,6
 485 278 485 278 543.5 350 c 128,-1,7
 602 422 602 422 602 548 c 2,8,-1
 602 1650 l 1,9,-1
 926 1650 l 1,10,-1
 926 464 l 2,11,12
 926 228 926 228 795 98 c 128,-1,13
 664 -32 664 -32 433 -32 c 0,0,1
EndSplineSet
EndChar

StartChar: K
Encoding: 75 75 47
Width: 1646
GlyphClass: 2
Flags: W
AnchorPoint: "Anchor-1" 824 0 basechar 0
AnchorPoint: "Anchor-0" 824 1650 basechar 0
LayerCount: 2
Fore
SplineSet
225 0 m 1,0,-1
 225 1650 l 1,1,-1
 549 1650 l 1,2,-1
 549 962 l 1,3,-1
 1154 1650 l 1,4,-1
 1550 1650 l 1,5,-1
 846 856 l 1,6,-1
 1650 0 l 1,7,-1
 1202 0 l 1,8,-1
 549 697 l 1,9,-1
 549 0 l 1,10,-1
 225 0 l 1,0,-1
EndSplineSet
EndChar

StartChar: L
Encoding: 76 76 49
Width: 1184
GlyphClass: 2
Flags: W
AnchorPoint: "Anchor-1" 692 0 basechar 0
AnchorPoint: "Anchor-0" 712 1650 basechar 0
LayerCount: 2
Fore
SplineSet
225 0 m 1,0,-1
 225 1650 l 1,1,-1
 549 1650 l 1,2,-1
 549 284 l 1,3,-1
 1145 284 l 1,4,-1
 1145 0 l 1,5,-1
 225 0 l 1,0,-1
EndSplineSet
EndChar

StartChar: Lslash
Encoding: 321 321 53
Width: 1225
Flags: W
LayerCount: 2
Fore
SplineSet
267 0 m 1,0,-1
 267 639 l 1,1,-1
 113 518 l 1,2,-1
 113 781 l 1,3,-1
 267 902 l 1,4,-1
 267 1650 l 1,5,-1
 591 1650 l 1,6,-1
 591 1157 l 1,7,-1
 801 1323 l 1,8,-1
 801 1059 l 1,9,-1
 591 893 l 1,10,-1
 591 284 l 1,11,-1
 1186 284 l 1,12,-1
 1186 0 l 1,13,-1
 267 0 l 1,0,-1
EndSplineSet
EndChar

StartChar: M
Encoding: 77 77 54
Width: 2101
GlyphClass: 2
Flags: W
AnchorPoint: "Anchor-1" 1150 41 basechar 0
AnchorPoint: "Anchor-0" 1051 1650 basechar 0
LayerCount: 2
Fore
SplineSet
149 0 m 1,0,-1
 313 1650 l 1,1,-1
 657 1650 l 1,2,-1
 1051 618 l 1,3,-1
 1445 1650 l 1,4,-1
 1789 1650 l 1,5,-1
 1953 0 l 1,6,-1
 1629 0 l 1,7,-1
 1527 1068 l 1,8,-1
 1150 41 l 1,9,-1
 951 41 l 1,10,-1
 575 1068 l 1,11,-1
 472 0 l 1,12,-1
 149 0 l 1,0,-1
EndSplineSet
EndChar

StartChar: N
Encoding: 78 78 55
Width: 1809
GlyphClass: 2
Flags: W
AnchorPoint: "Anchor-1" 905 0 basechar 0
AnchorPoint: "Anchor-0" 905 1650 basechar 0
LayerCount: 2
Fore
SplineSet
225 0 m 1,0,-1
 225 1650 l 1,1,-1
 549 1650 l 1,2,-1
 1260 540 l 1,3,-1
 1260 1650 l 1,4,-1
 1584 1650 l 1,5,-1
 1584 0 l 1,6,-1
 1260 0 l 1,7,-1
 549 1110 l 1,8,-1
 549 0 l 1,9,-1
 225 0 l 1,0,-1
EndSplineSet
EndChar

StartChar: Eng
Encoding: 330 330 59
Width: 1790
Flags: W
LayerCount: 2
Fore
SplineSet
1091 -551 m 0,0,1
 972 -551 972 -551 875.5 -513 c 128,-1,2
 779 -475 779 -475 695 -395 c 1,3,-1
 803 -127 l 1,4,5
 866 -186 866 -186 925 -213.5 c 128,-1,6
 984 -241 984 -241 1039 -241 c 0,7,8
 1144 -241 1144 -241 1202 -179 c 128,-1,9
 1260 -117 1260 -117 1260 -10 c 2,10,-1
 1260 0 l 1,11,-1
 549 1110 l 1,12,-1
 549 0 l 1,13,-1
 225 0 l 1,14,-1
 225 1650 l 1,15,-1
 549 1650 l 1,16,-1
 1260 540 l 1,17,-1
 1260 1650 l 1,18,-1
 1584 1650 l 1,19,-1
 1584 -55 l 2,20,21
 1584 -291 1584 -291 1453 -421 c 128,-1,22
 1322 -551 1322 -551 1091 -551 c 0,0,1
EndSplineSet
EndChar

StartChar: O
Encoding: 79 79 61
Width: 1873
GlyphClass: 2
Flags: W
AnchorPoint: "Anchor-2" 1025 7 basechar 0
AnchorPoint: "Anchor-1" 957 0 basechar 0
AnchorPoint: "Anchor-0" 937 1671 basechar 0
LayerCount: 2
Fore
SplineSet
937 -32 m 256,0,1
 764 -32 764 -32 613 34 c 128,-1,2
 462 100 462 100 348 217.5 c 128,-1,3
 234 335 234 335 169.5 490.5 c 128,-1,4
 105 646 105 646 105 824 c 256,5,6
 105 1002 105 1002 169.5 1157.5 c 128,-1,7
 234 1313 234 1313 348 1430.5 c 128,-1,8
 462 1548 462 1548 613 1614 c 128,-1,9
 764 1680 764 1680 937 1680 c 256,10,11
 1110 1680 1110 1680 1261 1614 c 128,-1,12
 1412 1548 1412 1548 1526 1430.5 c 128,-1,13
 1640 1313 1640 1313 1704.5 1157.5 c 128,-1,14
 1769 1002 1769 1002 1769 824 c 256,15,16
 1769 646 1769 646 1704.5 490.5 c 128,-1,17
 1640 335 1640 335 1526 217.5 c 128,-1,18
 1412 100 1412 100 1261 34 c 128,-1,19
 1110 -32 1110 -32 937 -32 c 256,0,1
936 280 m 0,20,21
 1042 280 1042 280 1130 320 c 128,-1,22
 1218 360 1218 360 1283 433 c 128,-1,23
 1348 506 1348 506 1384 605.5 c 128,-1,24
 1420 705 1420 705 1420 824 c 256,25,26
 1420 943 1420 943 1384 1042.5 c 128,-1,27
 1348 1142 1348 1142 1283 1215 c 128,-1,28
 1218 1288 1218 1288 1130 1328 c 128,-1,29
 1042 1368 1042 1368 936 1368 c 0,30,31
 832 1368 832 1368 743.5 1328 c 128,-1,32
 655 1288 655 1288 590 1215 c 128,-1,33
 525 1142 525 1142 489.5 1042.5 c 128,-1,34
 454 943 454 943 454 824 c 256,35,36
 454 705 454 705 489.5 605.5 c 128,-1,37
 525 506 525 506 590 433 c 128,-1,38
 655 360 655 360 743.5 320 c 128,-1,39
 832 280 832 280 936 280 c 0,20,21
EndSplineSet
Substitution2: "Single Substitution lookup 16 subtable" ordmasculine
Substitution2: "'aalt' Access All Alternates in Latin lookup 0 subtable" ordmasculine
EndChar

StartChar: Oslash
Encoding: 216 216 68
Width: 1873
GlyphClass: 2
Flags: W
AnchorPoint: "Anchor-2" 1038 7 basechar 0
AnchorPoint: "Anchor-1" 971 0 basechar 0
AnchorPoint: "Anchor-0" 951 1671 basechar 0
LayerCount: 2
Fore
SplineSet
951 -32 m 256,0,1
 778 -32 778 -32 627 34 c 128,-1,2
 476 100 476 100 362 217.5 c 128,-1,3
 248 335 248 335 183.5 490.5 c 128,-1,4
 119 646 119 646 119 824 c 256,5,6
 119 1002 119 1002 183.5 1157.5 c 128,-1,7
 248 1313 248 1313 362 1430.5 c 128,-1,8
 476 1548 476 1548 627 1614 c 128,-1,9
 778 1680 778 1680 951 1680 c 256,10,11
 1124 1680 1124 1680 1275 1614 c 128,-1,12
 1426 1548 1426 1548 1540 1430.5 c 128,-1,13
 1654 1313 1654 1313 1718.5 1157.5 c 128,-1,14
 1783 1002 1783 1002 1783 824 c 256,15,16
 1783 646 1783 646 1718.5 490.5 c 128,-1,17
 1654 335 1654 335 1540 217.5 c 128,-1,18
 1426 100 1426 100 1275 34 c 128,-1,19
 1124 -32 1124 -32 951 -32 c 256,0,1
951 280 m 256,20,21
 1056 280 1056 280 1144.5 320 c 128,-1,22
 1233 360 1233 360 1297.5 433 c 128,-1,23
 1362 506 1362 506 1398 605.5 c 128,-1,24
 1434 705 1434 705 1434 824 c 256,25,26
 1434 943 1434 943 1398 1042.5 c 128,-1,27
 1362 1142 1362 1142 1297.5 1215 c 128,-1,28
 1233 1288 1233 1288 1144.5 1328 c 128,-1,29
 1056 1368 1056 1368 951 1368 c 256,30,31
 846 1368 846 1368 757.5 1328 c 128,-1,32
 669 1288 669 1288 604 1215 c 128,-1,33
 539 1142 539 1142 503 1042.5 c 128,-1,34
 467 943 467 943 467 824 c 256,35,36
 467 705 467 705 503 605.5 c 128,-1,37
 539 506 539 506 604 433 c 128,-1,38
 669 360 669 360 757.5 320 c 128,-1,39
 846 280 846 280 951 280 c 256,20,21
428 -22 m 1,40,-1
 233 121 l 1,41,-1
 1485 1695 l 1,42,-1
 1680 1546 l 1,43,-1
 428 -22 l 1,40,-1
EndSplineSet
EndChar

StartChar: OE
Encoding: 338 338 70
Width: 2108
GlyphClass: 2
Flags: W
AnchorPoint: "Anchor-1" 1054 0 basechar 0
AnchorPoint: "Anchor-0" 1054 1650 basechar 0
LayerCount: 2
Fore
SplineSet
933 0 m 2,0,1
 758 0 758 0 607.5 61.5 c 128,-1,2
 457 123 457 123 343.5 235.5 c 128,-1,3
 230 348 230 348 166.5 501 c 128,-1,4
 103 654 103 654 103 836 c 0,5,6
 103 1014 103 1014 167 1163 c 128,-1,7
 231 1312 231 1312 355 1421 c 128,-1,8
 479 1530 479 1530 661 1590 c 128,-1,9
 843 1650 843 1650 1079 1650 c 2,10,-1
 1937 1650 l 1,11,-1
 1937 1366 l 1,12,-1
 1344 1366 l 1,13,-1
 1344 969 l 1,14,-1
 1913 969 l 1,15,-1
 1913 685 l 1,16,-1
 1344 685 l 1,17,-1
 1344 284 l 1,18,-1
 1937 284 l 1,19,-1
 1937 0 l 1,20,-1
 933 0 l 2,0,1
1019 289 m 1,21,-1
 1019 1361 l 1,22,23
 893 1361 893 1361 788.5 1323.5 c 128,-1,24
 684 1286 684 1286 608.5 1216.5 c 128,-1,25
 533 1147 533 1147 492.5 1048.5 c 128,-1,26
 452 950 452 950 452 827 c 0,27,28
 452 707 452 707 491 608.5 c 128,-1,29
 530 510 530 510 604 438.5 c 128,-1,30
 678 367 678 367 783 328 c 128,-1,31
 888 289 888 289 1019 289 c 1,21,-1
EndSplineSet
EndChar

StartChar: P
Encoding: 80 80 71
Width: 1416
GlyphClass: 2
Flags: W
AnchorPoint: "Anchor-1" 708 0 basechar 0
AnchorPoint: "Anchor-0" 708 1650 basechar 0
LayerCount: 2
Fore
SplineSet
225 0 m 1,0,-1
 225 1650 l 1,1,-1
 787 1650 l 2,2,3
 948 1650 948 1650 1073 1594 c 128,-1,4
 1198 1538 1198 1538 1270 1427.5 c 128,-1,5
 1342 1317 1342 1317 1342 1152 c 0,6,7
 1342 988 1342 988 1270 872 c 128,-1,8
 1198 756 1198 756 1073 694.5 c 128,-1,9
 948 633 948 633 787 633 c 2,10,-1
 549 633 l 1,11,-1
 549 0 l 1,12,-1
 225 0 l 1,0,-1
549 892 m 1,13,-1
 687 892 l 2,14,15
 772 892 772 892 843.5 917 c 128,-1,16
 915 942 915 942 959 997 c 128,-1,17
 1003 1052 1003 1052 1003 1142 c 0,18,19
 1003 1233 1003 1233 959 1287.5 c 128,-1,20
 915 1342 915 1342 843.5 1366.5 c 128,-1,21
 772 1391 772 1391 687 1391 c 2,22,-1
 549 1391 l 1,23,-1
 549 892 l 1,13,-1
EndSplineSet
Substitution2: "'tnum' Tabular Numbers lookup 19-1" P.tnum
EndChar

StartChar: Thorn
Encoding: 222 222 72
Width: 1416
GlyphClass: 2
Flags: W
AnchorPoint: "Anchor-1" 708 0 basechar 0
AnchorPoint: "Anchor-0" 708 1650 basechar 0
LayerCount: 2
Fore
SplineSet
225 0 m 1,0,-1
 225 1650 l 1,1,-1
 549 1650 l 1,2,-1
 549 1332 l 1,3,-1
 787 1332 l 2,4,5
 1047 1332 1047 1332 1194.5 1198 c 128,-1,6
 1342 1064 1342 1064 1342 834 c 0,7,8
 1342 679 1342 679 1274 562 c 128,-1,9
 1206 445 1206 445 1082 380 c 128,-1,10
 958 315 958 315 787 315 c 2,11,-1
 549 315 l 1,12,-1
 549 0 l 1,13,-1
 225 0 l 1,0,-1
549 574 m 1,14,-1
 687 574 l 2,15,16
 784 574 784 574 852.5 605 c 128,-1,17
 921 636 921 636 957.5 693 c 128,-1,18
 994 750 994 750 994 828 c 0,19,20
 994 943 994 943 915 1008 c 128,-1,21
 836 1073 836 1073 687 1073 c 2,22,-1
 549 1073 l 1,23,-1
 549 574 l 1,14,-1
EndSplineSet
EndChar

StartChar: Q
Encoding: 81 81 73
Width: 1916
GlyphClass: 2
Flags: W
AnchorPoint: "Anchor-1" 958 0 basechar 0
AnchorPoint: "Anchor-0" 958 1650 basechar 0
LayerCount: 2
Fore
SplineSet
1695 -54 m 1,0,1
 1616 -24 1616 -24 1537.5 16 c 128,-1,2
 1459 56 1459 56 1381 106 c 1,3,4
 1176 -32 1176 -32 923 -32 c 0,5,6
 749 -32 749 -32 598 33.5 c 128,-1,7
 447 99 447 99 333.5 216 c 128,-1,8
 220 333 220 333 156 488 c 128,-1,9
 92 643 92 643 92 822 c 256,10,11
 92 1001 92 1001 156.5 1157 c 128,-1,12
 221 1313 221 1313 335 1430.5 c 128,-1,13
 449 1548 449 1548 600 1614 c 128,-1,14
 751 1680 751 1680 924 1680 c 0,15,16
 1098 1680 1098 1680 1249 1614 c 128,-1,17
 1400 1548 1400 1548 1514 1430.5 c 128,-1,18
 1628 1313 1628 1313 1692 1157.5 c 128,-1,19
 1756 1002 1756 1002 1756 824 c 0,20,21
 1756 686 1756 686 1714.5 560 c 128,-1,22
 1673 434 1673 434 1593 330 c 1,23,24
 1656 301 1656 301 1717 277 c 128,-1,25
 1778 253 1778 253 1838 235 c 1,26,-1
 1695 -54 l 1,0,1
923 280 m 0,27,28
 971 280 971 280 1016.5 292 c 128,-1,29
 1062 304 1062 304 1100 325 c 1,30,31
 1036 381 1036 381 977.5 441 c 128,-1,32
 919 501 919 501 870 564 c 1,33,-1
 1008 736 l 1,34,35
 1140 597 1140 597 1296 491 c 1,36,37
 1350 558 1350 558 1378.5 644 c 128,-1,38
 1407 730 1407 730 1407 824 c 0,39,40
 1407 943 1407 943 1371.5 1042.5 c 128,-1,41
 1336 1142 1336 1142 1271.5 1215 c 128,-1,42
 1207 1288 1207 1288 1118.5 1328 c 128,-1,43
 1030 1368 1030 1368 924 1368 c 0,44,45
 819 1368 819 1368 730.5 1328 c 128,-1,46
 642 1288 642 1288 577 1214.5 c 128,-1,47
 512 1141 512 1141 476.5 1041.5 c 128,-1,48
 441 942 441 942 441 822 c 256,49,50
 441 702 441 702 476 603 c 128,-1,51
 511 504 511 504 575.5 431.5 c 128,-1,52
 640 359 640 359 728.5 319.5 c 128,-1,53
 817 280 817 280 923 280 c 0,27,28
EndSplineSet
EndChar

StartChar: R
Encoding: 82 82 74
Width: 1509
GlyphClass: 2
Flags: W
AnchorPoint: "Anchor-1" 755 0 basechar 0
AnchorPoint: "Anchor-0" 755 1650 basechar 0
LayerCount: 2
Fore
SplineSet
225 0 m 1,0,-1
 225 1650 l 1,1,-1
 787 1650 l 2,2,3
 956 1650 956 1650 1080.5 1590.5 c 128,-1,4
 1205 1531 1205 1531 1273.5 1419.5 c 128,-1,5
 1342 1308 1342 1308 1342 1151 c 0,6,7
 1342 1027 1342 1027 1298 927.5 c 128,-1,8
 1254 828 1254 828 1172 760 c 128,-1,9
 1090 692 1090 692 973 659 c 1,10,-1
 1513 0 l 1,11,-1
 1102 0 l 1,12,-1
 626 622 l 1,13,-1
 549 622 l 1,14,-1
 549 0 l 1,15,-1
 225 0 l 1,0,-1
549 892 m 1,16,-1
 687 892 l 2,17,18
 788 892 788 892 858 921 c 128,-1,19
 928 950 928 950 965.5 1006.5 c 128,-1,20
 1003 1063 1003 1063 1003 1142 c 0,21,22
 1003 1262 1003 1262 920.5 1326.5 c 128,-1,23
 838 1391 838 1391 687 1391 c 2,24,-1
 549 1391 l 1,25,-1
 549 892 l 1,16,-1
EndSplineSet
EndChar

StartChar: S
Encoding: 83 83 78
Width: 1363
GlyphClass: 2
Flags: W
AnchorPoint: "Anchor-1" 675 0 basechar 0
AnchorPoint: "Anchor-0" 720 1674 basechar 0
LayerCount: 2
Fore
SplineSet
655 -32 m 0,0,1
 540 -32 540 -32 443 -6.5 c 128,-1,2
 346 19 346 19 269.5 57.5 c 128,-1,3
 193 96 193 96 138 137 c 128,-1,4
 83 178 83 178 51 209 c 1,5,-1
 217 477 l 1,6,7
 250 448 250 448 296 412 c 128,-1,8
 342 376 342 376 399 343.5 c 128,-1,9
 456 311 456 311 522.5 289.5 c 128,-1,10
 589 268 589 268 664 268 c 0,11,12
 734 268 734 268 787.5 290 c 128,-1,13
 841 312 841 312 872 355.5 c 128,-1,14
 903 399 903 399 903 464 c 0,15,16
 903 523 903 523 878 564.5 c 128,-1,17
 853 606 853 606 804.5 639.5 c 128,-1,18
 756 673 756 673 685.5 705.5 c 128,-1,19
 615 738 615 738 525 777 c 0,20,21
 458 807 458 807 397.5 845.5 c 128,-1,22
 337 884 337 884 290 935 c 128,-1,23
 243 986 243 986 215.5 1050.5 c 128,-1,24
 188 1115 188 1115 188 1195 c 0,25,26
 188 1290 188 1290 226 1377 c 128,-1,27
 264 1464 264 1464 334.5 1532 c 128,-1,28
 405 1600 405 1600 502.5 1640 c 128,-1,29
 600 1680 600 1680 720 1680 c 0,30,31
 810 1680 810 1680 900 1656 c 128,-1,32
 990 1632 990 1632 1068 1593 c 128,-1,33
 1146 1554 1146 1554 1200 1508 c 1,34,-1
 1065 1254 l 1,35,36
 1022 1291 1022 1291 967.5 1320.5 c 128,-1,37
 913 1350 913 1350 851.5 1368 c 128,-1,38
 790 1386 790 1386 727 1386 c 0,39,40
 656 1386 656 1386 606.5 1361 c 128,-1,41
 557 1336 557 1336 530.5 1294.5 c 128,-1,42
 504 1253 504 1253 504 1202 c 0,43,44
 504 1160 504 1160 521.5 1130.5 c 128,-1,45
 539 1101 539 1101 571 1079.5 c 128,-1,46
 603 1058 603 1058 648 1038.5 c 128,-1,47
 693 1019 693 1019 747 997 c 0,48,49
 863 948 863 948 957 900 c 128,-1,50
 1051 852 1051 852 1118 793.5 c 128,-1,51
 1185 735 1185 735 1220.5 657 c 128,-1,52
 1256 579 1256 579 1256 471 c 0,53,54
 1256 313 1256 313 1180.5 200 c 128,-1,55
 1105 87 1105 87 970 27.5 c 128,-1,56
 835 -32 835 -32 655 -32 c 0,0,1
EndSplineSet
EndChar

StartChar: uni1E9E
Encoding: 7838 7838 83
Width: 1676
Flags: W
LayerCount: 2
Fore
SplineSet
1076 -26 m 0,0,1
 987 -26 987 -26 882.5 0.5 c 128,-1,2
 778 27 778 27 674 76 c 1,3,-1
 739 387 l 1,4,5
 836 336 836 336 910 311 c 128,-1,6
 984 286 984 286 1056 286 c 0,7,8
 1116 286 1116 286 1160.5 305 c 128,-1,9
 1205 324 1205 324 1229.5 360 c 128,-1,10
 1254 396 1254 396 1254 446 c 0,11,12
 1254 498 1254 498 1226.5 530.5 c 128,-1,13
 1199 563 1199 563 1155.5 584.5 c 128,-1,14
 1112 606 1112 606 1062.5 624.5 c 128,-1,15
 1013 643 1013 643 969.5 666 c 128,-1,16
 926 689 926 689 898.5 723.5 c 128,-1,17
 871 758 871 758 871 812 c 0,18,19
 871 855 871 855 887.5 884.5 c 128,-1,20
 904 914 904 914 929 939 c 128,-1,21
 954 964 954 964 978.5 991.5 c 128,-1,22
 1003 1019 1003 1019 1019.5 1057.5 c 128,-1,23
 1036 1096 1036 1096 1036 1154 c 0,24,25
 1036 1256 1036 1256 978 1311.5 c 128,-1,26
 920 1367 920 1367 819 1367 c 0,27,28
 687 1367 687 1367 619 1271 c 128,-1,29
 551 1175 551 1175 551 990 c 2,30,-1
 551 1 l 1,31,-1
 225 1 l 1,32,-1
 225 959 l 2,33,34
 225 1191 225 1191 295.5 1352 c 128,-1,35
 366 1513 366 1513 502.5 1597 c 128,-1,36
 639 1681 639 1681 840 1681 c 0,37,38
 1003 1681 1003 1681 1125.5 1627 c 128,-1,39
 1248 1573 1248 1573 1316 1472 c 128,-1,40
 1384 1371 1384 1371 1384 1231 c 0,41,42
 1384 1158 1384 1158 1367.5 1107 c 128,-1,43
 1351 1056 1351 1056 1326.5 1019.5 c 128,-1,44
 1302 983 1302 983 1277 957 c 128,-1,45
 1252 931 1252 931 1235.5 908.5 c 128,-1,46
 1219 886 1219 886 1219 862 c 0,47,48
 1219 833 1219 833 1244 813 c 128,-1,49
 1269 793 1269 793 1309 775 c 128,-1,50
 1349 757 1349 757 1393.5 734 c 128,-1,51
 1438 711 1438 711 1478 675 c 128,-1,52
 1518 639 1518 639 1543.5 582.5 c 128,-1,53
 1569 526 1569 526 1569 441 c 0,54,55
 1569 309 1569 309 1504 203 c 128,-1,56
 1439 97 1439 97 1327.5 35.5 c 128,-1,57
 1216 -26 1216 -26 1076 -26 c 0,0,1
EndSplineSet
EndChar

StartChar: T
Encoding: 84 84 84
Width: 1237
GlyphClass: 2
Flags: W
AnchorPoint: "Anchor-1" 641 0 basechar 0
AnchorPoint: "Anchor-0" 619 1650 basechar 0
LayerCount: 2
Fore
SplineSet
457 0 m 1,0,-1
 457 1364 l 1,1,-1
 39 1364 l 1,2,-1
 39 1650 l 1,3,-1
 1199 1650 l 1,4,-1
 1199 1364 l 1,5,-1
 780 1364 l 1,6,-1
 780 0 l 1,7,-1
 457 0 l 1,0,-1
EndSplineSet
EndChar

StartChar: Tbar
Encoding: 358 358 85
Width: 1237
Flags: W
LayerCount: 2
Fore
SplineSet
457 0 m 1,0,-1
 457 1364 l 1,1,-1
 39 1364 l 1,2,-1
 39 1650 l 1,3,-1
 1199 1650 l 1,4,-1
 1199 1364 l 1,5,-1
 780 1364 l 1,6,-1
 780 0 l 1,7,-1
 457 0 l 1,0,-1
236 838 m 1,8,-1
 236 1058 l 1,9,-1
 1001 1058 l 1,10,-1
 1001 838 l 1,11,-1
 236 838 l 1,8,-1
EndSplineSet
EndChar

StartChar: U
Encoding: 85 85 89
Width: 1651
GlyphClass: 2
Flags: W
AnchorPoint: "Anchor-2" 923 7 basechar 0
AnchorPoint: "Anchor-1" 825 -22 basechar 0
AnchorPoint: "Anchor-0" 826 1650 basechar 0
LayerCount: 2
Fore
SplineSet
825 -32 m 0,0,1
 515 -32 515 -32 356 123.5 c 128,-1,2
 197 279 197 279 197 585 c 2,3,-1
 197 1650 l 1,4,-1
 521 1650 l 1,5,-1
 521 678 l 2,6,7
 521 469 521 469 592.5 377.5 c 128,-1,8
 664 286 664 286 825 286 c 256,9,10
 986 286 986 286 1057.5 377.5 c 128,-1,11
 1129 469 1129 469 1129 678 c 2,12,-1
 1129 1650 l 1,13,-1
 1453 1650 l 1,14,-1
 1453 585 l 2,15,16
 1453 279 1453 279 1294.5 123.5 c 128,-1,17
 1136 -32 1136 -32 825 -32 c 0,0,1
EndSplineSet
EndChar

StartChar: V
Encoding: 86 86 98
Width: 1672
GlyphClass: 2
Flags: W
AnchorPoint: "Anchor-1" 836 0 basechar 0
AnchorPoint: "Anchor-0" 836 1650 basechar 0
LayerCount: 2
Fore
SplineSet
709 0 m 1,0,-1
 17 1650 l 1,1,-1
 383 1650 l 1,2,-1
 836 487 l 1,3,-1
 1290 1650 l 1,4,-1
 1655 1650 l 1,5,-1
 963 0 l 1,6,-1
 709 0 l 1,0,-1
EndSplineSet
EndChar

StartChar: W
Encoding: 87 87 99
Width: 2376
GlyphClass: 2
Flags: W
AnchorPoint: "Anchor-1" 1188 0 basechar 0
AnchorPoint: "Anchor-0" 1188 1650 basechar 0
LayerCount: 2
Fore
SplineSet
518 0 m 1,0,-1
 43 1650 l 1,1,-1
 403 1650 l 1,2,-1
 715 444 l 1,3,-1
 1067 1650 l 1,4,-1
 1310 1650 l 1,5,-1
 1661 444 l 1,6,-1
 1973 1650 l 1,7,-1
 2334 1650 l 1,8,-1
 1858 0 l 1,9,-1
 1498 0 l 1,10,-1
 1188 1025 l 1,11,-1
 879 0 l 1,12,-1
 518 0 l 1,0,-1
EndSplineSet
EndChar

StartChar: X
Encoding: 88 88 104
Width: 1669
GlyphClass: 2
Flags: W
AnchorPoint: "Anchor-1" 834 0 basechar 0
AnchorPoint: "Anchor-0" 834 1650 basechar 0
LayerCount: 2
Fore
SplineSet
9 0 m 1,0,-1
 635 889 l 1,1,-1
 111 1650 l 1,2,-1
 497 1650 l 1,3,-1
 834 1158 l 1,4,-1
 1171 1650 l 1,5,-1
 1557 1650 l 1,6,-1
 1033 889 l 1,7,-1
 1659 0 l 1,8,-1
 1258 0 l 1,9,-1
 834 608 l 1,10,-1
 410 0 l 1,11,-1
 9 0 l 1,0,-1
EndSplineSet
EndChar

StartChar: Y
Encoding: 89 89 105
Width: 1516
GlyphClass: 2
Flags: W
AnchorPoint: "Anchor-1" 758 0 basechar 0
AnchorPoint: "Anchor-0" 758 1650 basechar 0
LayerCount: 2
Fore
SplineSet
596 0 m 1,0,-1
 596 735 l 1,1,-1
 -3 1650 l 1,2,-1
 387 1650 l 1,3,-1
 758 1065 l 1,4,-1
 1129 1650 l 1,5,-1
 1519 1650 l 1,6,-1
 920 735 l 1,7,-1
 920 0 l 1,8,-1
 596 0 l 1,0,-1
EndSplineSet
EndChar

StartChar: Z
Encoding: 90 90 110
Width: 1544
GlyphClass: 2
Flags: W
AnchorPoint: "Anchor-1" 772 0 basechar 0
AnchorPoint: "Anchor-0" 772 1650 basechar 0
LayerCount: 2
Fore
SplineSet
40 0 m 1,0,-1
 918 1365 l 1,1,-1
 156 1365 l 1,2,-1
 156 1650 l 1,3,-1
 1486 1650 l 1,4,-1
 608 285 l 1,5,-1
 1433 285 l 1,6,-1
 1433 0 l 1,7,-1
 40 0 l 1,0,-1
EndSplineSet
EndChar

StartChar: a
Encoding: 97 97 114
Width: 1236
VWidth: 2400
GlyphClass: 2
Flags: W
LayerCount: 2
Fore
SplineSet
482 -32 m 0,0,1
 394 -32 394 -32 322 -9 c 128,-1,2
 250 14 250 14 199 55.5 c 128,-1,3
 148 97 148 97 120 155 c 128,-1,4
 92 213 92 213 92 284 c 256,5,6
 92 355 92 355 119.5 414.5 c 128,-1,7
 147 474 147 474 197 517.5 c 128,-1,8
 247 561 247 561 317.5 585 c 128,-1,9
 388 609 388 609 475 609 c 256,10,11
 562 609 562 609 645 584 c 128,-1,12
 728 559 728 559 788 515 c 1,13,-1
 788 604 l 2,14,15
 788 652 788 652 769 692.5 c 128,-1,16
 750 733 750 733 716 762.5 c 128,-1,17
 682 792 682 792 634 808 c 128,-1,18
 586 824 586 824 527 824 c 0,19,20
 496 824 496 824 461 819.5 c 128,-1,21
 426 815 426 815 391.5 806 c 128,-1,22
 357 797 357 797 325 784.5 c 128,-1,23
 293 772 293 772 267 756 c 1,24,-1
 159 942 l 1,25,26
 231 996 231 996 331 1026 c 128,-1,27
 431 1056 431 1056 547 1056 c 0,28,29
 667 1056 667 1056 766 1023.5 c 128,-1,30
 865 991 865 991 935 931 c 128,-1,31
 1005 871 1005 871 1043.5 786.5 c 128,-1,32
 1082 702 1082 702 1082 599 c 2,33,-1
 1082 0 l 1,34,-1
 788 0 l 1,35,-1
 788 59 l 1,36,37
 722 14 722 14 644.5 -9 c 128,-1,38
 567 -32 567 -32 482 -32 c 0,0,1
589 147 m 256,39,40
 634 147 634 147 672 158.5 c 128,-1,41
 710 170 710 170 738.5 190.5 c 128,-1,42
 767 211 767 211 783 238.5 c 128,-1,43
 799 266 799 266 799 298 c 256,44,45
 799 330 799 330 783 358 c 128,-1,46
 767 386 767 386 738.5 406 c 128,-1,47
 710 426 710 426 671 437.5 c 128,-1,48
 632 449 632 449 586 449 c 0,49,50
 541 449 541 449 503 438 c 128,-1,51
 465 427 465 427 437.5 407.5 c 128,-1,52
 410 388 410 388 395 361 c 128,-1,53
 380 334 380 334 380 302 c 0,54,55
 380 269 380 269 396 240.5 c 128,-1,56
 412 212 412 212 440 191 c 128,-1,57
 468 170 468 170 506 158.5 c 128,-1,58
 544 147 544 147 589 147 c 256,39,40
EndSplineSet
Substitution2: "'salt' Stylistic Alternatives lookup 20-1" a.alt
Substitution2: "Single Substitution lookup 16 subtable" ordfeminine
Substitution2: "'aalt' Access All Alternates in Latin lookup 0 subtable" ordfeminine
EndChar

StartChar: ae
Encoding: 230 230 124
Width: 1976
GlyphClass: 2
Flags: W
AnchorPoint: "Anchor-1" 965 0 basechar 0
AnchorPoint: "Anchor-0" 965 1024 basechar 0
LayerCount: 2
Fore
SplineSet
472 -32 m 0,0,1
 356 -32 356 -32 269.5 6 c 128,-1,2
 183 44 183 44 136 115 c 128,-1,3
 89 186 89 186 89 284 c 0,4,5
 89 380 89 380 138.5 452.5 c 128,-1,6
 188 525 188 525 275.5 566 c 128,-1,7
 363 607 363 607 476 607 c 0,8,9
 560 607 560 607 641.5 583 c 128,-1,10
 723 559 723 559 782 517 c 1,11,-1
 782 602 l 2,12,13
 782 698 782 698 710.5 755 c 128,-1,14
 639 812 639 812 527 812 c 0,15,16
 480 812 480 812 429.5 802 c 128,-1,17
 379 792 379 792 333.5 775.5 c 128,-1,18
 288 759 288 759 255 738 c 1,19,-1
 155 945 l 1,20,21
 232 1002 232 1002 332.5 1029 c 128,-1,22
 433 1056 433 1056 546 1056 c 0,23,24
 683 1056 683 1056 788 1012 c 128,-1,25
 893 968 893 968 952 899 c 1,26,27
 1027 972 1027 972 1125.5 1014 c 128,-1,28
 1224 1056 1224 1056 1337 1056 c 0,29,30
 1495 1056 1495 1056 1617 988.5 c 128,-1,31
 1739 921 1739 921 1808.5 801 c 128,-1,32
 1878 681 1878 681 1879 525 c 0,33,34
 1879 514 1879 514 1878 504 c 128,-1,35
 1877 494 1877 494 1876 472 c 1,36,-1
 1089 472 l 1,37,38
 1089 394 1089 394 1124 335.5 c 128,-1,39
 1159 277 1159 277 1223 245 c 128,-1,40
 1287 213 1287 213 1373 213 c 0,41,42
 1453 213 1453 213 1514.5 244 c 128,-1,43
 1576 275 1576 275 1634 343 c 1,44,-1
 1855 232 l 1,45,46
 1780 105 1780 105 1648.5 36.5 c 128,-1,47
 1517 -32 1517 -32 1349 -32 c 0,48,49
 1222 -32 1222 -32 1116 12.5 c 128,-1,50
 1010 57 1010 57 927 144 c 1,51,52
 836 84 836 84 759.5 45 c 128,-1,53
 683 6 683 6 613.5 -13 c 128,-1,54
 544 -32 544 -32 472 -32 c 0,0,1
592 155 m 0,55,56
 648 155 648 155 693.5 173.5 c 128,-1,57
 739 192 739 192 766 224 c 128,-1,58
 793 256 793 256 793 298 c 0,59,60
 793 341 793 341 765.5 373 c 128,-1,61
 738 405 738 405 691.5 423 c 128,-1,62
 645 441 645 441 588 441 c 0,63,64
 533 441 533 441 488.5 423.5 c 128,-1,65
 444 406 444 406 418 375 c 128,-1,66
 392 344 392 344 392 302 c 0,67,68
 392 259 392 259 419 226 c 128,-1,69
 446 193 446 193 491.5 174 c 128,-1,70
 537 155 537 155 592 155 c 0,55,56
1098 637 m 1,71,-1
 1578 637 l 1,72,73
 1571 702 1571 702 1539.5 749 c 128,-1,74
 1508 796 1508 796 1457 822 c 128,-1,75
 1406 848 1406 848 1340 848 c 0,76,77
 1273 848 1273 848 1220 821 c 128,-1,78
 1167 794 1167 794 1135 747 c 128,-1,79
 1103 700 1103 700 1098 637 c 1,71,-1
EndSplineSet
EndChar

StartChar: b
Encoding: 98 98 125
Width: 1454
GlyphClass: 2
Flags: W
AnchorPoint: "Anchor-1" 727 0 basechar 0
AnchorPoint: "Anchor-0" 727 1720 basechar 0
LayerCount: 2
Fore
SplineSet
848 -32 m 0,0,1
 742 -32 742 -32 649 12 c 128,-1,2
 556 56 556 56 488 135 c 1,3,-1
 488 0 l 1,4,-1
 181 0 l 1,5,-1
 181 1720 l 1,6,-1
 488 1720 l 1,7,-1
 488 899 l 1,8,9
 549 973 549 973 641 1014.5 c 128,-1,10
 733 1056 733 1056 840 1056 c 0,11,12
 988 1056 988 1056 1104 984.5 c 128,-1,13
 1220 913 1220 913 1286 790.5 c 128,-1,14
 1352 668 1352 668 1352 512 c 0,15,16
 1352 353 1352 353 1284 230 c 128,-1,17
 1216 107 1216 107 1101.5 37.5 c 128,-1,18
 987 -32 987 -32 848 -32 c 0,0,1
756 229 m 0,19,20
 837 229 837 229 898 265.5 c 128,-1,21
 959 302 959 302 994 365.5 c 128,-1,22
 1029 429 1029 429 1029 510 c 0,23,24
 1029 592 1029 592 993 656.5 c 128,-1,25
 957 721 957 721 896 758 c 128,-1,26
 835 795 835 795 756 795 c 256,27,28
 677 795 677 795 614.5 758 c 128,-1,29
 552 721 552 721 516 657 c 128,-1,30
 480 593 480 593 480 510 c 0,31,32
 480 429 480 429 515.5 365.5 c 128,-1,33
 551 302 551 302 613.5 265.5 c 128,-1,34
 676 229 676 229 756 229 c 0,19,20
EndSplineSet
EndChar

StartChar: c
Encoding: 99 99 126
Width: 1064
GlyphClass: 2
Flags: W
AnchorPoint: "Anchor-1" 669 16 basechar 0
AnchorPoint: "Anchor-0" 610 1056 basechar 0
LayerCount: 2
Fore
SplineSet
660 -32 m 0,0,1
 543 -32 543 -32 439.5 10 c 128,-1,2
 336 52 336 52 257 126.5 c 128,-1,3
 178 201 178 201 133 299.5 c 128,-1,4
 88 398 88 398 88 511 c 0,5,6
 88 620 88 620 130.5 718 c 128,-1,7
 173 816 173 816 250.5 892 c 128,-1,8
 328 968 328 968 432.5 1012 c 128,-1,9
 537 1056 537 1056 659 1056 c 0,10,11
 758 1056 758 1056 849.5 1028 c 128,-1,12
 941 1000 941 1000 997 956 c 1,13,-1
 892 749 l 1,14,15
 817 804 817 804 706 804 c 0,16,17
 611 804 611 804 545 762 c 128,-1,18
 479 720 479 720 444.5 653 c 128,-1,19
 410 586 410 586 410 512 c 0,20,21
 410 431 410 431 447 364.5 c 128,-1,22
 484 298 484 298 551.5 259 c 128,-1,23
 619 220 619 220 708 220 c 0,24,25
 763 220 763 220 811 235 c 128,-1,26
 859 250 859 250 892 275 c 1,27,-1
 997 68 l 1,28,29
 940 25 940 25 850 -3.5 c 128,-1,30
 760 -32 760 -32 660 -32 c 0,0,1
EndSplineSet
EndChar

StartChar: d
Encoding: 100 100 131
Width: 1453
GlyphClass: 2
Flags: W
AnchorPoint: "Anchor-1" 616 0 basechar 0
AnchorPoint: "Anchor-0" 639 1462 basechar 0
LayerCount: 2
Fore
SplineSet
605 -32 m 0,0,1
 466 -32 466 -32 351.5 37.5 c 128,-1,2
 237 107 237 107 169 230 c 128,-1,3
 101 353 101 353 101 512 c 0,4,5
 101 668 101 668 167 790.5 c 128,-1,6
 233 913 233 913 348.5 984.5 c 128,-1,7
 464 1056 464 1056 613 1056 c 0,8,9
 721 1056 721 1056 813 1014.5 c 128,-1,10
 905 973 905 973 966 899 c 1,11,-1
 966 1720 l 1,12,-1
 1273 1720 l 1,13,-1
 1273 0 l 1,14,-1
 966 0 l 1,15,-1
 966 135 l 1,16,17
 898 56 898 56 805 12 c 128,-1,18
 712 -32 712 -32 605 -32 c 0,0,1
697 229 m 0,19,20
 778 229 778 229 840 265.5 c 128,-1,21
 902 302 902 302 937.5 366 c 128,-1,22
 973 430 973 430 973 511 c 0,23,24
 973 593 973 593 937.5 657 c 128,-1,25
 902 721 902 721 840 758 c 128,-1,26
 778 795 778 795 698 795 c 0,27,28
 619 795 619 795 557.5 758 c 128,-1,29
 496 721 496 721 460 656.5 c 128,-1,30
 424 592 424 592 424 510 c 0,31,32
 424 429 424 429 459 365.5 c 128,-1,33
 494 302 494 302 556 265.5 c 128,-1,34
 618 229 618 229 697 229 c 0,19,20
EndSplineSet
EndChar

StartChar: eth
Encoding: 240 240 132
Width: 1421
Flags: W
LayerCount: 2
Fore
SplineSet
700 -32 m 0,0,1
 520 -32 520 -32 383.5 38 c 128,-1,2
 247 108 247 108 170 231 c 128,-1,3
 93 354 93 354 93 512 c 0,4,5
 93 650 93 650 146 753.5 c 128,-1,6
 199 857 199 857 285 927 c 128,-1,7
 371 997 371 997 474 1032 c 128,-1,8
 577 1067 577 1067 678 1067 c 0,9,10
 730 1067 730 1067 774 1045.5 c 128,-1,11
 818 1024 818 1024 843 988 c 1,12,13
 796 1086 796 1086 729 1163.5 c 128,-1,14
 662 1241 662 1241 584 1298 c 1,15,-1
 421 1135 l 1,16,-1
 284 1271 l 1,17,-1
 413 1398 l 1,18,19
 351 1432 351 1432 290.5 1455.5 c 128,-1,20
 230 1479 230 1479 183 1492 c 1,21,-1
 256 1750 l 1,22,23
 337 1728 337 1728 432.5 1692 c 128,-1,24
 528 1656 528 1656 619 1605 c 1,25,-1
 766 1750 l 1,26,-1
 899 1612 l 1,27,-1
 788 1502 l 1,28,29
 890 1429 890 1429 982 1332.5 c 128,-1,30
 1074 1236 1074 1236 1146.5 1114 c 128,-1,31
 1219 992 1219 992 1260.5 842 c 128,-1,32
 1302 692 1302 692 1302 512 c 0,33,34
 1302 354 1302 354 1224 231 c 128,-1,35
 1146 108 1146 108 1010 38 c 128,-1,36
 874 -32 874 -32 700 -32 c 0,0,1
698 231 m 0,37,38
 779 231 779 231 842.5 267 c 128,-1,39
 906 303 906 303 942 366.5 c 128,-1,40
 978 430 978 430 978 512 c 0,41,42
 978 595 978 595 941 659 c 128,-1,43
 904 723 904 723 840.5 759 c 128,-1,44
 777 795 777 795 698 795 c 256,45,46
 619 795 619 795 555.5 759 c 128,-1,47
 492 723 492 723 454.5 659 c 128,-1,48
 417 595 417 595 417 512 c 0,49,50
 417 430 417 430 453 366.5 c 128,-1,51
 489 303 489 303 552 267 c 128,-1,52
 615 231 615 231 698 231 c 0,37,38
EndSplineSet
EndChar

StartChar: dcroat
Encoding: 273 273 134
Width: 1453
Flags: W
LayerCount: 2
Fore
SplineSet
609 -32 m 0,0,1
 460 -32 460 -32 345.5 41 c 128,-1,2
 231 114 231 114 166 237.5 c 128,-1,3
 101 361 101 361 101 512 c 1,4,-1
 101 512 l 1,5,6
 101 664 101 664 166 787 c 128,-1,7
 231 910 231 910 345.5 983 c 128,-1,8
 460 1056 460 1056 609 1056 c 0,9,10
 721 1056 721 1056 812 1014.5 c 128,-1,11
 903 973 903 973 966 899 c 1,12,-1
 966 1271 l 1,13,-1
 680 1271 l 1,14,-1
 680 1469 l 1,15,-1
 966 1469 l 1,16,-1
 966 1720 l 1,17,-1
 1273 1720 l 1,18,-1
 1273 1469 l 1,19,-1
 1404 1469 l 1,20,-1
 1404 1271 l 1,21,-1
 1273 1271 l 1,22,-1
 1273 0 l 1,23,-1
 966 0 l 1,24,-1
 966 135 l 1,25,26
 905 62 905 62 813 15 c 128,-1,27
 721 -32 721 -32 609 -32 c 0,0,1
699 229 m 0,28,29
 779 229 779 229 840.5 265.5 c 128,-1,30
 902 302 902 302 937.5 366 c 128,-1,31
 973 430 973 430 973 512 c 0,32,33
 973 595 973 595 936.5 659 c 128,-1,34
 900 723 900 723 838 759 c 128,-1,35
 776 795 776 795 699 795 c 256,36,37
 622 795 622 795 559.5 759 c 128,-1,38
 497 723 497 723 460.5 659 c 128,-1,39
 424 595 424 595 424 512 c 1,40,-1
 424 512 l 1,41,42
 424 430 424 430 458.5 366 c 128,-1,43
 493 302 493 302 555 265.5 c 128,-1,44
 617 229 617 229 699 229 c 0,28,29
EndSplineSet
EndChar

StartChar: e
Encoding: 101 101 135
Width: 1292
GlyphClass: 2
Flags: W
AnchorPoint: "Anchor-2" 749 7 basechar 0
AnchorPoint: "Anchor-1" 727 0 basechar 0
AnchorPoint: "Anchor-0" 658 1047 basechar 0
LayerCount: 2
Fore
SplineSet
673 -32 m 0,0,1
 507 -32 507 -32 375.5 39.5 c 128,-1,2
 244 111 244 111 167 234 c 128,-1,3
 90 357 90 357 90 512 c 0,4,5
 90 626 90 626 133.5 725 c 128,-1,6
 177 824 177 824 255 898.5 c 128,-1,7
 333 973 333 973 436 1014.5 c 128,-1,8
 539 1056 539 1056 659 1056 c 0,9,10
 819 1056 819 1056 939.5 989.5 c 128,-1,11
 1060 923 1060 923 1127.5 805 c 128,-1,12
 1195 687 1195 687 1195 530 c 0,13,14
 1195 517 1195 517 1194.5 507.5 c 128,-1,15
 1194 498 1194 498 1191 472 c 1,16,-1
 406 472 l 1,17,18
 406 394 406 394 441.5 336 c 128,-1,19
 477 278 477 278 541 245.5 c 128,-1,20
 605 213 605 213 690 213 c 0,21,22
 770 213 770 213 831.5 244 c 128,-1,23
 893 275 893 275 950 343 c 1,24,-1
 1171 232 l 1,25,26
 1099 108 1099 108 967 38 c 128,-1,27
 835 -32 835 -32 673 -32 c 0,0,1
417 642 m 1,28,-1
 893 642 l 1,29,30
 883 701 883 701 850.5 744 c 128,-1,31
 818 787 818 787 768 810 c 128,-1,32
 718 833 718 833 655 833 c 0,33,34
 588 833 588 833 537 810 c 128,-1,35
 486 787 486 787 455 744 c 128,-1,36
 424 701 424 701 417 642 c 1,28,-1
EndSplineSet
EndChar

StartChar: f
Encoding: 102 102 144
Width: 821
GlyphClass: 2
Flags: W
AnchorPoint: "Anchor-1" 393 0 basechar 0
AnchorPoint: "Anchor-0" 605 1720 basechar 0
LayerCount: 2
Fore
SplineSet
225 0 m 1,0,-1
 225 791 l 1,1,-1
 88 791 l 1,2,-1
 88 1024 l 1,3,-1
 225 1024 l 1,4,-1
 225 1278 l 2,5,6
 225 1422 225 1422 270.5 1528.5 c 128,-1,7
 316 1635 316 1635 400 1692.5 c 128,-1,8
 484 1750 484 1750 603 1750 c 0,9,10
 677 1750 677 1750 748 1727.5 c 128,-1,11
 819 1705 819 1705 869 1665 c 1,12,-1
 763 1450 l 1,13,14
 716 1479 716 1479 656 1479 c 0,15,16
 604 1479 604 1479 577.5 1452.5 c 128,-1,17
 551 1426 551 1426 541.5 1379.5 c 128,-1,18
 532 1333 532 1333 532 1271 c 2,19,-1
 532 1024 l 1,20,-1
 774 1024 l 1,21,-1
 774 791 l 1,22,-1
 532 791 l 1,23,-1
 532 0 l 1,24,-1
 225 0 l 1,0,-1
EndSplineSet
EndChar

StartChar: g
Encoding: 103 103 145
Width: 1453
GlyphClass: 2
Flags: W
AnchorPoint: "Anchor-1" 741 -520 basechar 0
AnchorPoint: "Anchor-0" 716 1034 basechar 0
LayerCount: 2
Fore
SplineSet
674 -550 m 0,0,1
 467 -550 467 -550 326 -474.5 c 128,-1,2
 185 -399 185 -399 121 -252 c 1,3,-1
 371 -130 l 1,4,5
 413 -201 413 -201 495 -243 c 128,-1,6
 577 -285 577 -285 673 -285 c 0,7,8
 760 -285 760 -285 826 -250.5 c 128,-1,9
 892 -216 892 -216 929 -153.5 c 128,-1,10
 966 -91 966 -91 966 -9 c 2,11,-1
 966 135 l 1,12,13
 898 56 898 56 805 12 c 128,-1,14
 712 -32 712 -32 605 -32 c 0,15,16
 466 -32 466 -32 351.5 37.5 c 128,-1,17
 237 107 237 107 169 230 c 128,-1,18
 101 353 101 353 101 512 c 0,19,20
 101 668 101 668 167.5 790.5 c 128,-1,21
 234 913 234 913 349.5 984.5 c 128,-1,22
 465 1056 465 1056 613 1056 c 0,23,24
 721 1056 721 1056 813 1014.5 c 128,-1,25
 905 973 905 973 966 899 c 1,26,-1
 966 1024 l 1,27,-1
 1273 1024 l 1,28,-1
 1273 -28 l 2,29,30
 1273 -179 1273 -179 1207.5 -297 c 128,-1,31
 1142 -415 1142 -415 1009 -482.5 c 128,-1,32
 876 -550 876 -550 674 -550 c 0,0,1
697 229 m 0,33,34
 778 229 778 229 840.5 265.5 c 128,-1,35
 903 302 903 302 938 365.5 c 128,-1,36
 973 429 973 429 973 510 c 0,37,38
 973 593 973 593 937.5 657 c 128,-1,39
 902 721 902 721 840 758 c 128,-1,40
 778 795 778 795 699 795 c 256,41,42
 620 795 620 795 558 758 c 128,-1,43
 496 721 496 721 460 656.5 c 128,-1,44
 424 592 424 592 424 510 c 0,45,46
 424 429 424 429 459 365.5 c 128,-1,47
 494 302 494 302 556 265.5 c 128,-1,48
 618 229 618 229 697 229 c 0,33,34
EndSplineSet
EndChar

StartChar: h
Encoding: 104 104 149
Width: 1390
GlyphClass: 2
Flags: W
AnchorPoint: "Anchor-1" 696 0 basechar 0
AnchorPoint: "Anchor-0" 696 1720 basechar 0
LayerCount: 2
Fore
SplineSet
181 0 m 1,0,-1
 181 1720 l 1,1,-1
 488 1720 l 1,2,-1
 488 910 l 1,3,4
 547 976 547 976 635.5 1016 c 128,-1,5
 724 1056 724 1056 831 1056 c 0,6,7
 949 1056 949 1056 1038.5 1004.5 c 128,-1,8
 1128 953 1128 953 1179 861.5 c 128,-1,9
 1230 770 1230 770 1230 648 c 2,10,-1
 1230 0 l 1,11,-1
 923 0 l 1,12,-1
 923 583 l 2,13,14
 923 693 923 693 865.5 754.5 c 128,-1,15
 808 816 808 816 708 816 c 0,16,17
 640 816 640 816 590.5 788.5 c 128,-1,18
 541 761 541 761 514.5 713.5 c 128,-1,19
 488 666 488 666 488 606 c 2,20,-1
 488 0 l 1,21,-1
 181 0 l 1,0,-1
EndSplineSet
EndChar

StartChar: hbar
Encoding: 295 295 150
Width: 1390
Flags: W
LayerCount: 2
Fore
SplineSet
181 0 m 1,0,-1
 181 1720 l 1,1,-1
 488 1720 l 1,2,-1
 488 910 l 1,3,4
 547 976 547 976 635.5 1016 c 128,-1,5
 724 1056 724 1056 831 1056 c 0,6,7
 949 1056 949 1056 1038.5 1004.5 c 128,-1,8
 1128 953 1128 953 1179 861.5 c 128,-1,9
 1230 770 1230 770 1230 648 c 2,10,-1
 1230 0 l 1,11,-1
 923 0 l 1,12,-1
 923 583 l 2,13,14
 923 693 923 693 865.5 754.5 c 128,-1,15
 808 816 808 816 708 816 c 0,16,17
 640 816 640 816 590.5 788.5 c 128,-1,18
 541 761 541 761 514.5 713.5 c 128,-1,19
 488 666 488 666 488 606 c 2,20,-1
 488 0 l 1,21,-1
 181 0 l 1,0,-1
42 1254 m 1,22,-1
 42 1441 l 1,23,-1
 711 1441 l 1,24,-1
 711 1254 l 1,25,-1
 42 1254 l 1,22,-1
EndSplineSet
EndChar

StartChar: i
Encoding: 105 105 151
Width: 668
GlyphClass: 2
Flags: W
AnchorPoint: "Anchor-1" 334 0 basechar 0
LayerCount: 2
Fore
SplineSet
180 0 m 1,0,-1
 180 1024 l 1,1,-1
 487 1024 l 1,2,-1
 487 0 l 1,3,-1
 180 0 l 1,0,-1
334 1237 m 256,4,5
 284 1237 284 1237 242.5 1261.5 c 128,-1,6
 201 1286 201 1286 176 1328 c 128,-1,7
 151 1370 151 1370 151 1420 c 256,8,9
 151 1470 151 1470 176 1511 c 128,-1,10
 201 1552 201 1552 242.5 1576.5 c 128,-1,11
 284 1601 284 1601 334 1601 c 256,12,13
 384 1601 384 1601 425 1576.5 c 128,-1,14
 466 1552 466 1552 490.5 1511 c 128,-1,15
 515 1470 515 1470 515 1420 c 256,16,17
 515 1370 515 1370 490.5 1328 c 128,-1,18
 466 1286 466 1286 425 1261.5 c 128,-1,19
 384 1237 384 1237 334 1237 c 256,4,5
EndSplineSet
Substitution2: "'locl' Localized Forms in Latin lookup 5 subtable" i.loclTRK
Substitution2: "Single Substitution lookup 4 subtable" dotlessi
Substitution2: "Single Substitution lookup 3 subtable" dotlessi
Substitution2: "'aalt' Access All Alternates in Latin lookup 0 subtable" i.loclTRK
EndChar

StartChar: dotlessi
Encoding: 305 305 152
Width: 668
GlyphClass: 2
Flags: W
AnchorPoint: "Anchor-2" 488 0 basechar 0
AnchorPoint: "Anchor-1" 334 0 basechar 0
AnchorPoint: "Anchor-0" 334 1024 basechar 0
LayerCount: 2
Fore
SplineSet
181 0 m 1,0,-1
 181 1024 l 1,1,-1
 488 1024 l 1,2,-1
 488 0 l 1,3,-1
 181 0 l 1,0,-1
EndSplineSet
EndChar

StartChar: j
Encoding: 106 106 160
Width: 669
Flags: W
LayerCount: 2
Fore
SplineSet
135 -550 m 0,0,1
 68 -550 68 -550 -4 -533.5 c 128,-1,2
 -76 -517 -76 -517 -120 -489 c 1,3,-1
 -26 -242 l 1,4,5
 21 -275 21 -275 72 -275 c 0,6,7
 181 -275 181 -275 181 -119 c 2,8,-1
 181 1024 l 1,9,-1
 488 1024 l 1,10,-1
 488 -173 l 2,11,12
 488 -348 488 -348 394.5 -449 c 128,-1,13
 301 -550 301 -550 135 -550 c 0,0,1
334 1238 m 0,14,15
 285 1238 285 1238 243 1262.5 c 128,-1,16
 201 1287 201 1287 176.5 1328.5 c 128,-1,17
 152 1370 152 1370 152 1420 c 256,18,19
 152 1470 152 1470 176.5 1511.5 c 128,-1,20
 201 1553 201 1553 243 1577.5 c 128,-1,21
 285 1602 285 1602 335 1602 c 0,22,23
 384 1602 384 1602 425.5 1577.5 c 128,-1,24
 467 1553 467 1553 491.5 1511.5 c 128,-1,25
 516 1470 516 1470 516 1421 c 0,26,27
 516 1371 516 1371 491.5 1329 c 128,-1,28
 467 1287 467 1287 425.5 1262.5 c 128,-1,29
 384 1238 384 1238 334 1238 c 0,14,15
EndSplineSet
EndChar

StartChar: k
Encoding: 107 107 161
Width: 1295
GlyphClass: 2
Flags: W
AnchorPoint: "Anchor-1" 648 0 basechar 0
AnchorPoint: "Anchor-0" 648 1720 basechar 0
LayerCount: 2
Fore
SplineSet
181 0 m 1,0,-1
 181 1720 l 1,1,-1
 488 1720 l 1,2,-1
 488 650 l 1,3,-1
 866 1024 l 1,4,-1
 1264 1024 l 1,5,-1
 763 522 l 1,6,-1
 1287 0 l 1,7,-1
 893 0 l 1,8,-1
 488 405 l 1,9,-1
 488 0 l 1,10,-1
 181 0 l 1,0,-1
EndSplineSet
EndChar

StartChar: l
Encoding: 108 108 163
Width: 668
GlyphClass: 2
Flags: W
AnchorPoint: "Anchor-1" 334 0 basechar 0
AnchorPoint: "Anchor-0" 334 1720 basechar 0
LayerCount: 2
Fore
SplineSet
181 0 m 1,0,-1
 181 1720 l 1,1,-1
 488 1720 l 1,2,-1
 488 0 l 1,3,-1
 181 0 l 1,0,-1
EndSplineSet
EndChar

StartChar: lslash
Encoding: 322 322 167
Width: 748
Flags: W
LayerCount: 2
Fore
SplineSet
250 0 m 1,0,-1
 250 662 l 1,1,-1
 91 538 l 1,2,-1
 91 805 l 1,3,-1
 250 928 l 1,4,-1
 250 1720 l 1,5,-1
 557 1720 l 1,6,-1
 557 1169 l 1,7,-1
 715 1294 l 1,8,-1
 715 1028 l 1,9,-1
 557 903 l 1,10,-1
 557 0 l 1,11,-1
 250 0 l 1,0,-1
EndSplineSet
EndChar

StartChar: m
Encoding: 109 109 168
Width: 2054
GlyphClass: 2
Flags: W
AnchorPoint: "Anchor-1" 1189 0 basechar 0
AnchorPoint: "Anchor-0" 1098 1024 basechar 0
LayerCount: 2
Fore
SplineSet
181 0 m 1,0,-1
 181 1024 l 1,1,-1
 488 1024 l 1,2,-1
 488 910 l 1,3,4
 564 986 564 986 639 1021 c 128,-1,5
 714 1056 714 1056 801 1056 c 0,6,7
 919 1056 919 1056 1014 1003 c 128,-1,8
 1109 950 1109 950 1150 861 c 1,9,10
 1225 958 1225 958 1311 1007 c 128,-1,11
 1397 1056 1397 1056 1508 1056 c 256,12,13
 1619 1056 1619 1056 1705 1010 c 128,-1,14
 1791 964 1791 964 1840.5 879.5 c 128,-1,15
 1890 795 1890 795 1890 680 c 2,16,-1
 1890 0 l 1,17,-1
 1583 0 l 1,18,-1
 1583 596 l 2,19,20
 1583 696 1583 696 1531 753.5 c 128,-1,21
 1479 811 1479 811 1392 811 c 0,22,23
 1332 811 1332 811 1286.5 786 c 128,-1,24
 1241 761 1241 761 1215 719 c 128,-1,25
 1189 677 1189 677 1189 626 c 2,26,-1
 1189 0 l 1,27,-1
 882 0 l 1,28,-1
 882 602 l 2,29,30
 882 697 882 697 831.5 754 c 128,-1,31
 781 811 781 811 692 811 c 0,32,33
 633 811 633 811 586.5 786 c 128,-1,34
 540 761 540 761 514 718 c 128,-1,35
 488 675 488 675 488 623 c 2,36,-1
 488 0 l 1,37,-1
 181 0 l 1,0,-1
EndSplineSet
EndChar

StartChar: n
Encoding: 110 110 169
Width: 1390
GlyphClass: 2
Flags: W
AnchorPoint: "Anchor-1" 696 0 basechar 0
AnchorPoint: "Anchor-0" 719 1056 basechar 0
LayerCount: 2
Fore
SplineSet
181 0 m 1,0,-1
 181 1024 l 1,1,-1
 488 1024 l 1,2,-1
 488 910 l 1,3,4
 547 976 547 976 635.5 1016 c 128,-1,5
 724 1056 724 1056 831 1056 c 0,6,7
 949 1056 949 1056 1038.5 1004.5 c 128,-1,8
 1128 953 1128 953 1179 861.5 c 128,-1,9
 1230 770 1230 770 1230 648 c 2,10,-1
 1230 0 l 1,11,-1
 923 0 l 1,12,-1
 923 583 l 2,13,14
 923 693 923 693 865.5 754.5 c 128,-1,15
 808 816 808 816 708 816 c 0,16,17
 640 816 640 816 590.5 788.5 c 128,-1,18
 541 761 541 761 514.5 713.5 c 128,-1,19
 488 666 488 666 488 606 c 2,20,-1
 488 0 l 1,21,-1
 181 0 l 1,0,-1
EndSplineSet
EndChar

StartChar: eng
Encoding: 331 331 173
Width: 1382
Flags: W
LayerCount: 2
Fore
SplineSet
875 -550 m 0,0,1
 806 -550 806 -550 735 -533 c 128,-1,2
 664 -516 664 -516 622 -489 c 1,3,-1
 716 -242 l 1,4,5
 764 -275 764 -275 813 -275 c 0,6,7
 923 -275 923 -275 923 -119 c 2,8,-1
 923 582 l 2,9,10
 923 649 923 649 897 702 c 128,-1,11
 871 755 871 755 822.5 785.5 c 128,-1,12
 774 816 774 816 706 816 c 0,13,14
 645 816 645 816 595.5 790.5 c 128,-1,15
 546 765 546 765 517 718 c 128,-1,16
 488 671 488 671 488 606 c 2,17,-1
 488 0 l 1,18,-1
 181 0 l 1,19,-1
 181 1024 l 1,20,-1
 488 1024 l 1,21,-1
 488 910 l 1,22,23
 547 978 547 978 637.5 1017 c 128,-1,24
 728 1056 728 1056 827 1056 c 0,25,26
 944 1056 944 1056 1035 1003 c 128,-1,27
 1126 950 1126 950 1178 858 c 128,-1,28
 1230 766 1230 766 1230 650 c 2,29,-1
 1230 -173 l 2,30,31
 1230 -347 1230 -347 1136.5 -448.5 c 128,-1,32
 1043 -550 1043 -550 875 -550 c 0,0,1
EndSplineSet
EndChar

StartChar: o
Encoding: 111 111 175
Width: 1383
GlyphClass: 2
Flags: W
AnchorPoint: "Anchor-2" 777 10 basechar 0
AnchorPoint: "Anchor-1" 692 0 basechar 0
AnchorPoint: "Anchor-0" 691 1056 basechar 0
LayerCount: 2
Fore
SplineSet
691 -32 m 0,0,1
 522 -32 522 -32 386 37.5 c 128,-1,2
 250 107 250 107 170 229.5 c 128,-1,3
 90 352 90 352 90 512 c 256,4,5
 90 672 90 672 169.5 794.5 c 128,-1,6
 249 917 249 917 385.5 986.5 c 128,-1,7
 522 1056 522 1056 691 1056 c 0,8,9
 861 1056 861 1056 997 986.5 c 128,-1,10
 1133 917 1133 917 1212.5 794.5 c 128,-1,11
 1292 672 1292 672 1292 512 c 256,12,13
 1292 352 1292 352 1212.5 229.5 c 128,-1,14
 1133 107 1133 107 997 37.5 c 128,-1,15
 861 -32 861 -32 691 -32 c 0,0,1
692 230 m 0,16,17
 770 230 770 230 834 266 c 128,-1,18
 898 302 898 302 935 365.5 c 128,-1,19
 972 429 972 429 972 512 c 256,20,21
 972 595 972 595 935 658.5 c 128,-1,22
 898 722 898 722 834 758 c 128,-1,23
 770 794 770 794 692 794 c 0,24,25
 613 794 613 794 549.5 758 c 128,-1,26
 486 722 486 722 449 658.5 c 128,-1,27
 412 595 412 595 412 512 c 256,28,29
 412 429 412 429 449 365.5 c 128,-1,30
 486 302 486 302 549.5 266 c 128,-1,31
 613 230 613 230 692 230 c 0,16,17
EndSplineSet
Substitution2: "Single Substitution lookup 16 subtable" ordmasculine
Substitution2: "'aalt' Access All Alternates in Latin lookup 0 subtable" ordmasculine
EndChar

StartChar: oslash
Encoding: 248 248 182
Width: 1383
Flags: W
LayerCount: 2
Fore
SplineSet
691 -32 m 0,0,1
 522 -32 522 -32 386 37.5 c 128,-1,2
 250 107 250 107 170 229.5 c 128,-1,3
 90 352 90 352 90 512 c 256,4,5
 90 672 90 672 169.5 794.5 c 128,-1,6
 249 917 249 917 385.5 986.5 c 128,-1,7
 522 1056 522 1056 691 1056 c 0,8,9
 861 1056 861 1056 997 986.5 c 128,-1,10
 1133 917 1133 917 1212.5 794.5 c 128,-1,11
 1292 672 1292 672 1292 512 c 256,12,13
 1292 352 1292 352 1212.5 229.5 c 128,-1,14
 1133 107 1133 107 997 37.5 c 128,-1,15
 861 -32 861 -32 691 -32 c 0,0,1
692 230 m 0,16,17
 770 230 770 230 834 266 c 128,-1,18
 898 302 898 302 935 365.5 c 128,-1,19
 972 429 972 429 972 512 c 256,20,21
 972 595 972 595 935 658.5 c 128,-1,22
 898 722 898 722 834 758 c 128,-1,23
 770 794 770 794 692 794 c 0,24,25
 613 794 613 794 549.5 758 c 128,-1,26
 486 722 486 722 449 658.5 c 128,-1,27
 412 595 412 595 412 512 c 256,28,29
 412 429 412 429 449 365.5 c 128,-1,30
 486 302 486 302 549.5 266 c 128,-1,31
 613 230 613 230 692 230 c 0,16,17
175 -32 m 1,32,-1
 1067 1056 l 1,33,-1
 1208 1056 l 1,34,-1
 316 -32 l 1,35,-1
 175 -32 l 1,32,-1
EndSplineSet
EndChar

StartChar: oe
Encoding: 339 339 184
Width: 2164
GlyphClass: 2
Flags: W
AnchorPoint: "Anchor-1" 1082 0 basechar 0
AnchorPoint: "Anchor-0" 1082 1024 basechar 0
LayerCount: 2
Fore
SplineSet
680 -32 m 0,0,1
 510 -32 510 -32 377.5 37.5 c 128,-1,2
 245 107 245 107 169 230 c 128,-1,3
 93 353 93 353 93 512 c 256,4,5
 93 671 93 671 168.5 794 c 128,-1,6
 244 917 244 917 377 986.5 c 128,-1,7
 510 1056 510 1056 680 1056 c 0,8,9
 819 1056 819 1056 929 1002.5 c 128,-1,10
 1039 949 1039 949 1104 850 c 1,11,12
 1156 915 1156 915 1220.5 961 c 128,-1,13
 1285 1007 1285 1007 1363 1031.5 c 128,-1,14
 1441 1056 1441 1056 1527 1056 c 0,15,16
 1685 1056 1685 1056 1806.5 988 c 128,-1,17
 1928 920 1928 920 1997.5 800.5 c 128,-1,18
 2067 681 2067 681 2067 526 c 0,19,20
 2067 516 2067 516 2067 508.5 c 128,-1,21
 2067 501 2067 501 2064 472 c 1,22,-1
 1278 472 l 1,23,24
 1278 394 1278 394 1313 335.5 c 128,-1,25
 1348 277 1348 277 1412 245 c 128,-1,26
 1476 213 1476 213 1562 213 c 0,27,28
 1642 213 1642 213 1703 244 c 128,-1,29
 1764 275 1764 275 1822 343 c 1,30,-1
 2043 232 l 1,31,32
 1968 106 1968 106 1836.5 37 c 128,-1,33
 1705 -32 1705 -32 1536 -32 c 0,34,35
 1399 -32 1399 -32 1290.5 20.5 c 128,-1,36
 1182 73 1182 73 1104 173 c 1,37,38
 1041 76 1041 76 931 22 c 128,-1,39
 821 -32 821 -32 680 -32 c 0,0,1
694 229 m 0,40,41
 775 229 775 229 839 266 c 128,-1,42
 903 303 903 303 939.5 367 c 128,-1,43
 976 431 976 431 976 512 c 0,44,45
 976 594 976 594 939.5 657.5 c 128,-1,46
 903 721 903 721 839 758 c 128,-1,47
 775 795 775 795 694 795 c 0,48,49
 614 795 614 795 550 758 c 128,-1,50
 486 721 486 721 449.5 657.5 c 128,-1,51
 413 594 413 594 413 512 c 0,52,53
 413 431 413 431 449.5 367 c 128,-1,54
 486 303 486 303 550 266 c 128,-1,55
 614 229 614 229 694 229 c 0,40,41
1286 637 m 1,56,-1
 1767 637 l 1,57,58
 1759 702 1759 702 1727.5 749 c 128,-1,59
 1696 796 1696 796 1645 822 c 128,-1,60
 1594 848 1594 848 1528 848 c 0,61,62
 1461 848 1461 848 1408 821 c 128,-1,63
 1355 794 1355 794 1323 747 c 128,-1,64
 1291 700 1291 700 1286 637 c 1,56,-1
EndSplineSet
EndChar

StartChar: p
Encoding: 112 112 185
Width: 1454
GlyphClass: 2
Flags: W
AnchorPoint: "Anchor-1" 738 -10 basechar 0
AnchorPoint: "Anchor-0" 738 1034 basechar 0
LayerCount: 2
Fore
SplineSet
181 -520 m 1,0,-1
 181 1024 l 1,1,-1
 488 1024 l 1,2,-1
 488 899 l 1,3,4
 550 974 550 974 642 1015 c 128,-1,5
 734 1056 734 1056 840 1056 c 0,6,7
 988 1056 988 1056 1103.5 985 c 128,-1,8
 1219 914 1219 914 1285.5 791 c 128,-1,9
 1352 668 1352 668 1352 512 c 0,10,11
 1352 358 1352 358 1286 234.5 c 128,-1,12
 1220 111 1220 111 1105.5 39.5 c 128,-1,13
 991 -32 991 -32 847 -32 c 0,14,15
 742 -32 742 -32 649 11.5 c 128,-1,16
 556 55 556 55 488 135 c 1,17,-1
 488 -520 l 1,18,-1
 181 -520 l 1,0,-1
756 229 m 0,19,20
 836 229 836 229 897.5 265.5 c 128,-1,21
 959 302 959 302 994 365.5 c 128,-1,22
 1029 429 1029 429 1029 511 c 256,23,24
 1029 593 1029 593 993 657 c 128,-1,25
 957 721 957 721 896 758 c 128,-1,26
 835 795 835 795 756 795 c 256,27,28
 677 795 677 795 614.5 758 c 128,-1,29
 552 721 552 721 516 657.5 c 128,-1,30
 480 594 480 594 480 511 c 0,31,32
 480 430 480 430 515.5 366 c 128,-1,33
 551 302 551 302 614 265.5 c 128,-1,34
 677 229 677 229 756 229 c 0,19,20
EndSplineSet
EndChar

StartChar: thorn
Encoding: 254 254 186
Width: 1454
GlyphClass: 2
Flags: W
AnchorPoint: "Anchor-1" 735 0 basechar 0
AnchorPoint: "Anchor-0" 735 1024 basechar 0
LayerCount: 2
Fore
SplineSet
181 -520 m 1,0,-1
 181 1720 l 1,1,-1
 488 1720 l 1,2,-1
 488 899 l 1,3,4
 550 973 550 973 641.5 1014.5 c 128,-1,5
 733 1056 733 1056 844 1056 c 0,6,7
 993 1056 993 1056 1107.5 983 c 128,-1,8
 1222 910 1222 910 1287 787 c 128,-1,9
 1352 664 1352 664 1352 512 c 0,10,11
 1352 361 1352 361 1287 237.5 c 128,-1,12
 1222 114 1222 114 1107.5 41 c 128,-1,13
 993 -32 993 -32 844 -32 c 0,14,15
 733 -32 733 -32 640.5 15 c 128,-1,16
 548 62 548 62 488 135 c 1,17,-1
 488 -520 l 1,18,-1
 181 -520 l 1,0,-1
754 229 m 0,19,20
 836 229 836 229 898 265.5 c 128,-1,21
 960 302 960 302 994.5 366 c 128,-1,22
 1029 430 1029 430 1029 512 c 0,23,24
 1029 595 1029 595 992.5 659 c 128,-1,25
 956 723 956 723 894 759 c 128,-1,26
 832 795 832 795 754 795 c 0,27,28
 678 795 678 795 615.5 759 c 128,-1,29
 553 723 553 723 516.5 659 c 128,-1,30
 480 595 480 595 480 512 c 0,31,32
 480 430 480 430 515.5 366 c 128,-1,33
 551 302 551 302 612.5 265.5 c 128,-1,34
 674 229 674 229 754 229 c 0,19,20
EndSplineSet
EndChar

StartChar: q
Encoding: 113 113 187
Width: 1453
GlyphClass: 2
Flags: W
AnchorPoint: "Anchor-1" 727 0 basechar 0
AnchorPoint: "Anchor-0" 716 1034 basechar 0
LayerCount: 2
Fore
SplineSet
966 -520 m 1,0,-1
 966 135 l 1,1,2
 897 55 897 55 804 11.5 c 128,-1,3
 711 -32 711 -32 606 -32 c 0,4,5
 462 -32 462 -32 347.5 39.5 c 128,-1,6
 233 111 233 111 167 234.5 c 128,-1,7
 101 358 101 358 101 512 c 0,8,9
 101 668 101 668 167.5 791 c 128,-1,10
 234 914 234 914 350 985 c 128,-1,11
 466 1056 466 1056 613 1056 c 0,12,13
 720 1056 720 1056 811.5 1015 c 128,-1,14
 903 974 903 974 966 899 c 1,15,-1
 966 1024 l 1,16,-1
 1273 1024 l 1,17,-1
 1273 -520 l 1,18,-1
 966 -520 l 1,0,-1
698 229 m 256,19,20
 778 229 778 229 840 265.5 c 128,-1,21
 902 302 902 302 937.5 365.5 c 128,-1,22
 973 429 973 429 973 511 c 256,23,24
 973 593 973 593 937.5 657 c 128,-1,25
 902 721 902 721 840 758 c 128,-1,26
 778 795 778 795 698 795 c 0,27,28
 620 795 620 795 558 758 c 128,-1,29
 496 721 496 721 460 657.5 c 128,-1,30
 424 594 424 594 424 512 c 0,31,32
 424 429 424 429 459 365.5 c 128,-1,33
 494 302 494 302 556 265.5 c 128,-1,34
 618 229 618 229 698 229 c 256,19,20
EndSplineSet
EndChar

StartChar: r
Encoding: 114 114 188
Width: 1003
GlyphClass: 2
Flags: W
AnchorPoint: "Anchor-1" 525 0 basechar 0
AnchorPoint: "Anchor-0" 576 1056 basechar 0
LayerCount: 2
Fore
SplineSet
181 0 m 1,0,-1
 181 1024 l 1,1,-1
 488 1024 l 1,2,-1
 488 877 l 1,3,4
 545 963 545 963 627.5 1009.5 c 128,-1,5
 710 1056 710 1056 805 1056 c 0,6,7
 859 1056 859 1056 917 1040 c 128,-1,8
 975 1024 975 1024 1014 999 c 1,9,-1
 886 740 l 1,10,11
 852 763 852 763 806.5 776.5 c 128,-1,12
 761 790 761 790 722 790 c 0,13,14
 662 790 662 790 608 759 c 128,-1,15
 554 728 554 728 521 678.5 c 128,-1,16
 488 629 488 629 488 572 c 2,17,-1
 488 0 l 1,18,-1
 181 0 l 1,0,-1
EndSplineSet
EndChar

StartChar: s
Encoding: 115 115 192
Width: 1024
GlyphClass: 2
Flags: W
AnchorPoint: "Anchor-1" 565 0 basechar 0
AnchorPoint: "Anchor-0" 514 1034 basechar 0
LayerCount: 2
Fore
SplineSet
471 -32 m 0,0,1
 341 -32 341 -32 238.5 9 c 128,-1,2
 136 50 136 50 68 129 c 1,3,-1
 197 335 l 1,4,5
 261 267 261 267 331 231 c 128,-1,6
 401 195 401 195 471 195 c 0,7,8
 510 195 510 195 538.5 208 c 128,-1,9
 567 221 567 221 583.5 245.5 c 128,-1,10
 600 270 600 270 600 305 c 0,11,12
 600 345 600 345 577.5 368 c 128,-1,13
 555 391 555 391 509 410.5 c 128,-1,14
 463 430 463 430 390 460 c 0,15,16
 328 486 328 486 271 519 c 128,-1,17
 214 552 214 552 178.5 603 c 128,-1,18
 143 654 143 654 143 732 c 0,19,20
 143 827 143 827 196 899.5 c 128,-1,21
 249 972 249 972 342.5 1013 c 128,-1,22
 436 1054 436 1054 558 1054 c 0,23,24
 634 1054 634 1054 717.5 1031 c 128,-1,25
 801 1008 801 1008 896 961 c 1,26,-1
 791 764 l 1,27,28
 662 847 662 847 560 847 c 0,29,30
 503 847 503 847 469 822 c 128,-1,31
 435 797 435 797 435 759 c 0,32,33
 435 723 435 723 470.5 696.5 c 128,-1,34
 506 670 506 670 557.5 649.5 c 128,-1,35
 609 629 609 629 656 612 c 0,36,37
 733 584 733 584 792.5 550 c 128,-1,38
 852 516 852 516 886 461.5 c 128,-1,39
 920 407 920 407 920 316 c 0,40,41
 920 205 920 205 866.5 127.5 c 128,-1,42
 813 50 813 50 712.5 9 c 128,-1,43
 612 -32 612 -32 471 -32 c 0,0,1
EndSplineSet
EndChar

StartChar: germandbls
Encoding: 223 223 197
Width: 1379
GlyphClass: 2
Flags: W
AnchorPoint: "Anchor-1" 692 0 basechar 0
AnchorPoint: "Anchor-0" 692 1024 basechar 0
LayerCount: 2
Fore
SplineSet
656 -32 m 1,0,-1
 656 248 l 1,1,-1
 722 248 l 2,2,3
 791 248 791 248 845.5 284 c 128,-1,4
 900 320 900 320 931 382 c 128,-1,5
 962 444 962 444 962 522 c 0,6,7
 962 602 962 602 931 664 c 128,-1,8
 900 726 900 726 846 761.5 c 128,-1,9
 792 797 792 797 722 797 c 2,10,-1
 656 797 l 1,11,-1
 656 1031 l 1,12,-1
 722 1031 l 2,13,14
 783 1031 783 1031 830.5 1062 c 128,-1,15
 878 1093 878 1093 905.5 1146 c 128,-1,16
 933 1199 933 1199 933 1266 c 0,17,18
 933 1331 933 1331 905.5 1382 c 128,-1,19
 878 1433 878 1433 830.5 1462.5 c 128,-1,20
 783 1492 783 1492 723 1492 c 0,21,22
 667 1492 667 1492 624 1464 c 128,-1,23
 581 1436 581 1436 557 1385.5 c 128,-1,24
 533 1335 533 1335 533 1267 c 2,25,-1
 533 0 l 1,26,-1
 227 0 l 1,27,-1
 227 667 l 1,28,-1
 95 667 l 1,29,-1
 95 903 l 1,30,-1
 227 903 l 1,31,-1
 227 1256 l 2,32,33
 227 1397 227 1397 292.5 1508.5 c 128,-1,34
 358 1620 358 1620 471.5 1685 c 128,-1,35
 585 1750 585 1750 727 1750 c 0,36,37
 867 1750 867 1750 979.5 1687 c 128,-1,38
 1092 1624 1092 1624 1157 1516 c 128,-1,39
 1222 1408 1222 1408 1222 1273 c 0,40,41
 1222 1156 1222 1156 1168 1066 c 128,-1,42
 1114 976 1114 976 1010 920 c 1,43,44
 1099 881 1099 881 1160.5 819.5 c 128,-1,45
 1222 758 1222 758 1254 677.5 c 128,-1,46
 1286 597 1286 597 1286 501 c 0,47,48
 1286 349 1286 349 1213.5 229.5 c 128,-1,49
 1141 110 1141 110 1014 40.5 c 128,-1,50
 887 -29 887 -29 722 -32 c 2,51,-1
 656 -32 l 1,0,-1
EndSplineSet
EndChar

StartChar: t
Encoding: 116 116 198
Width: 861
GlyphClass: 2
Flags: W
AnchorPoint: "Anchor-1" 545 0 basechar 0
AnchorPoint: "Anchor-0" 457 1299 basechar 0
LayerCount: 2
Fore
SplineSet
534 -32 m 0,0,1
 381 -32 381 -32 296 65.5 c 128,-1,2
 211 163 211 163 211 338 c 2,3,-1
 211 791 l 1,4,-1
 74 791 l 1,5,-1
 74 1024 l 1,6,-1
 211 1024 l 1,7,-1
 211 1408 l 1,8,-1
 518 1408 l 1,9,-1
 518 1024 l 1,10,-1
 743 1024 l 1,11,-1
 743 791 l 1,12,-1
 518 791 l 1,13,-1
 518 360 l 2,14,15
 518 302 518 302 541.5 272 c 128,-1,16
 565 242 565 242 608 242 c 0,17,18
 656 242 656 242 700 274 c 1,19,-1
 777 28 l 1,20,21
 725 0 725 0 660.5 -16 c 128,-1,22
 596 -32 596 -32 534 -32 c 0,0,1
EndSplineSet
EndChar

StartChar: tbar
Encoding: 359 359 199
Width: 861
Flags: W
LayerCount: 2
Fore
SplineSet
534 -32 m 0,0,1
 381 -32 381 -32 296 65.5 c 128,-1,2
 211 163 211 163 211 338 c 2,3,-1
 211 661 l 1,4,-1
 74 661 l 1,5,-1
 74 824 l 1,6,-1
 211 824 l 1,7,-1
 211 931 l 1,8,-1
 74 931 l 1,9,-1
 74 1094 l 1,10,-1
 211 1094 l 1,11,-1
 211 1408 l 1,12,-1
 518 1408 l 1,13,-1
 518 1094 l 1,14,-1
 743 1094 l 1,15,-1
 743 931 l 1,16,-1
 518 931 l 1,17,-1
 518 824 l 1,18,-1
 743 824 l 1,19,-1
 743 661 l 1,20,-1
 518 661 l 1,21,-1
 518 360 l 2,22,23
 518 302 518 302 541.5 272 c 128,-1,24
 565 242 565 242 608 242 c 0,25,26
 656 242 656 242 700 274 c 1,27,-1
 777 28 l 1,28,29
 725 0 725 0 660.5 -16 c 128,-1,30
 596 -32 596 -32 534 -32 c 0,0,1
EndSplineSet
EndChar

StartChar: u
Encoding: 117 117 203
Width: 1367
GlyphClass: 2
Flags: W
AnchorPoint: "Anchor-2" 788 10 basechar 0
AnchorPoint: "Anchor-1" 683 -22 basechar 0
AnchorPoint: "Anchor-0" 684 1024 basechar 0
LayerCount: 2
Fore
SplineSet
683 -32 m 0,0,1
 403 -32 403 -32 279 79 c 128,-1,2
 155 190 155 190 155 442 c 2,3,-1
 155 1024 l 1,4,-1
 462 1024 l 1,5,-1
 462 514 l 2,6,7
 462 352 462 352 512.5 285 c 128,-1,8
 563 218 563 218 683 218 c 0,9,10
 805 218 805 218 854.5 285 c 128,-1,11
 904 352 904 352 904 514 c 2,12,-1
 904 1024 l 1,13,-1
 1211 1024 l 1,14,-1
 1211 442 l 2,15,16
 1211 190 1211 190 1087.5 79 c 128,-1,17
 964 -32 964 -32 683 -32 c 0,0,1
EndSplineSet
EndChar

StartChar: v
Encoding: 118 118 212
Width: 1255
GlyphClass: 2
Flags: W
AnchorPoint: "Anchor-1" 628 0 basechar 0
AnchorPoint: "Anchor-0" 628 1024 basechar 0
LayerCount: 2
Fore
SplineSet
525 0 m 1,0,-1
 -13 1024 l 1,1,-1
 349 1024 l 1,2,-1
 628 406 l 1,3,-1
 907 1024 l 1,4,-1
 1269 1024 l 1,5,-1
 730 0 l 1,6,-1
 525 0 l 1,0,-1
EndSplineSet
EndChar

StartChar: w
Encoding: 119 119 213
Width: 1973
GlyphClass: 2
Flags: W
AnchorPoint: "Anchor-1" 986 0 basechar 0
AnchorPoint: "Anchor-0" 986 1024 basechar 0
LayerCount: 2
Fore
SplineSet
525 0 m 1,0,-1
 -13 1024 l 1,1,-1
 338 1024 l 1,2,-1
 618 409 l 1,3,-1
 882 1024 l 1,4,-1
 1091 1024 l 1,5,-1
 1355 409 l 1,6,-1
 1635 1024 l 1,7,-1
 1986 1024 l 1,8,-1
 1448 0 l 1,9,-1
 1242 0 l 1,10,-1
 986 591 l 1,11,-1
 730 0 l 1,12,-1
 525 0 l 1,0,-1
EndSplineSet
EndChar

StartChar: x
Encoding: 120 120 218
Width: 1230
GlyphClass: 2
Flags: W
AnchorPoint: "Anchor-1" 615 0 basechar 0
AnchorPoint: "Anchor-0" 615 1024 basechar 0
LayerCount: 2
Fore
SplineSet
-9 0 m 1,0,-1
 428 535 l 1,1,-1
 53 1024 l 1,2,-1
 409 1024 l 1,3,-1
 615 749 l 1,4,-1
 821 1024 l 1,5,-1
 1177 1024 l 1,6,-1
 802 535 l 1,7,-1
 1239 0 l 1,8,-1
 871 0 l 1,9,-1
 615 324 l 1,10,-1
 359 0 l 1,11,-1
 -9 0 l 1,0,-1
EndSplineSet
EndChar

StartChar: y
Encoding: 121 121 219
Width: 1261
GlyphClass: 2
Flags: W
AnchorPoint: "Anchor-1" 631 0 basechar 0
AnchorPoint: "Anchor-0" 631 1024 basechar 0
LayerCount: 2
Fore
SplineSet
139 -520 m 1,0,-1
 470 128 l 1,1,-1
 -17 1024 l 1,2,-1
 335 1024 l 1,3,-1
 649 424 l 1,4,-1
 921 1024 l 1,5,-1
 1273 1024 l 1,6,-1
 490 -520 l 1,7,-1
 139 -520 l 1,0,-1
EndSplineSet
EndChar

StartChar: z
Encoding: 122 122 224
Width: 1187
GlyphClass: 2
Flags: W
AnchorPoint: "Anchor-1" 593 0 basechar 0
AnchorPoint: "Anchor-0" 593 1024 basechar 0
LayerCount: 2
Fore
SplineSet
42 0 m 1,0,-1
 608 790 l 1,1,-1
 125 790 l 1,2,-1
 125 1024 l 1,3,-1
 1125 1024 l 1,4,-1
 559 234 l 1,5,-1
 1090 234 l 1,6,-1
 1090 0 l 1,7,-1
 42 0 l 1,0,-1
EndSplineSet
EndChar

StartChar: f_f
Encoding: 65538 -1 228
Width: 1541
GlyphClass: 3
LigCaretCntFixed: 1
Flags: W
LayerCount: 2
Fore
SplineSet
214 0 m 1,0,-1
 214 791 l 1,1,-1
 77 791 l 1,2,-1
 77 1024 l 1,3,-1
 214 1024 l 1,4,-1
 214 1278 l 2,5,6
 214 1422 214 1422 258.5 1528 c 128,-1,7
 303 1634 303 1634 387.5 1692 c 128,-1,8
 472 1750 472 1750 590 1750 c 0,9,10
 679 1750 679 1750 747 1723.5 c 128,-1,11
 815 1697 815 1697 854 1669 c 1,12,-1
 746 1453 l 1,13,14
 729 1462 729 1462 702 1470.5 c 128,-1,15
 675 1479 675 1479 642 1479 c 0,16,17
 572 1479 572 1479 546.5 1430.5 c 128,-1,18
 521 1382 521 1382 521 1271 c 2,19,-1
 521 1024 l 1,20,-1
 871 1024 l 1,21,-1
 871 1278 l 2,22,23
 871 1422 871 1422 915.5 1528 c 128,-1,24
 960 1634 960 1634 1044 1692 c 128,-1,25
 1128 1750 1128 1750 1247 1750 c 0,26,27
 1341 1750 1341 1750 1409 1722 c 128,-1,28
 1477 1694 1477 1694 1515 1665 c 1,29,-1
 1408 1450 l 1,30,31
 1391 1461 1391 1461 1363 1470 c 128,-1,32
 1335 1479 1335 1479 1300 1479 c 0,33,34
 1229 1479 1229 1479 1203.5 1430.5 c 128,-1,35
 1178 1382 1178 1382 1178 1271 c 2,36,-1
 1178 1024 l 1,37,-1
 1419 1024 l 1,38,-1
 1419 791 l 1,39,-1
 1178 791 l 1,40,-1
 1178 0 l 1,41,-1
 871 0 l 1,42,-1
 871 791 l 1,43,-1
 521 791 l 1,44,-1
 521 0 l 1,45,-1
 214 0 l 1,0,-1
EndSplineSet
Ligature2: "'liga' Standard Ligatures in Latin lookup 18 subtable" f f
LCarets2: 1 720
EndChar

StartChar: f_f_i
Encoding: 65539 -1 229
Width: 1987
GlyphClass: 3
LigCaretCntFixed: 1
Flags: W
LayerCount: 2
Fore
SplineSet
238 0 m 1,0,-1
 238 791 l 1,1,-1
 101 791 l 1,2,-1
 101 1024 l 1,3,-1
 238 1024 l 1,4,-1
 238 1278 l 2,5,6
 238 1422 238 1422 282.5 1528 c 128,-1,7
 327 1634 327 1634 411 1692 c 128,-1,8
 495 1750 495 1750 613 1750 c 0,9,10
 703 1750 703 1750 771 1723.5 c 128,-1,11
 839 1697 839 1697 877 1669 c 1,12,-1
 770 1453 l 1,13,14
 753 1462 753 1462 726 1470.5 c 128,-1,15
 699 1479 699 1479 666 1479 c 0,16,17
 596 1479 596 1479 570.5 1430.5 c 128,-1,18
 545 1382 545 1382 545 1271 c 2,19,-1
 545 1024 l 1,20,-1
 896 1024 l 1,21,-1
 896 1278 l 2,22,23
 896 1422 896 1422 941 1528 c 128,-1,24
 986 1634 986 1634 1070.5 1692 c 128,-1,25
 1155 1750 1155 1750 1273 1750 c 0,26,27
 1369 1750 1369 1750 1452 1726.5 c 128,-1,28
 1535 1703 1535 1703 1600 1667 c 128,-1,29
 1665 1631 1665 1631 1706 1591 c 1,30,-1
 1596 1379 l 1,31,32
 1556 1418 1556 1418 1491 1450 c 128,-1,33
 1426 1482 1426 1482 1364 1482 c 0,34,35
 1275 1482 1275 1482 1239 1432 c 128,-1,36
 1203 1382 1203 1382 1203 1271 c 2,37,-1
 1203 1024 l 1,38,-1
 1840 1024 l 1,39,-1
 1840 0 l 1,40,-1
 1533 0 l 1,41,-1
 1533 791 l 1,42,-1
 1203 791 l 1,43,-1
 1203 0 l 1,44,-1
 896 0 l 1,45,-1
 896 791 l 1,46,-1
 545 791 l 1,47,-1
 545 0 l 1,48,-1
 238 0 l 1,0,-1
EndSplineSet
Ligature2: "'liga' Standard Ligatures in Latin lookup 18 subtable" f f i
LCarets2: 2 659 1319
EndChar

StartChar: f_f_j
Encoding: 65540 -1 230
Width: 1883
Flags: W
LayerCount: 2
Fore
SplineSet
1422 -550 m 0,0,1
 1325 -550 1325 -550 1259.5 -529.5 c 128,-1,2
 1194 -509 1194 -509 1162 -489 c 1,3,-1
 1256 -242 l 1,4,5
 1272 -254 1272 -254 1298 -264.5 c 128,-1,6
 1324 -275 1324 -275 1352 -275 c 0,7,8
 1405 -275 1405 -275 1433.5 -237 c 128,-1,9
 1462 -199 1462 -199 1462 -119 c 2,10,-1
 1462 791 l 1,11,-1
 1133 791 l 1,12,-1
 1133 0 l 1,13,-1
 826 0 l 1,14,-1
 826 791 l 1,15,-1
 474 791 l 1,16,-1
 474 0 l 1,17,-1
 167 0 l 1,18,-1
 167 791 l 1,19,-1
 30 791 l 1,20,-1
 30 1024 l 1,21,-1
 167 1024 l 1,22,-1
 167 1278 l 2,23,24
 167 1422 167 1422 211.5 1528 c 128,-1,25
 256 1634 256 1634 340.5 1692 c 128,-1,26
 425 1750 425 1750 543 1750 c 0,27,28
 633 1750 633 1750 700.5 1723.5 c 128,-1,29
 768 1697 768 1697 807 1669 c 1,30,-1
 699 1453 l 1,31,32
 683 1462 683 1462 656 1470.5 c 128,-1,33
 629 1479 629 1479 596 1479 c 0,34,35
 525 1479 525 1479 499.5 1430.5 c 128,-1,36
 474 1382 474 1382 474 1271 c 2,37,-1
 474 1024 l 1,38,-1
 826 1024 l 1,39,-1
 826 1278 l 2,40,41
 826 1422 826 1422 870.5 1528 c 128,-1,42
 915 1634 915 1634 999.5 1692 c 128,-1,43
 1084 1750 1084 1750 1202 1750 c 0,44,45
 1298 1750 1298 1750 1381 1726.5 c 128,-1,46
 1464 1703 1464 1703 1529.5 1667 c 128,-1,47
 1595 1631 1595 1631 1636 1591 c 1,48,-1
 1525 1379 l 1,49,50
 1486 1418 1486 1418 1421 1450 c 128,-1,51
 1356 1482 1356 1482 1293 1482 c 0,52,53
 1205 1482 1205 1482 1169 1432 c 128,-1,54
 1133 1382 1133 1382 1133 1271 c 2,55,-1
 1133 1024 l 1,56,-1
 1769 1024 l 1,57,-1
 1769 -173 l 2,58,59
 1769 -244 1769 -244 1751 -311.5 c 128,-1,60
 1733 -379 1733 -379 1692 -432.5 c 128,-1,61
 1651 -486 1651 -486 1584.5 -518 c 128,-1,62
 1518 -550 1518 -550 1422 -550 c 0,0,1
EndSplineSet
Ligature2: "'dlig' Discretionary Ligatures in Latin lookup 17 subtable" f f j
EndChar

StartChar: f_f_l
Encoding: 65541 -1 231
Width: 2017
GlyphClass: 3
LigCaretCntFixed: 1
Flags: W
LayerCount: 2
Fore
SplineSet
210 0 m 1,0,-1
 210 791 l 1,1,-1
 74 791 l 1,2,-1
 74 1024 l 1,3,-1
 210 1024 l 1,4,-1
 210 1278 l 2,5,6
 210 1422 210 1422 255 1528 c 128,-1,7
 300 1634 300 1634 384 1692 c 128,-1,8
 468 1750 468 1750 586 1750 c 0,9,10
 676 1750 676 1750 744 1723.5 c 128,-1,11
 812 1697 812 1697 850 1669 c 1,12,-1
 742 1453 l 1,13,14
 726 1462 726 1462 699 1470.5 c 128,-1,15
 672 1479 672 1479 639 1479 c 0,16,17
 569 1479 569 1479 543 1430.5 c 128,-1,18
 517 1382 517 1382 517 1271 c 2,19,-1
 517 1024 l 1,20,-1
 868 1024 l 1,21,-1
 868 1278 l 2,22,23
 868 1422 868 1422 912.5 1528 c 128,-1,24
 957 1634 957 1634 1041 1692 c 128,-1,25
 1125 1750 1125 1750 1243 1750 c 0,26,27
 1314 1750 1314 1750 1367.5 1734.5 c 128,-1,28
 1421 1719 1421 1719 1450 1703 c 1,29,-1
 1401 1453 l 1,30,31
 1383 1462 1383 1462 1355.5 1470.5 c 128,-1,32
 1328 1479 1328 1479 1296 1479 c 0,33,34
 1226 1479 1226 1479 1200.5 1430.5 c 128,-1,35
 1175 1382 1175 1382 1175 1271 c 2,36,-1
 1175 1024 l 1,37,-1
 1416 1024 l 1,38,-1
 1416 791 l 1,39,-1
 1175 791 l 1,40,-1
 1175 0 l 1,41,-1
 868 0 l 1,42,-1
 868 791 l 1,43,-1
 517 791 l 1,44,-1
 517 0 l 1,45,-1
 210 0 l 1,0,-1
1516 0 m 1,46,-1
 1516 1720 l 1,47,-1
 1823 1720 l 1,48,-1
 1823 0 l 1,49,-1
 1516 0 l 1,46,-1
EndSplineSet
Ligature2: "'liga' Standard Ligatures in Latin lookup 18 subtable" f f l
LCarets2: 2 640 1309
EndChar

StartChar: f_f_t
Encoding: 65542 -1 232
Width: 2194
Flags: W
LayerCount: 2
Fore
SplineSet
1871 -32 m 0,0,1
 1772 -32 1772 -32 1708.5 1 c 128,-1,2
 1645 34 1645 34 1609.5 88 c 128,-1,3
 1574 142 1574 142 1560 207.5 c 128,-1,4
 1546 273 1546 273 1546 338 c 2,5,-1
 1546 791 l 1,6,-1
 1205 791 l 1,7,-1
 1205 0 l 1,8,-1
 898 0 l 1,9,-1
 898 791 l 1,10,-1
 548 791 l 1,11,-1
 548 0 l 1,12,-1
 241 0 l 1,13,-1
 241 791 l 1,14,-1
 104 791 l 1,15,-1
 104 1024 l 1,16,-1
 241 1024 l 1,17,-1
 241 1278 l 2,18,19
 241 1422 241 1422 285.5 1528 c 128,-1,20
 330 1634 330 1634 414.5 1692 c 128,-1,21
 499 1750 499 1750 617 1750 c 0,22,23
 707 1750 707 1750 774.5 1723.5 c 128,-1,24
 842 1697 842 1697 881 1669 c 1,25,-1
 773 1453 l 1,26,27
 757 1462 757 1462 730 1470.5 c 128,-1,28
 703 1479 703 1479 670 1479 c 0,29,30
 599 1479 599 1479 573.5 1430.5 c 128,-1,31
 548 1382 548 1382 548 1271 c 2,32,-1
 548 1024 l 1,33,-1
 898 1024 l 1,34,-1
 898 1278 l 2,35,36
 898 1422 898 1422 942.5 1528 c 128,-1,37
 987 1634 987 1634 1071 1692 c 128,-1,38
 1155 1750 1155 1750 1274 1750 c 0,39,40
 1364 1750 1364 1750 1430.5 1724 c 128,-1,41
 1497 1698 1497 1698 1535 1670 c 1,42,-1
 1427 1456 l 1,43,44
 1410 1464 1410 1464 1384 1471.5 c 128,-1,45
 1358 1479 1358 1479 1327 1479 c 0,46,47
 1256 1479 1256 1479 1230.5 1430.5 c 128,-1,48
 1205 1382 1205 1382 1205 1271 c 2,49,-1
 1205 1024 l 1,50,-1
 1546 1024 l 1,51,-1
 1546 1408 l 1,52,-1
 1853 1408 l 1,53,-1
 1853 1024 l 1,54,-1
 2078 1024 l 1,55,-1
 2078 791 l 1,56,-1
 1853 791 l 1,57,-1
 1853 395 l 2,58,59
 1853 318 1853 318 1875 280 c 128,-1,60
 1897 242 1897 242 1945 242 c 0,61,62
 1972 242 1972 242 1996 252.5 c 128,-1,63
 2020 263 2020 263 2035 274 c 1,64,-1
 2111 28 l 1,65,66
 2073 7 2073 7 2009.5 -12.5 c 128,-1,67
 1946 -32 1946 -32 1871 -32 c 0,0,1
EndSplineSet
Ligature2: "'dlig' Discretionary Ligatures in Latin lookup 17 subtable" f f t
EndChar

StartChar: f_j
Encoding: 65543 -1 233
Width: 1224
Flags: W
LayerCount: 2
Fore
SplineSet
763 -550 m 0,0,1
 665 -550 665 -550 599.5 -529.5 c 128,-1,2
 534 -509 534 -509 502 -489 c 1,3,-1
 596 -242 l 1,4,5
 612 -254 612 -254 638.5 -264.5 c 128,-1,6
 665 -275 665 -275 693 -275 c 0,7,8
 745 -275 745 -275 774 -237 c 128,-1,9
 803 -199 803 -199 803 -119 c 2,10,-1
 803 791 l 1,11,-1
 473 791 l 1,12,-1
 473 0 l 1,13,-1
 166 0 l 1,14,-1
 166 791 l 1,15,-1
 29 791 l 1,16,-1
 29 1024 l 1,17,-1
 166 1024 l 1,18,-1
 166 1278 l 2,19,20
 166 1422 166 1422 211 1528 c 128,-1,21
 256 1634 256 1634 340.5 1692 c 128,-1,22
 425 1750 425 1750 543 1750 c 0,23,24
 639 1750 639 1750 722 1726.5 c 128,-1,25
 805 1703 805 1703 870 1667 c 128,-1,26
 935 1631 935 1631 977 1591 c 1,27,-1
 866 1379 l 1,28,29
 826 1418 826 1418 761.5 1450 c 128,-1,30
 697 1482 697 1482 634 1482 c 0,31,32
 545 1482 545 1482 509 1432 c 128,-1,33
 473 1382 473 1382 473 1271 c 2,34,-1
 473 1024 l 1,35,-1
 1110 1024 l 1,36,-1
 1110 -173 l 2,37,38
 1110 -244 1110 -244 1092 -311.5 c 128,-1,39
 1074 -379 1074 -379 1033 -432.5 c 128,-1,40
 992 -486 992 -486 925.5 -518 c 128,-1,41
 859 -550 859 -550 763 -550 c 0,0,1
EndSplineSet
Ligature2: "'dlig' Discretionary Ligatures in Latin lookup 17 subtable" f j
EndChar

StartChar: f_t
Encoding: 65544 -1 234
Width: 1483
Flags: W
LayerCount: 2
Fore
SplineSet
1187 -32 m 0,0,1
 1088 -32 1088 -32 1024 1 c 128,-1,2
 960 34 960 34 925 88 c 128,-1,3
 890 142 890 142 876 207.5 c 128,-1,4
 862 273 862 273 862 338 c 2,5,-1
 862 791 l 1,6,-1
 521 791 l 1,7,-1
 521 0 l 1,8,-1
 214 0 l 1,9,-1
 214 791 l 1,10,-1
 77 791 l 1,11,-1
 77 1024 l 1,12,-1
 214 1024 l 1,13,-1
 214 1278 l 2,14,15
 214 1422 214 1422 258.5 1528 c 128,-1,16
 303 1634 303 1634 387.5 1692 c 128,-1,17
 472 1750 472 1750 590 1750 c 0,18,19
 679 1750 679 1750 746 1724 c 128,-1,20
 813 1698 813 1698 851 1670 c 1,21,-1
 743 1456 l 1,22,23
 726 1464 726 1464 700 1471.5 c 128,-1,24
 674 1479 674 1479 642 1479 c 0,25,26
 572 1479 572 1479 546.5 1430.5 c 128,-1,27
 521 1382 521 1382 521 1271 c 2,28,-1
 521 1024 l 1,29,-1
 862 1024 l 1,30,-1
 862 1408 l 1,31,-1
 1169 1408 l 1,32,-1
 1169 1024 l 1,33,-1
 1394 1024 l 1,34,-1
 1394 791 l 1,35,-1
 1169 791 l 1,36,-1
 1169 395 l 2,37,38
 1169 318 1169 318 1190.5 280 c 128,-1,39
 1212 242 1212 242 1261 242 c 0,40,41
 1287 242 1287 242 1310.5 252.5 c 128,-1,42
 1334 263 1334 263 1350 274 c 1,43,-1
 1427 28 l 1,44,45
 1389 7 1389 7 1325.5 -12.5 c 128,-1,46
 1262 -32 1262 -32 1187 -32 c 0,0,1
EndSplineSet
Ligature2: "'dlig' Discretionary Ligatures in Latin lookup 17 subtable" f t
EndChar

StartChar: fi
Encoding: 64257 64257 235
Width: 1300
GlyphClass: 3
LigCaretCntFixed: 1
Flags: W
LayerCount: 2
Fore
SplineSet
223 0 m 1,0,-1
 223 791 l 1,1,-1
 86 791 l 1,2,-1
 86 1024 l 1,3,-1
 223 1024 l 1,4,-1
 223 1278 l 2,5,6
 223 1422 223 1422 268 1528 c 128,-1,7
 313 1634 313 1634 398 1692 c 128,-1,8
 483 1750 483 1750 601 1750 c 0,9,10
 696 1750 696 1750 779 1726.5 c 128,-1,11
 862 1703 862 1703 927 1667 c 128,-1,12
 992 1631 992 1631 1033 1591 c 1,13,-1
 923 1379 l 1,14,15
 884 1418 884 1418 819 1450 c 128,-1,16
 754 1482 754 1482 691 1482 c 0,17,18
 602 1482 602 1482 566 1432 c 128,-1,19
 530 1382 530 1382 530 1271 c 2,20,-1
 530 1024 l 1,21,-1
 1168 1024 l 1,22,-1
 1168 0 l 1,23,-1
 861 0 l 1,24,-1
 861 791 l 1,25,-1
 530 791 l 1,26,-1
 530 0 l 1,27,-1
 223 0 l 1,0,-1
EndSplineSet
Ligature2: "'liga' Standard Ligatures in Latin lookup 18 subtable" f i
LCarets2: 1 663
EndChar

StartChar: fl
Encoding: 64258 64258 236
Width: 1358
GlyphClass: 3
LigCaretCntFixed: 1
Flags: W
LayerCount: 2
Fore
SplineSet
210 0 m 1,0,-1
 210 791 l 1,1,-1
 73 791 l 1,2,-1
 73 1024 l 1,3,-1
 210 1024 l 1,4,-1
 210 1278 l 2,5,6
 210 1422 210 1422 254.5 1528 c 128,-1,7
 299 1634 299 1634 383.5 1692 c 128,-1,8
 468 1750 468 1750 586 1750 c 0,9,10
 657 1750 657 1750 710 1734.5 c 128,-1,11
 763 1719 763 1719 792 1703 c 1,12,-1
 744 1453 l 1,13,14
 726 1462 726 1462 698 1470.5 c 128,-1,15
 670 1479 670 1479 638 1479 c 0,16,17
 568 1479 568 1479 542.5 1430.5 c 128,-1,18
 517 1382 517 1382 517 1271 c 2,19,-1
 517 1024 l 1,20,-1
 758 1024 l 1,21,-1
 758 791 l 1,22,-1
 517 791 l 1,23,-1
 517 0 l 1,24,-1
 210 0 l 1,0,-1
859 0 m 1,25,-1
 859 1720 l 1,26,-1
 1165 1720 l 1,27,-1
 1165 0 l 1,28,-1
 859 0 l 1,25,-1
EndSplineSet
Ligature2: "'liga' Standard Ligatures in Latin lookup 18 subtable" f l
LCarets2: 1 663
EndChar

StartChar: ordfeminine
Encoding: 170 170 237
Width: 1079
Flags: W
LayerCount: 2
Fore
SplineSet
460 1008 m 0,0,1
 373 1008 373 1008 302.5 1052 c 128,-1,2
 232 1096 232 1096 190.5 1172.5 c 128,-1,3
 149 1249 149 1249 149 1345 c 0,4,5
 149 1438 149 1438 189 1514 c 128,-1,6
 229 1590 229 1590 301 1635 c 128,-1,7
 373 1680 373 1680 467 1680 c 0,8,9
 532 1680 532 1680 588 1654.5 c 128,-1,10
 644 1629 644 1629 682 1583 c 1,11,-1
 682 1660 l 1,12,-1
 872 1660 l 1,13,-1
 872 1028 l 1,14,-1
 682 1028 l 1,15,-1
 682 1112 l 1,16,17
 646 1067 646 1067 589 1037.5 c 128,-1,18
 532 1008 532 1008 460 1008 c 0,0,1
517 1169 m 256,19,20
 567 1169 567 1169 605 1192 c 128,-1,21
 643 1215 643 1215 665 1254.5 c 128,-1,22
 687 1294 687 1294 687 1344 c 0,23,24
 687 1422 687 1422 638.5 1470.5 c 128,-1,25
 590 1519 590 1519 518 1519 c 0,26,27
 470 1519 470 1519 431.5 1496.5 c 128,-1,28
 393 1474 393 1474 370.5 1435 c 128,-1,29
 348 1396 348 1396 348 1343 c 0,30,31
 348 1294 348 1294 369.5 1254.5 c 128,-1,32
 391 1215 391 1215 429 1192 c 128,-1,33
 467 1169 467 1169 517 1169 c 256,19,20
EndSplineSet
EndChar

StartChar: ordmasculine
Encoding: 186 186 238
Width: 962
Flags: W
LayerCount: 2
Fore
SplineSet
481 1005 m 0,0,1
 377 1005 377 1005 294 1048 c 128,-1,2
 211 1091 211 1091 163 1167 c 128,-1,3
 115 1243 115 1243 115 1342 c 0,4,5
 115 1442 115 1442 163 1518 c 128,-1,6
 211 1594 211 1594 294 1637 c 128,-1,7
 377 1680 377 1680 481 1680 c 0,8,9
 584 1680 584 1680 666.5 1637 c 128,-1,10
 749 1594 749 1594 797.5 1518 c 128,-1,11
 846 1442 846 1442 846 1342 c 0,12,13
 846 1243 846 1243 798 1167.5 c 128,-1,14
 750 1092 750 1092 667 1048.5 c 128,-1,15
 584 1005 584 1005 481 1005 c 0,0,1
480 1165 m 0,16,17
 528 1165 528 1165 565.5 1188 c 128,-1,18
 603 1211 603 1211 625 1251 c 128,-1,19
 647 1291 647 1291 647 1342 c 0,20,21
 647 1394 647 1394 625 1434 c 128,-1,22
 603 1474 603 1474 565.5 1496.5 c 128,-1,23
 528 1519 528 1519 481 1519 c 0,24,25
 433 1519 433 1519 395.5 1496.5 c 128,-1,26
 358 1474 358 1474 336 1434 c 128,-1,27
 314 1394 314 1394 314 1343 c 0,28,29
 314 1291 314 1291 335.5 1251 c 128,-1,30
 357 1211 357 1211 395 1188 c 128,-1,31
 433 1165 433 1165 480 1165 c 0,16,17
EndSplineSet
EndChar

StartChar: uni0394
Encoding: 916 916 239
Width: 1525
Flags: W
LayerCount: 2
Fore
SplineSet
258 0 m 1,0,-1
 225 22 l 1,1,-1
 723 1295 l 1,2,-1
 801 1295 l 1,3,-1
 1299 22 l 1,4,-1
 1266 0 l 1,5,-1
 258 0 l 1,0,-1
519 206 m 1,6,-1
 1006 206 l 1,7,-1
 720 1017 l 1,8,-1
 805 1017 l 1,9,-1
 519 206 l 1,6,-1
EndSplineSet
EndChar

StartChar: uni03A9
Encoding: 937 937 240
Width: 1296
Flags: W
LayerCount: 2
Fore
SplineSet
90 0 m 1,0,-1
 90 216 l 1,1,-1
 327 184 l 1,2,3
 226 262 226 262 173.5 371 c 128,-1,4
 121 480 121 480 121 614 c 0,5,6
 121 773 121 773 190.5 889 c 128,-1,7
 260 1005 260 1005 378.5 1067.5 c 128,-1,8
 497 1130 497 1130 647 1130 c 0,9,10
 799 1130 799 1130 918.5 1066 c 128,-1,11
 1038 1002 1038 1002 1106.5 885.5 c 128,-1,12
 1175 769 1175 769 1175 613 c 0,13,14
 1175 477 1175 477 1121 368 c 128,-1,15
 1067 259 1067 259 969 184 c 1,16,-1
 1205 216 l 1,17,-1
 1205 0 l 1,18,-1
 693 0 l 1,19,-1
 693 131 l 1,20,-1
 703 140 l 2,21,22
 739 168 739 168 771 213 c 128,-1,23
 803 258 803 258 827.5 313.5 c 128,-1,24
 852 369 852 369 866 429.5 c 128,-1,25
 880 490 880 490 880 550 c 0,26,27
 880 642 880 642 849.5 713 c 128,-1,28
 819 784 819 784 767 824.5 c 128,-1,29
 715 865 715 865 648 865 c 0,30,31
 582 865 582 865 529.5 825 c 128,-1,32
 477 785 477 785 447 714 c 128,-1,33
 417 643 417 643 417 551 c 0,34,35
 417 489 417 489 431 427.5 c 128,-1,36
 445 366 445 366 469.5 310 c 128,-1,37
 494 254 494 254 525.5 210 c 128,-1,38
 557 166 557 166 593 140 c 1,39,-1
 603 131 l 1,40,-1
 603 0 l 1,41,-1
 90 0 l 1,0,-1
EndSplineSet
EndChar

StartChar: uni03BC
Encoding: 956 956 241
Width: 1569
Flags: W
LayerCount: 2
Fore
SplineSet
229 -320 m 1,0,1
 229 -227 229 -227 237.5 -145 c 128,-1,2
 246 -63 246 -63 257 21 c 128,-1,3
 268 105 268 105 276 202.5 c 128,-1,4
 284 300 284 300 284 422 c 2,5,-1
 284 1024 l 1,6,-1
 591 1024 l 1,7,-1
 591 437 l 2,8,9
 591 334 591 334 644 271 c 128,-1,10
 697 208 697 208 799 208 c 0,11,12
 866 208 866 208 917.5 239.5 c 128,-1,13
 969 271 969 271 998 320.5 c 128,-1,14
 1027 370 1027 370 1027 424 c 2,15,-1
 1027 1024 l 1,16,-1
 1334 1024 l 1,17,-1
 1334 0 l 1,18,-1
 1027 0 l 1,19,-1
 1027 114 l 1,20,21
 994 69 994 69 944.5 36.5 c 128,-1,22
 895 4 895 4 837.5 -14 c 128,-1,23
 780 -32 780 -32 724 -32 c 0,24,25
 676 -32 676 -32 643 -18 c 128,-1,26
 610 -4 610 -4 590 19 c 1,27,-1
 590 -320 l 1,28,-1
 229 -320 l 1,0,1
EndSplineSet
EndChar

StartChar: pi
Encoding: 960 960 242
Width: 1354
Flags: W
LayerCount: 2
Fore
SplineSet
344 0 m 1,0,-1
 344 808 l 1,1,-1
 181 808 l 1,2,-1
 181 1024 l 1,3,-1
 1194 1024 l 1,4,-1
 1194 808 l 1,5,-1
 1030 808 l 1,6,-1
 1030 335 l 2,7,8
 1030 279 1030 279 1053.5 257.5 c 128,-1,9
 1077 236 1077 236 1141 236 c 1,10,-1
 1141 0 l 1,11,12
 953 0 953 0 873.5 64.5 c 128,-1,13
 794 129 794 129 794 284 c 2,14,-1
 794 808 l 1,15,-1
 580 808 l 1,16,-1
 580 0 l 1,17,-1
 344 0 l 1,0,-1
EndSplineSet
EndChar

StartChar: zero
Encoding: 48 48 243
Width: 1579
Flags: W
LayerCount: 2
Fore
SplineSet
790 -32 m 256,0,1
 588 -32 588 -32 435 76 c 128,-1,2
 282 184 282 184 196.5 377 c 128,-1,3
 111 570 111 570 111 824 c 0,4,5
 111 1079 111 1079 196.5 1271.5 c 128,-1,6
 282 1464 282 1464 435 1572 c 128,-1,7
 588 1680 588 1680 790 1680 c 256,8,9
 992 1680 992 1680 1144.5 1572 c 128,-1,10
 1297 1464 1297 1464 1382.5 1271.5 c 128,-1,11
 1468 1079 1468 1079 1468 824 c 0,12,13
 1468 570 1468 570 1382.5 377 c 128,-1,14
 1297 184 1297 184 1144.5 76 c 128,-1,15
 992 -32 992 -32 790 -32 c 256,0,1
790 253 m 256,16,17
 894 253 894 253 969 322 c 128,-1,18
 1044 391 1044 391 1085 519.5 c 128,-1,19
 1126 648 1126 648 1126 824 c 0,20,21
 1126 1001 1126 1001 1085 1129 c 128,-1,22
 1044 1257 1044 1257 969 1326 c 128,-1,23
 894 1395 894 1395 790 1395 c 256,24,25
 686 1395 686 1395 610.5 1326 c 128,-1,26
 535 1257 535 1257 494 1129 c 128,-1,27
 453 1001 453 1001 453 824 c 0,28,29
 453 648 453 648 494 519.5 c 128,-1,30
 535 391 535 391 610.5 322 c 128,-1,31
 686 253 686 253 790 253 c 256,16,17
EndSplineSet
Substitution2: "'tnum' Tabular Numbers lookup 19-1" zero.tnum
Substitution2: "'frac' Diagonal Fractions in Latin lookup 11 subtable" zero.numr
Substitution2: "'dnom' Denominators in Latin lookup 9 subtable" zero.dnom
Substitution2: "'numr' Numerators in Latin lookup 8 subtable" zero.numr
AlternateSubs2: "'aalt' Access All Alternates in Latin lookup 1 subtable" zero.dnom zero.numr
EndChar

StartChar: one
Encoding: 49 49 244
Width: 834
Flags: W
LayerCount: 2
Fore
SplineSet
294 0 m 1,0,-1
 294 1332 l 1,1,-1
 48 1332 l 1,2,-1
 48 1650 l 1,3,-1
 618 1650 l 1,4,-1
 618 0 l 1,5,-1
 294 0 l 1,0,-1
EndSplineSet
Substitution2: "'tnum' Tabular Numbers lookup 19-1" one.tnum
Substitution2: "'frac' Diagonal Fractions in Latin lookup 11 subtable" one.numr
Substitution2: "'dnom' Denominators in Latin lookup 9 subtable" one.dnom
Substitution2: "'numr' Numerators in Latin lookup 8 subtable" one.numr
Substitution2: "'sups' Superscript in Latin lookup 7 subtable" uni00B9
AlternateSubs2: "'aalt' Access All Alternates in Latin lookup 1 subtable" one.dnom one.numr uni00B9
EndChar

StartChar: two
Encoding: 50 50 245
Width: 1450
Flags: W
LayerCount: 2
Fore
SplineSet
66 0 m 1,0,-1
 66 166 l 1,1,2
 261 315 261 315 407 436.5 c 128,-1,3
 553 558 553 558 656 657 c 128,-1,4
 759 756 759 756 823 837.5 c 128,-1,5
 887 919 887 919 916.5 987.5 c 128,-1,6
 946 1056 946 1056 946 1117 c 0,7,8
 946 1193 946 1193 910 1255.5 c 128,-1,9
 874 1318 874 1318 812.5 1355 c 128,-1,10
 751 1392 751 1392 674 1392 c 0,11,12
 600 1392 600 1392 537.5 1354.5 c 128,-1,13
 475 1317 475 1317 428 1244 c 128,-1,14
 381 1171 381 1171 350 1065 c 1,15,-1
 78 1192 l 1,16,17
 108 1305 108 1305 164.5 1395.5 c 128,-1,18
 221 1486 221 1486 300.5 1550 c 128,-1,19
 380 1614 380 1614 479 1648 c 128,-1,20
 578 1682 578 1682 693 1682 c 0,21,22
 868 1682 868 1682 1004 1609.5 c 128,-1,23
 1140 1537 1140 1537 1217.5 1412 c 128,-1,24
 1295 1287 1295 1287 1295 1127 c 0,25,26
 1295 1047 1295 1047 1273 970 c 128,-1,27
 1251 893 1251 893 1204 814.5 c 128,-1,28
 1157 736 1157 736 1082 653.5 c 128,-1,29
 1007 571 1007 571 901.5 480.5 c 128,-1,30
 796 390 796 390 656 288 c 1,31,-1
 1325 288 l 1,32,-1
 1325 0 l 1,33,-1
 66 0 l 1,0,-1
EndSplineSet
Substitution2: "'tnum' Tabular Numbers lookup 19-1" two.tnum
Substitution2: "'frac' Diagonal Fractions in Latin lookup 11 subtable" two.numr
Substitution2: "'dnom' Denominators in Latin lookup 9 subtable" two.dnom
Substitution2: "'numr' Numerators in Latin lookup 8 subtable" two.numr
Substitution2: "'sups' Superscript in Latin lookup 7 subtable" uni00B2
AlternateSubs2: "'aalt' Access All Alternates in Latin lookup 1 subtable" two.dnom two.numr uni00B2
EndChar

StartChar: three
Encoding: 51 51 246
Width: 1348
Flags: W
LayerCount: 2
Fore
SplineSet
640 -32 m 0,0,1
 492 -32 492 -32 369 19 c 128,-1,2
 246 70 246 70 161 162 c 128,-1,3
 76 254 76 254 42 379 c 1,4,-1
 342 521 l 1,5,6
 349 441 349 441 386.5 379.5 c 128,-1,7
 424 318 424 318 489.5 283.5 c 128,-1,8
 555 249 555 249 641 249 c 0,9,10
 761 249 761 249 832.5 315 c 128,-1,11
 904 381 904 381 904 490 c 0,12,13
 904 568 904 568 869 629.5 c 128,-1,14
 834 691 834 691 774.5 726.5 c 128,-1,15
 715 762 715 762 642 762 c 0,16,17
 600 762 600 762 570 750 c 1,18,-1
 570 966 l 1,19,-1
 645 966 l 2,20,21
 710 966 710 966 762.5 998.5 c 128,-1,22
 815 1031 815 1031 846.5 1085 c 128,-1,23
 878 1139 878 1139 878 1201 c 0,24,25
 878 1262 878 1262 846.5 1311 c 128,-1,26
 815 1360 815 1360 762 1389 c 128,-1,27
 709 1418 709 1418 643 1418 c 256,28,29
 577 1418 577 1418 520.5 1388 c 128,-1,30
 464 1358 464 1358 427 1306 c 128,-1,31
 390 1254 390 1254 380 1186 c 1,32,-1
 123 1306 l 1,33,34
 151 1418 151 1418 226 1502.5 c 128,-1,35
 301 1587 301 1587 410.5 1633.5 c 128,-1,36
 520 1680 520 1680 649 1680 c 0,37,38
 800 1680 800 1680 918.5 1618 c 128,-1,39
 1037 1556 1037 1556 1105 1449.5 c 128,-1,40
 1173 1343 1173 1343 1173 1207 c 0,41,42
 1173 1137 1173 1137 1152.5 1076 c 128,-1,43
 1132 1015 1132 1015 1094 965 c 128,-1,44
 1056 915 1056 915 1002 879 c 1,45,46
 1072 842 1072 842 1123 785 c 128,-1,47
 1174 728 1174 728 1201 654.5 c 128,-1,48
 1228 581 1228 581 1228 491 c 0,49,50
 1228 341 1228 341 1154 222.5 c 128,-1,51
 1080 104 1080 104 947.5 36 c 128,-1,52
 815 -32 815 -32 640 -32 c 0,0,1
EndSplineSet
Substitution2: "'tnum' Tabular Numbers lookup 19-1" three.tnum
Substitution2: "'frac' Diagonal Fractions in Latin lookup 11 subtable" three.numr
Substitution2: "'dnom' Denominators in Latin lookup 9 subtable" three.dnom
Substitution2: "'numr' Numerators in Latin lookup 8 subtable" three.numr
Substitution2: "'sups' Superscript in Latin lookup 7 subtable" uni00B3
AlternateSubs2: "'aalt' Access All Alternates in Latin lookup 1 subtable" three.dnom three.numr uni00B3
EndChar

StartChar: four
Encoding: 52 52 247
Width: 1418
Flags: W
LayerCount: 2
Fore
SplineSet
833 0 m 1,0,-1
 833 302 l 1,1,-1
 10 302 l 1,2,-1
 10 404 l 1,3,-1
 817 1650 l 1,4,-1
 1137 1650 l 1,5,-1
 1137 587 l 1,6,-1
 1329 587 l 1,7,-1
 1329 302 l 1,8,-1
 1137 302 l 1,9,-1
 1137 0 l 1,10,-1
 833 0 l 1,0,-1
450 587 m 1,11,-1
 833 587 l 1,12,-1
 833 1215 l 1,13,-1
 450 587 l 1,11,-1
EndSplineSet
Substitution2: "'tnum' Tabular Numbers lookup 19-1" four.tnum
Substitution2: "'frac' Diagonal Fractions in Latin lookup 11 subtable" four.numr
Substitution2: "'dnom' Denominators in Latin lookup 9 subtable" four.dnom
Substitution2: "'numr' Numerators in Latin lookup 8 subtable" four.numr
Substitution2: "'sups' Superscript in Latin lookup 7 subtable" uni2074
AlternateSubs2: "'aalt' Access All Alternates in Latin lookup 1 subtable" four.dnom four.numr uni2074
EndChar

StartChar: five
Encoding: 53 53 248
Width: 1370
Flags: W
LayerCount: 2
Fore
SplineSet
648 -30 m 0,0,1
 516 -30 516 -30 399 11 c 128,-1,2
 282 52 282 52 195 132 c 128,-1,3
 108 212 108 212 65 328 c 1,4,-1
 322 452 l 1,5,6
 351 356 351 356 437.5 298 c 128,-1,7
 524 240 524 240 641 240 c 0,8,9
 732 240 732 240 797.5 275.5 c 128,-1,10
 863 311 863 311 898.5 375 c 128,-1,11
 934 439 934 439 934 522 c 0,12,13
 934 625 934 625 880.5 698.5 c 128,-1,14
 827 772 827 772 729.5 811.5 c 128,-1,15
 632 851 632 851 499 851 c 0,16,17
 407 851 407 851 324 826 c 128,-1,18
 241 801 241 801 169 753 c 1,19,-1
 310 1650 l 1,20,-1
 1152 1650 l 1,21,-1
 1152 1366 l 1,22,-1
 586 1366 l 1,23,-1
 537 1043 l 1,24,25
 765 1092 765 1092 947 1011 c 1,26,27
 1042 979 1042 979 1111.5 912.5 c 128,-1,28
 1181 846 1181 846 1219.5 752 c 128,-1,29
 1258 658 1258 658 1258 542 c 0,30,31
 1258 364 1258 364 1177 235.5 c 128,-1,32
 1096 107 1096 107 958 38.5 c 128,-1,33
 820 -30 820 -30 648 -30 c 0,0,1
EndSplineSet
Substitution2: "'tnum' Tabular Numbers lookup 19-1" five.tnum
Substitution2: "'frac' Diagonal Fractions in Latin lookup 11 subtable" five.numr
Substitution2: "'dnom' Denominators in Latin lookup 9 subtable" five.dnom
Substitution2: "'numr' Numerators in Latin lookup 8 subtable" five.numr
AlternateSubs2: "'aalt' Access All Alternates in Latin lookup 1 subtable" five.dnom five.numr
EndChar

StartChar: six
Encoding: 54 54 249
Width: 1405
Flags: W
LayerCount: 2
Fore
SplineSet
723 -32 m 0,0,1
 580 -32 580 -32 462 13 c 128,-1,2
 344 58 344 58 259 138 c 128,-1,3
 174 218 174 218 128 324 c 128,-1,4
 82 430 82 430 82 553 c 0,5,6
 82 690 82 690 148.5 847 c 128,-1,7
 215 1004 215 1004 330 1143 c 2,8,-1
 749 1650 l 1,9,-1
 1142 1650 l 1,10,-1
 656 1074 l 1,11,12
 687 1090 687 1090 725 1098 c 128,-1,13
 763 1106 763 1106 806 1106 c 0,14,15
 918 1106 918 1106 1013 1064.5 c 128,-1,16
 1108 1023 1108 1023 1178.5 947 c 128,-1,17
 1249 871 1249 871 1288.5 767.5 c 128,-1,18
 1328 664 1328 664 1328 540 c 0,19,20
 1328 370 1328 370 1252 241 c 128,-1,21
 1176 112 1176 112 1040 40 c 128,-1,22
 904 -32 904 -32 723 -32 c 0,0,1
708 238 m 0,23,24
 793 238 793 238 860 276 c 128,-1,25
 927 314 927 314 965.5 380 c 128,-1,26
 1004 446 1004 446 1004 530 c 0,27,28
 1004 616 1004 616 965.5 683 c 128,-1,29
 927 750 927 750 860.5 789 c 128,-1,30
 794 828 794 828 712 828 c 256,31,32
 630 828 630 828 563 788.5 c 128,-1,33
 496 749 496 749 456.5 681 c 128,-1,34
 417 613 417 613 417 528 c 0,35,36
 417 446 417 446 453.5 380.5 c 128,-1,37
 490 315 490 315 555.5 276.5 c 128,-1,38
 621 238 621 238 708 238 c 0,23,24
EndSplineSet
Substitution2: "'tnum' Tabular Numbers lookup 19-1" six.tnum
Substitution2: "'frac' Diagonal Fractions in Latin lookup 11 subtable" six.numr
Substitution2: "'dnom' Denominators in Latin lookup 9 subtable" six.dnom
Substitution2: "'numr' Numerators in Latin lookup 8 subtable" six.numr
AlternateSubs2: "'aalt' Access All Alternates in Latin lookup 1 subtable" six.dnom six.numr
EndChar

StartChar: seven
Encoding: 55 55 250
Width: 1317
Flags: W
LayerCount: 2
Fore
SplineSet
51 0 m 1,0,-1
 826 1366 l 1,1,-1
 93 1366 l 1,2,-1
 93 1650 l 1,3,-1
 1305 1650 l 1,4,-1
 1305 1554 l 1,5,-1
 433 0 l 1,6,-1
 51 0 l 1,0,-1
EndSplineSet
Substitution2: "'tnum' Tabular Numbers lookup 19-1" seven.tnum
Substitution2: "'frac' Diagonal Fractions in Latin lookup 11 subtable" seven.numr
Substitution2: "'dnom' Denominators in Latin lookup 9 subtable" seven.dnom
Substitution2: "'numr' Numerators in Latin lookup 8 subtable" seven.numr
AlternateSubs2: "'aalt' Access All Alternates in Latin lookup 1 subtable" seven.dnom seven.numr
EndChar

StartChar: eight
Encoding: 56 56 251
Width: 1412
Flags: W
LayerCount: 2
Fore
SplineSet
706 -32 m 0,0,1
 540 -32 540 -32 404.5 31 c 128,-1,2
 269 94 269 94 189.5 204 c 128,-1,3
 110 314 110 314 110 456 c 0,4,5
 110 600 110 600 191.5 716 c 128,-1,6
 273 832 273 832 404 887 c 1,7,8
 298 943 298 943 238.5 1041.5 c 128,-1,9
 179 1140 179 1140 179 1251 c 0,10,11
 179 1375 179 1375 250.5 1471.5 c 128,-1,12
 322 1568 322 1568 441.5 1624 c 128,-1,13
 561 1680 561 1680 705 1680 c 0,14,15
 800 1680 800 1680 894 1651.5 c 128,-1,16
 988 1623 988 1623 1064.5 1568 c 128,-1,17
 1141 1513 1141 1513 1187 1434 c 128,-1,18
 1233 1355 1233 1355 1233 1252 c 0,19,20
 1233 1137 1233 1137 1171.5 1039.5 c 128,-1,21
 1110 942 1110 942 1008 887 c 1,22,23
 1141 831 1141 831 1221.5 715 c 128,-1,24
 1302 599 1302 599 1302 455 c 0,25,26
 1302 314 1302 314 1222.5 204 c 128,-1,27
 1143 94 1143 94 1008 31 c 128,-1,28
 873 -32 873 -32 706 -32 c 0,0,1
706 249 m 256,29,30
 778 249 778 249 833 280.5 c 128,-1,31
 888 312 888 312 918 367 c 128,-1,32
 948 422 948 422 948 490 c 0,33,34
 948 561 948 561 916.5 616 c 128,-1,35
 885 671 885 671 830.5 703 c 128,-1,36
 776 735 776 735 706 735 c 0,37,38
 637 735 637 735 582 703.5 c 128,-1,39
 527 672 527 672 495.5 617.5 c 128,-1,40
 464 563 464 563 464 491 c 0,41,42
 464 421 464 421 494.5 366.5 c 128,-1,43
 525 312 525 312 579.5 280.5 c 128,-1,44
 634 249 634 249 706 249 c 256,29,30
706 1006 m 0,45,46
 768 1006 768 1006 816.5 1034 c 128,-1,47
 865 1062 865 1062 893 1110 c 128,-1,48
 921 1158 921 1158 921 1219 c 256,49,50
 921 1280 921 1280 892.5 1329 c 128,-1,51
 864 1378 864 1378 815.5 1406 c 128,-1,52
 767 1434 767 1434 706 1434 c 0,53,54
 644 1434 644 1434 596 1406 c 128,-1,55
 548 1378 548 1378 519.5 1329 c 128,-1,56
 491 1280 491 1280 491 1219 c 256,57,58
 491 1158 491 1158 519 1110 c 128,-1,59
 547 1062 547 1062 596 1034 c 128,-1,60
 645 1006 645 1006 706 1006 c 0,45,46
EndSplineSet
Substitution2: "'tnum' Tabular Numbers lookup 19-1" eight.tnum
Substitution2: "'frac' Diagonal Fractions in Latin lookup 11 subtable" eight.numr
Substitution2: "'dnom' Denominators in Latin lookup 9 subtable" eight.dnom
Substitution2: "'numr' Numerators in Latin lookup 8 subtable" eight.numr
AlternateSubs2: "'aalt' Access All Alternates in Latin lookup 1 subtable" eight.dnom eight.numr
EndChar

StartChar: nine
Encoding: 57 57 252
Width: 1405
Flags: W
LayerCount: 2
Fore
SplineSet
261 0 m 1,0,-1
 751 581 l 1,1,2
 692 544 692 544 605 544 c 0,3,4
 503 544 503 544 408 585.5 c 128,-1,5
 313 627 313 627 238 703 c 128,-1,6
 163 779 163 779 119 883.5 c 128,-1,7
 75 988 75 988 75 1114 c 0,8,9
 75 1272 75 1272 147 1400.5 c 128,-1,10
 219 1529 219 1529 354 1605.5 c 128,-1,11
 489 1682 489 1682 679 1682 c 0,12,13
 872 1682 872 1682 1016 1603 c 128,-1,14
 1160 1524 1160 1524 1240 1391.5 c 128,-1,15
 1320 1259 1320 1259 1321 1097 c 0,16,17
 1321 1000 1321 1000 1305 922 c 128,-1,18
 1289 844 1289 844 1256.5 776 c 128,-1,19
 1224 708 1224 708 1177.5 643 c 128,-1,20
 1131 578 1131 578 1072 507 c 2,21,-1
 653 0 l 1,22,-1
 261 0 l 1,0,-1
695 824 m 0,23,24
 756 824 756 824 808.5 846.5 c 128,-1,25
 861 869 861 869 900 909.5 c 128,-1,26
 939 950 939 950 961.5 1004 c 128,-1,27
 984 1058 984 1058 984 1120 c 0,28,29
 984 1204 984 1204 946.5 1270 c 128,-1,30
 909 1336 909 1336 844 1373 c 128,-1,31
 779 1410 779 1410 695 1410 c 0,32,33
 610 1410 610 1410 543.5 1372.5 c 128,-1,34
 477 1335 477 1335 438.5 1269.5 c 128,-1,35
 400 1204 400 1204 400 1120 c 256,36,37
 400 1036 400 1036 438.5 969 c 128,-1,38
 477 902 477 902 544 863 c 128,-1,39
 611 824 611 824 695 824 c 0,23,24
EndSplineSet
Substitution2: "'tnum' Tabular Numbers lookup 19-1" nine.tnum
Substitution2: "'frac' Diagonal Fractions in Latin lookup 11 subtable" nine.numr
Substitution2: "'dnom' Denominators in Latin lookup 9 subtable" nine.dnom
Substitution2: "'numr' Numerators in Latin lookup 8 subtable" nine.numr
AlternateSubs2: "'aalt' Access All Alternates in Latin lookup 1 subtable" nine.dnom nine.numr
EndChar

StartChar: zero.dnom
Encoding: 65545 -1 253
Width: 1456
Flags: W
LayerCount: 2
Fore
SplineSet
676 -21 m 0,0,1
 520 -21 520 -21 401.5 49 c 128,-1,2
 283 119 283 119 216.5 243 c 128,-1,3
 150 367 150 367 150 530 c 256,4,5
 150 693 150 693 216.5 816.5 c 128,-1,6
 283 940 283 940 401.5 1010 c 128,-1,7
 520 1080 520 1080 676 1080 c 0,8,9
 833 1080 833 1080 951.5 1010 c 128,-1,10
 1070 940 1070 940 1136 816.5 c 128,-1,11
 1202 693 1202 693 1202 530 c 256,12,13
 1202 367 1202 367 1135.5 243 c 128,-1,14
 1069 119 1069 119 951 49 c 128,-1,15
 833 -21 833 -21 676 -21 c 0,0,1
676 198 m 0,16,17
 757 198 757 198 816 237.5 c 128,-1,18
 875 277 875 277 907 351.5 c 128,-1,19
 939 426 939 426 939 530 c 256,20,21
 939 634 939 634 906.5 708.5 c 128,-1,22
 874 783 874 783 815.5 822 c 128,-1,23
 757 861 757 861 676 861 c 0,24,25
 596 861 596 861 536.5 821.5 c 128,-1,26
 477 782 477 782 445 708 c 128,-1,27
 413 634 413 634 413 530 c 256,28,29
 413 426 413 426 445 351.5 c 128,-1,30
 477 277 477 277 536.5 237.5 c 128,-1,31
 596 198 596 198 676 198 c 0,16,17
EndSplineSet
EndChar

StartChar: one.dnom
Encoding: 65546 -1 254
Width: 948
Flags: W
LayerCount: 2
Fore
SplineSet
549 0 m 1,0,-1
 549 806 l 1,1,-1
 400 806 l 1,2,-1
 400 1050 l 1,3,-1
 798 1050 l 1,4,-1
 798 0 l 1,5,-1
 549 0 l 1,0,-1
EndSplineSet
EndChar

StartChar: two.dnom
Encoding: 65547 -1 255
Width: 1450
Flags: W
LayerCount: 2
Fore
SplineSet
244 0 m 1,0,-1
 244 129 l 1,1,2
 412 237 412 237 531 325 c 128,-1,3
 650 413 650 413 725 483.5 c 128,-1,4
 800 554 800 554 835 610 c 128,-1,5
 870 666 870 666 870 711 c 0,6,7
 870 752 870 752 846 786 c 128,-1,8
 822 820 822 820 780.5 840 c 128,-1,9
 739 860 739 860 685 860 c 0,10,11
 635 860 635 860 593 840 c 128,-1,12
 551 820 551 820 517.5 778 c 128,-1,13
 484 736 484 736 460 671 c 1,14,-1
 251 773 l 1,15,16
 283 871 283 871 346 940 c 128,-1,17
 409 1009 409 1009 499 1045 c 128,-1,18
 589 1081 589 1081 699 1081 c 0,19,20
 831 1081 831 1081 929.5 1033.5 c 128,-1,21
 1028 986 1028 986 1083.5 905 c 128,-1,22
 1139 824 1139 824 1139 722 c 0,23,24
 1139 658 1139 658 1114 595.5 c 128,-1,25
 1089 533 1089 533 1035.5 472 c 128,-1,26
 982 411 982 411 898 348.5 c 128,-1,27
 814 286 814 286 695 220 c 1,28,-1
 1161 220 l 1,29,-1
 1161 0 l 1,30,-1
 244 0 l 1,0,-1
EndSplineSet
EndChar

StartChar: three.dnom
Encoding: 65548 -1 256
Width: 1374
Flags: W
LayerCount: 2
Fore
SplineSet
673 -21 m 0,0,1
 525 -21 525 -21 412 49 c 128,-1,2
 299 119 299 119 258 240 c 1,3,-1
 489 353 l 1,4,5
 496 283 496 283 545 238.5 c 128,-1,6
 594 194 594 194 673 194 c 0,7,8
 746 194 746 194 789.5 231 c 128,-1,9
 833 268 833 268 833 330 c 0,10,11
 833 374 833 374 811.5 408.5 c 128,-1,12
 790 443 790 443 754 462.5 c 128,-1,13
 718 482 718 482 674 482 c 0,14,15
 645 482 645 482 623 474 c 1,16,-1
 623 636 l 1,17,-1
 678 636 l 2,18,19
 715 636 715 636 745.5 654 c 128,-1,20
 776 672 776 672 794.5 701.5 c 128,-1,21
 813 731 813 731 813 764 c 0,22,23
 813 796 813 796 794.5 822.5 c 128,-1,24
 776 849 776 849 744 864.5 c 128,-1,25
 712 880 712 880 672 880 c 0,26,27
 633 880 633 880 598 864 c 128,-1,28
 563 848 563 848 539.5 819 c 128,-1,29
 516 790 516 790 507 752 c 1,30,-1
 312 847 l 1,31,32
 334 918 334 918 386.5 970.5 c 128,-1,33
 439 1023 439 1023 513.5 1051.5 c 128,-1,34
 588 1080 588 1080 676 1080 c 0,35,36
 783 1080 783 1080 865 1039 c 128,-1,37
 947 998 947 998 993 927.5 c 128,-1,38
 1039 857 1039 857 1039 768 c 0,39,40
 1039 710 1039 710 1014 660 c 128,-1,41
 989 610 989 610 940 572 c 1,42,43
 1010 530 1010 530 1046 468 c 128,-1,44
 1082 406 1082 406 1082 329 c 0,45,46
 1082 230 1082 230 1030 151 c 128,-1,47
 978 72 978 72 886 25.5 c 128,-1,48
 794 -21 794 -21 673 -21 c 0,0,1
EndSplineSet
EndChar

StartChar: four.dnom
Encoding: 65549 -1 257
Width: 1328
Flags: W
LayerCount: 2
Fore
SplineSet
698 0 m 1,0,-1
 698 188 l 1,1,-1
 115 188 l 1,2,-1
 115 261 l 1,3,-1
 685 1050 l 1,4,-1
 931 1050 l 1,5,-1
 931 407 l 1,6,-1
 1068 407 l 1,7,-1
 1068 188 l 1,8,-1
 931 188 l 1,9,-1
 931 0 l 1,10,-1
 698 0 l 1,0,-1
455 407 m 1,11,-1
 698 407 l 1,12,-1
 698 755 l 1,13,-1
 455 407 l 1,11,-1
EndSplineSet
EndChar

StartChar: five.dnom
Encoding: 65550 -1 258
Width: 1370
Flags: W
LayerCount: 2
Fore
SplineSet
655 -19 m 0,0,1
 506 -19 506 -19 388.5 42.5 c 128,-1,2
 271 104 271 104 226 209 c 1,3,-1
 425 304 l 1,4,5
 448 250 448 250 507 220.5 c 128,-1,6
 566 191 566 191 652 191 c 0,7,8
 749 191 749 191 802.5 229.5 c 128,-1,9
 856 268 856 268 856 339 c 0,10,11
 856 395 856 395 825.5 434 c 128,-1,12
 795 473 795 473 739 494 c 128,-1,13
 683 515 683 515 606 516 c 0,14,15
 554 516 554 516 477 503 c 128,-1,16
 400 490 400 490 306 464 c 1,17,-1
 409 1050 l 1,18,-1
 1030 1050 l 1,19,-1
 1030 846 l 1,20,-1
 614 846 l 1,21,-1
 587 682 l 1,22,23
 671 689 671 689 747.5 676 c 128,-1,24
 824 663 824 663 890 632 c 1,25,26
 996 590 996 590 1052 515 c 128,-1,27
 1108 440 1108 440 1108 342 c 0,28,29
 1108 237 1108 237 1049.5 155.5 c 128,-1,30
 991 74 991 74 888.5 27.5 c 128,-1,31
 786 -19 786 -19 655 -19 c 0,0,1
EndSplineSet
EndChar

StartChar: six.dnom
Encoding: 65551 -1 259
Width: 1327
Flags: W
LayerCount: 2
Fore
SplineSet
679 -20 m 0,0,1
 539 -20 539 -20 433.5 29.5 c 128,-1,2
 328 79 328 79 269 164.5 c 128,-1,3
 210 250 210 250 210 356 c 0,4,5
 210 450 210 450 263.5 564 c 128,-1,6
 317 678 317 678 435 795 c 2,7,-1
 690 1050 l 1,8,-1
 991 1050 l 1,9,-1
 641 692 l 1,10,11
 661 699 661 699 687.5 702 c 128,-1,12
 714 705 714 705 744 705 c 0,13,14
 852 705 852 705 937 659.5 c 128,-1,15
 1022 614 1022 614 1072 533 c 128,-1,16
 1122 452 1122 452 1122 347 c 0,17,18
 1122 236 1122 236 1066.5 153.5 c 128,-1,19
 1011 71 1011 71 911.5 25.5 c 128,-1,20
 812 -20 812 -20 679 -20 c 0,0,1
668 186 m 0,21,22
 727 186 727 186 773 205.5 c 128,-1,23
 819 225 819 225 845.5 259.5 c 128,-1,24
 872 294 872 294 872 338 c 0,25,26
 872 381 872 381 846 416.5 c 128,-1,27
 820 452 820 452 774 472 c 128,-1,28
 728 492 728 492 670 492 c 0,29,30
 614 492 614 492 567.5 472 c 128,-1,31
 521 452 521 452 494.5 416.5 c 128,-1,32
 468 381 468 381 468 337 c 0,33,34
 468 294 468 294 493 260 c 128,-1,35
 518 226 518 226 563 206 c 128,-1,36
 608 186 608 186 668 186 c 0,21,22
EndSplineSet
EndChar

StartChar: seven.dnom
Encoding: 65552 -1 260
Width: 1318
Flags: W
LayerCount: 2
Fore
SplineSet
269 0 m 1,0,-1
 768 832 l 1,1,-1
 303 832 l 1,2,-1
 303 1050 l 1,3,-1
 1136 1050 l 1,4,-1
 1136 978 l 1,5,-1
 563 0 l 1,6,-1
 269 0 l 1,0,-1
EndSplineSet
EndChar

StartChar: eight.dnom
Encoding: 65553 -1 261
Width: 1412
Flags: W
LayerCount: 2
Fore
SplineSet
706 -21 m 256,0,1
 588 -21 588 -21 494 21 c 128,-1,2
 400 63 400 63 346 134.5 c 128,-1,3
 292 206 292 206 292 296 c 0,4,5
 292 385 292 385 344.5 460.5 c 128,-1,6
 397 536 397 536 486 573 c 1,7,8
 419 609 419 609 379 670.5 c 128,-1,9
 339 732 339 732 339 802 c 0,10,11
 339 881 339 881 387.5 943.5 c 128,-1,12
 436 1006 436 1006 519.5 1043 c 128,-1,13
 603 1080 603 1080 706 1080 c 0,14,15
 807 1080 807 1080 890.5 1044.5 c 128,-1,16
 974 1009 974 1009 1023.5 946.5 c 128,-1,17
 1073 884 1073 884 1073 803 c 0,18,19
 1073 733 1073 733 1034 671 c 128,-1,20
 995 609 995 609 926 573 c 1,21,22
 1015 535 1015 535 1068 460 c 128,-1,23
 1121 385 1121 385 1121 296 c 256,24,25
 1121 207 1121 207 1066.5 135 c 128,-1,26
 1012 63 1012 63 918 21 c 128,-1,27
 824 -21 824 -21 706 -21 c 256,0,1
706 195 m 0,28,29
 769 195 769 195 808.5 231.5 c 128,-1,30
 848 268 848 268 848 325 c 0,31,32
 848 363 848 363 829.5 392.5 c 128,-1,33
 811 422 811 422 779.5 439 c 128,-1,34
 748 456 748 456 707 456 c 256,35,36
 666 456 666 456 633.5 439.5 c 128,-1,37
 601 423 601 423 582.5 393 c 128,-1,38
 564 363 564 363 564 325 c 0,39,40
 564 268 564 268 604 231.5 c 128,-1,41
 644 195 644 195 706 195 c 0,28,29
707 663 m 0,42,43
 761 663 761 663 797 695.5 c 128,-1,44
 833 728 833 728 833 777 c 256,45,46
 833 826 833 826 796.5 858.5 c 128,-1,47
 760 891 760 891 706 891 c 0,48,49
 653 891 653 891 616 858.5 c 128,-1,50
 579 826 579 826 579 777 c 256,51,52
 579 728 579 728 615.5 695.5 c 128,-1,53
 652 663 652 663 707 663 c 0,42,43
EndSplineSet
EndChar

StartChar: nine.dnom
Encoding: 65554 -1 262
Width: 1405
Flags: W
LayerCount: 2
Fore
SplineSet
373 0 m 1,0,-1
 725 364 l 1,1,2
 707 356 707 356 680.5 352 c 128,-1,3
 654 348 654 348 625 348 c 0,4,5
 529 348 529 348 441.5 394 c 128,-1,6
 354 440 354 440 298 522.5 c 128,-1,7
 242 605 242 605 242 714 c 0,8,9
 242 815 242 815 294.5 898.5 c 128,-1,10
 347 982 347 982 446 1031.5 c 128,-1,11
 545 1081 545 1081 686 1081 c 0,12,13
 820 1081 820 1081 923 1034.5 c 128,-1,14
 1026 988 1026 988 1087 902.5 c 128,-1,15
 1148 817 1148 817 1155 702 c 0,16,17
 1161 602 1161 602 1127.5 523.5 c 128,-1,18
 1094 445 1094 445 1047.5 388 c 128,-1,19
 1001 331 1001 331 964 295 c 2,20,-1
 674 0 l 1,21,-1
 373 0 l 1,0,-1
696 562 m 256,22,23
 753 562 753 562 798 583 c 128,-1,24
 843 604 843 604 869 640 c 128,-1,25
 895 676 895 676 895 720 c 0,26,27
 895 763 895 763 870 798 c 128,-1,28
 845 833 845 833 800 853.5 c 128,-1,29
 755 874 755 874 696 874 c 0,30,31
 638 874 638 874 592 854 c 128,-1,32
 546 834 546 834 519.5 799 c 128,-1,33
 493 764 493 764 493 719 c 256,34,35
 493 674 493 674 520.5 638 c 128,-1,36
 548 602 548 602 593.5 582 c 128,-1,37
 639 562 639 562 696 562 c 256,22,23
EndSplineSet
EndChar

StartChar: zero.numr
Encoding: 65555 -1 263
Width: 1486
Flags: W
LayerCount: 2
Fore
SplineSet
743 579 m 0,0,1
 587 579 587 579 468.5 649 c 128,-1,2
 350 719 350 719 283.5 843 c 128,-1,3
 217 967 217 967 217 1130 c 256,4,5
 217 1293 217 1293 283.5 1416.5 c 128,-1,6
 350 1540 350 1540 468.5 1610 c 128,-1,7
 587 1680 587 1680 743 1680 c 0,8,9
 900 1680 900 1680 1018.5 1610 c 128,-1,10
 1137 1540 1137 1540 1203 1416.5 c 128,-1,11
 1269 1293 1269 1293 1269 1130 c 256,12,13
 1269 967 1269 967 1202.5 843 c 128,-1,14
 1136 719 1136 719 1018 649 c 128,-1,15
 900 579 900 579 743 579 c 0,0,1
743 798 m 256,16,17
 824 798 824 798 883 837.5 c 128,-1,18
 942 877 942 877 974 951.5 c 128,-1,19
 1006 1026 1006 1026 1006 1130 c 256,20,21
 1006 1234 1006 1234 974 1308.5 c 128,-1,22
 942 1383 942 1383 883 1422 c 128,-1,23
 824 1461 824 1461 743 1461 c 0,24,25
 663 1461 663 1461 603.5 1421.5 c 128,-1,26
 544 1382 544 1382 511.5 1308 c 128,-1,27
 479 1234 479 1234 479 1130 c 256,28,29
 479 1026 479 1026 511.5 951.5 c 128,-1,30
 544 877 544 877 603 837.5 c 128,-1,31
 662 798 662 798 743 798 c 256,16,17
EndSplineSet
Substitution2: "Single Substitution lookup 14 subtable" zero.dnom
Substitution2: "Single Substitution lookup 13 subtable" zero.dnom
Substitution2: "'aalt' Access All Alternates in Latin lookup 0 subtable" zero.dnom
EndChar

StartChar: one.numr
Encoding: 65556 -1 264
Width: 899
Flags: W
LayerCount: 2
Fore
SplineSet
324 600 m 1,0,-1
 324 1406 l 1,1,-1
 175 1406 l 1,2,-1
 175 1650 l 1,3,-1
 573 1650 l 1,4,-1
 573 600 l 1,5,-1
 324 600 l 1,0,-1
EndSplineSet
Substitution2: "Single Substitution lookup 14 subtable" one.dnom
Substitution2: "Single Substitution lookup 13 subtable" one.dnom
Substitution2: "'aalt' Access All Alternates in Latin lookup 0 subtable" one.dnom
EndChar

StartChar: two.numr
Encoding: 65557 -1 265
Width: 1450
Flags: W
LayerCount: 2
Fore
SplineSet
244 600 m 1,0,-1
 244 729 l 1,1,2
 412 837 412 837 531 925 c 128,-1,3
 650 1013 650 1013 725 1083.5 c 128,-1,4
 800 1154 800 1154 835 1210 c 128,-1,5
 870 1266 870 1266 870 1311 c 0,6,7
 870 1352 870 1352 846 1386 c 128,-1,8
 822 1420 822 1420 780.5 1440 c 128,-1,9
 739 1460 739 1460 685 1460 c 0,10,11
 635 1460 635 1460 593 1440 c 128,-1,12
 551 1420 551 1420 517.5 1378 c 128,-1,13
 484 1336 484 1336 460 1271 c 1,14,-1
 251 1373 l 1,15,16
 283 1471 283 1471 346 1540 c 128,-1,17
 409 1609 409 1609 499 1645 c 128,-1,18
 589 1681 589 1681 699 1681 c 0,19,20
 831 1681 831 1681 929.5 1633.5 c 128,-1,21
 1028 1586 1028 1586 1083.5 1505 c 128,-1,22
 1139 1424 1139 1424 1139 1322 c 0,23,24
 1139 1258 1139 1258 1114 1195.5 c 128,-1,25
 1089 1133 1089 1133 1035.5 1072 c 128,-1,26
 982 1011 982 1011 898 948.5 c 128,-1,27
 814 886 814 886 695 820 c 1,28,-1
 1161 820 l 1,29,-1
 1161 600 l 1,30,-1
 244 600 l 1,0,-1
EndSplineSet
Substitution2: "Single Substitution lookup 14 subtable" two.dnom
Substitution2: "Single Substitution lookup 13 subtable" two.dnom
Substitution2: "'aalt' Access All Alternates in Latin lookup 0 subtable" two.dnom
EndChar

StartChar: three.numr
Encoding: 65558 -1 266
Width: 1348
Flags: W
LayerCount: 2
Fore
SplineSet
649 579 m 0,0,1
 501 579 501 579 388 649 c 128,-1,2
 275 719 275 719 234 840 c 1,3,-1
 465 953 l 1,4,5
 472 883 472 883 520.5 838.5 c 128,-1,6
 569 794 569 794 649 794 c 0,7,8
 722 794 722 794 765.5 831 c 128,-1,9
 809 868 809 868 809 930 c 0,10,11
 809 974 809 974 787 1008.5 c 128,-1,12
 765 1043 765 1043 729.5 1062.5 c 128,-1,13
 694 1082 694 1082 650 1082 c 0,14,15
 621 1082 621 1082 599 1074 c 1,16,-1
 599 1236 l 1,17,-1
 654 1236 l 2,18,19
 691 1236 691 1236 721.5 1254 c 128,-1,20
 752 1272 752 1272 770.5 1301.5 c 128,-1,21
 789 1331 789 1331 789 1364 c 0,22,23
 789 1396 789 1396 770 1422.5 c 128,-1,24
 751 1449 751 1449 719.5 1464.5 c 128,-1,25
 688 1480 688 1480 648 1480 c 256,26,27
 608 1480 608 1480 573 1464 c 128,-1,28
 538 1448 538 1448 514.5 1419 c 128,-1,29
 491 1390 491 1390 483 1352 c 1,30,-1
 287 1447 l 1,31,32
 309 1518 309 1518 362 1570.5 c 128,-1,33
 415 1623 415 1623 489.5 1651.5 c 128,-1,34
 564 1680 564 1680 652 1680 c 0,35,36
 759 1680 759 1680 841 1639 c 128,-1,37
 923 1598 923 1598 969 1527 c 128,-1,38
 1015 1456 1015 1456 1015 1368 c 0,39,40
 1015 1310 1015 1310 990 1260.5 c 128,-1,41
 965 1211 965 1211 916 1172 c 1,42,43
 986 1130 986 1130 1022 1068 c 128,-1,44
 1058 1006 1058 1006 1058 929 c 0,45,46
 1058 830 1058 830 1006 751 c 128,-1,47
 954 672 954 672 862 625.5 c 128,-1,48
 770 579 770 579 649 579 c 0,0,1
EndSplineSet
Substitution2: "Single Substitution lookup 14 subtable" three.dnom
Substitution2: "Single Substitution lookup 13 subtable" three.dnom
Substitution2: "'aalt' Access All Alternates in Latin lookup 0 subtable" three.dnom
EndChar

StartChar: four.numr
Encoding: 65559 -1 267
Width: 1418
Flags: W
LayerCount: 2
Fore
SplineSet
787 600 m 1,0,-1
 787 788 l 1,1,-1
 205 788 l 1,2,-1
 205 861 l 1,3,-1
 774 1650 l 1,4,-1
 1021 1650 l 1,5,-1
 1021 1007 l 1,6,-1
 1157 1007 l 1,7,-1
 1157 788 l 1,8,-1
 1021 788 l 1,9,-1
 1021 600 l 1,10,-1
 787 600 l 1,0,-1
544 1007 m 1,11,-1
 787 1007 l 1,12,-1
 787 1355 l 1,13,-1
 544 1007 l 1,11,-1
EndSplineSet
Substitution2: "Single Substitution lookup 14 subtable" four.dnom
Substitution2: "Single Substitution lookup 13 subtable" four.dnom
Substitution2: "'aalt' Access All Alternates in Latin lookup 0 subtable" four.dnom
EndChar

StartChar: five.numr
Encoding: 65560 -1 268
Width: 1370
Flags: W
LayerCount: 2
Fore
SplineSet
655 581 m 0,0,1
 505 581 505 581 388 642.5 c 128,-1,2
 271 704 271 704 226 809 c 1,3,-1
 425 904 l 1,4,5
 446 851 446 851 507.5 821 c 128,-1,6
 569 791 569 791 652 791 c 0,7,8
 746 791 746 791 801 830.5 c 128,-1,9
 856 870 856 870 856 939 c 0,10,11
 856 996 856 996 818 1035.5 c 128,-1,12
 780 1075 780 1075 710.5 1095.5 c 128,-1,13
 641 1116 641 1116 545 1116 c 0,14,15
 483 1116 483 1116 426.5 1103 c 128,-1,16
 370 1090 370 1090 304 1064 c 1,17,-1
 409 1650 l 1,18,-1
 1030 1650 l 1,19,-1
 1030 1446 l 1,20,-1
 613 1446 l 1,21,-1
 587 1282 l 1,22,23
 666 1288 666 1288 744.5 1275.5 c 128,-1,24
 823 1263 823 1263 891 1231 c 1,25,26
 994 1190 994 1190 1051 1116 c 128,-1,27
 1108 1042 1108 1042 1108 942 c 0,28,29
 1108 838 1108 838 1050 756.5 c 128,-1,30
 992 675 992 675 889.5 628 c 128,-1,31
 787 581 787 581 655 581 c 0,0,1
EndSplineSet
Substitution2: "Single Substitution lookup 14 subtable" five.dnom
Substitution2: "Single Substitution lookup 13 subtable" five.dnom
Substitution2: "'aalt' Access All Alternates in Latin lookup 0 subtable" five.dnom
EndChar

StartChar: six.numr
Encoding: 65561 -1 269
Width: 1405
Flags: W
LayerCount: 2
Fore
SplineSet
718 580 m 0,0,1
 578 580 578 580 472.5 629.5 c 128,-1,2
 367 679 367 679 308 765 c 128,-1,3
 249 851 249 851 249 956 c 0,4,5
 249 1049 249 1049 297.5 1158 c 128,-1,6
 346 1267 346 1267 439 1360 c 2,7,-1
 728 1650 l 1,8,-1
 1030 1650 l 1,9,-1
 680 1292 l 1,10,11
 701 1299 701 1299 727 1302 c 128,-1,12
 753 1305 753 1305 783 1305 c 0,13,14
 892 1305 892 1305 977 1259 c 128,-1,15
 1062 1213 1062 1213 1111.5 1132 c 128,-1,16
 1161 1051 1161 1051 1161 946 c 0,17,18
 1161 836 1161 836 1105.5 753.5 c 128,-1,19
 1050 671 1050 671 950 625.5 c 128,-1,20
 850 580 850 580 718 580 c 0,0,1
707 786 m 256,21,22
 766 786 766 786 812 805.5 c 128,-1,23
 858 825 858 825 884.5 859.5 c 128,-1,24
 911 894 911 894 911 938 c 0,25,26
 911 981 911 981 885 1016.5 c 128,-1,27
 859 1052 859 1052 813 1072 c 128,-1,28
 767 1092 767 1092 709 1092 c 0,29,30
 653 1092 653 1092 607 1072 c 128,-1,31
 561 1052 561 1052 534 1016.5 c 128,-1,32
 507 981 507 981 507 937 c 0,33,34
 507 894 507 894 532 860 c 128,-1,35
 557 826 557 826 602.5 806 c 128,-1,36
 648 786 648 786 707 786 c 256,21,22
EndSplineSet
Substitution2: "Single Substitution lookup 14 subtable" six.dnom
Substitution2: "Single Substitution lookup 13 subtable" six.dnom
Substitution2: "'aalt' Access All Alternates in Latin lookup 0 subtable" six.dnom
EndChar

StartChar: seven.numr
Encoding: 65562 -1 270
Width: 1287
Flags: W
LayerCount: 2
Fore
SplineSet
240 600 m 1,0,-1
 738 1432 l 1,1,-1
 273 1432 l 1,2,-1
 273 1650 l 1,3,-1
 1106 1650 l 1,4,-1
 1106 1578 l 1,5,-1
 533 600 l 1,6,-1
 240 600 l 1,0,-1
EndSplineSet
Substitution2: "Single Substitution lookup 14 subtable" seven.dnom
Substitution2: "Single Substitution lookup 13 subtable" seven.dnom
Substitution2: "'aalt' Access All Alternates in Latin lookup 0 subtable" seven.dnom
EndChar

StartChar: eight.numr
Encoding: 65563 -1 271
Width: 1412
Flags: W
LayerCount: 2
Fore
SplineSet
706 579 m 0,0,1
 590 579 590 579 496 620 c 128,-1,2
 402 661 402 661 347 732.5 c 128,-1,3
 292 804 292 804 292 896 c 0,4,5
 292 987 292 987 346.5 1062 c 128,-1,6
 401 1137 401 1137 486 1173 c 1,7,8
 418 1210 418 1210 378.5 1271.5 c 128,-1,9
 339 1333 339 1333 339 1402 c 0,10,11
 339 1484 339 1484 390 1546.5 c 128,-1,12
 441 1609 441 1609 524.5 1644.5 c 128,-1,13
 608 1680 608 1680 704 1680 c 0,14,15
 796 1680 796 1680 880.5 1647.5 c 128,-1,16
 965 1615 965 1615 1019 1553.5 c 128,-1,17
 1073 1492 1073 1492 1073 1405 c 0,18,19
 1073 1334 1073 1334 1034 1271.5 c 128,-1,20
 995 1209 995 1209 926 1173 c 1,21,22
 1013 1136 1013 1136 1067 1061.5 c 128,-1,23
 1121 987 1121 987 1121 896 c 0,24,25
 1121 804 1121 804 1065.5 732.5 c 128,-1,26
 1010 661 1010 661 915.5 620 c 128,-1,27
 821 579 821 579 706 579 c 0,0,1
707 795 m 0,28,29
 771 795 771 795 809.5 832.5 c 128,-1,30
 848 870 848 870 848 925 c 0,31,32
 848 963 848 963 829.5 992.5 c 128,-1,33
 811 1022 811 1022 779 1039 c 128,-1,34
 747 1056 747 1056 707 1056 c 256,35,36
 667 1056 667 1056 634.5 1039.5 c 128,-1,37
 602 1023 602 1023 583 993.5 c 128,-1,38
 564 964 564 964 564 925 c 0,39,40
 564 869 564 869 603 832 c 128,-1,41
 642 795 642 795 707 795 c 0,28,29
707 1263 m 256,42,43
 761 1263 761 1263 797 1295.5 c 128,-1,44
 833 1328 833 1328 833 1377 c 256,45,46
 833 1426 833 1426 796.5 1458.5 c 128,-1,47
 760 1491 760 1491 707 1491 c 0,48,49
 653 1491 653 1491 616 1458.5 c 128,-1,50
 579 1426 579 1426 579 1377 c 256,51,52
 579 1328 579 1328 616 1295.5 c 128,-1,53
 653 1263 653 1263 707 1263 c 256,42,43
EndSplineSet
Substitution2: "Single Substitution lookup 14 subtable" eight.dnom
Substitution2: "Single Substitution lookup 13 subtable" eight.dnom
Substitution2: "'aalt' Access All Alternates in Latin lookup 0 subtable" eight.dnom
EndChar

StartChar: nine.numr
Encoding: 65564 -1 272
Width: 1405
Flags: W
LayerCount: 2
Fore
SplineSet
373 600 m 1,0,-1
 725 964 l 1,1,2
 707 956 707 956 680.5 952 c 128,-1,3
 654 948 654 948 625 948 c 0,4,5
 529 948 529 948 441.5 994 c 128,-1,6
 354 1040 354 1040 298 1122.5 c 128,-1,7
 242 1205 242 1205 242 1314 c 0,8,9
 242 1415 242 1415 294.5 1498.5 c 128,-1,10
 347 1582 347 1582 446 1631.5 c 128,-1,11
 545 1681 545 1681 686 1681 c 0,12,13
 820 1681 820 1681 923 1634.5 c 128,-1,14
 1026 1588 1026 1588 1087 1502.5 c 128,-1,15
 1148 1417 1148 1417 1155 1302 c 0,16,17
 1161 1202 1161 1202 1127.5 1123.5 c 128,-1,18
 1094 1045 1094 1045 1047.5 988 c 128,-1,19
 1001 931 1001 931 964 895 c 2,20,-1
 674 600 l 1,21,-1
 373 600 l 1,0,-1
696 1162 m 256,22,23
 753 1162 753 1162 798 1183 c 128,-1,24
 843 1204 843 1204 869 1240 c 128,-1,25
 895 1276 895 1276 895 1320 c 0,26,27
 895 1363 895 1363 870 1398 c 128,-1,28
 845 1433 845 1433 800 1453.5 c 128,-1,29
 755 1474 755 1474 696 1474 c 0,30,31
 638 1474 638 1474 592 1454 c 128,-1,32
 546 1434 546 1434 519.5 1399 c 128,-1,33
 493 1364 493 1364 493 1319 c 256,34,35
 493 1274 493 1274 520.5 1238 c 128,-1,36
 548 1202 548 1202 593.5 1182 c 128,-1,37
 639 1162 639 1162 696 1162 c 256,22,23
EndSplineSet
Substitution2: "Single Substitution lookup 14 subtable" nine.dnom
Substitution2: "Single Substitution lookup 13 subtable" nine.dnom
Substitution2: "'aalt' Access All Alternates in Latin lookup 0 subtable" nine.dnom
EndChar

StartChar: uni00B9
Encoding: 185 185 273
Width: 440
Flags: W
LayerCount: 2
Fore
SplineSet
168 1026 m 1,0,-1
 168 1511 l 1,1,-1
 65 1511 l 1,2,-1
 65 1650 l 1,3,-1
 308 1650 l 1,4,-1
 308 1026 l 1,5,-1
 168 1026 l 1,0,-1
EndSplineSet
EndChar

StartChar: uni00B2
Encoding: 178 178 274
Width: 659
Flags: W
LayerCount: 2
Fore
SplineSet
62 1026 m 1,0,-1
 62 1103 l 1,1,2
 177 1187 177 1187 250.5 1253.5 c 128,-1,3
 324 1320 324 1320 359 1373.5 c 128,-1,4
 394 1427 394 1427 394 1470 c 0,5,6
 394 1510 394 1510 370 1534.5 c 128,-1,7
 346 1559 346 1559 308 1559 c 0,8,9
 268 1559 268 1559 237.5 1528 c 128,-1,10
 207 1497 207 1497 185 1434 c 1,11,-1
 64 1494 l 1,12,13
 95 1584 95 1584 157.5 1633 c 128,-1,14
 220 1682 220 1682 309 1682 c 0,15,16
 416 1682 416 1682 483 1620 c 128,-1,17
 550 1558 550 1558 550 1462 c 0,18,19
 550 1411 550 1411 527 1362.5 c 128,-1,20
 504 1314 504 1314 453.5 1262.5 c 128,-1,21
 403 1211 403 1211 320 1153 c 1,22,-1
 562 1153 l 1,23,-1
 562 1026 l 1,24,-1
 62 1026 l 1,0,-1
EndSplineSet
EndChar

StartChar: uni00B3
Encoding: 179 179 275
Width: 619
Flags: W
LayerCount: 2
Fore
SplineSet
299 1026 m 0,0,1
 203 1026 203 1026 141 1067 c 128,-1,2
 79 1108 79 1108 52 1180 c 1,3,-1
 184 1245 l 1,4,5
 188 1202 188 1202 216.5 1175.5 c 128,-1,6
 245 1149 245 1149 291 1149 c 0,7,8
 334 1149 334 1149 357.5 1170.5 c 128,-1,9
 381 1192 381 1192 381 1228 c 0,10,11
 381 1272 381 1272 350 1298.5 c 128,-1,12
 319 1325 319 1325 274 1325 c 0,13,14
 260 1325 260 1325 247 1321 c 1,15,-1
 247 1414 l 1,16,-1
 278 1414 l 2,17,18
 313 1414 313 1414 340.5 1438.5 c 128,-1,19
 368 1463 368 1463 368 1496 c 0,20,21
 368 1526 368 1526 345.5 1546 c 128,-1,22
 323 1566 323 1566 290 1566 c 0,23,24
 255 1566 255 1566 228.5 1543.5 c 128,-1,25
 202 1521 202 1521 196 1486 c 1,26,-1
 83 1541 l 1,27,28
 106 1606 106 1606 159 1643 c 128,-1,29
 212 1680 212 1680 302 1680 c 0,30,31
 395 1680 395 1680 453.5 1639 c 128,-1,32
 512 1598 512 1598 512 1522 c 0,33,34
 512 1483 512 1483 493.5 1445 c 128,-1,35
 475 1407 475 1407 441 1378 c 1,36,37
 487 1354 487 1354 511.5 1312 c 128,-1,38
 536 1270 536 1270 536 1217 c 0,39,40
 536 1122 536 1122 468 1074 c 128,-1,41
 400 1026 400 1026 299 1026 c 0,0,1
EndSplineSet
EndChar

StartChar: uni2074
Encoding: 8308 8308 276
Width: 604
Flags: W
LayerCount: 2
Fore
SplineSet
362 1040 m 1,0,-1
 362 1148 l 1,1,-1
 25 1148 l 1,2,-1
 25 1192 l 1,3,-1
 356 1650 l 1,4,-1
 500 1650 l 1,5,-1
 500 1276 l 1,6,-1
 579 1276 l 1,7,-1
 579 1148 l 1,8,-1
 500 1148 l 1,9,-1
 500 1040 l 1,10,-1
 362 1040 l 1,0,-1
225 1276 m 1,11,-1
 362 1276 l 1,12,-1
 362 1475 l 1,13,-1
 225 1276 l 1,11,-1
EndSplineSet
EndChar

StartChar: fraction
Encoding: 8260 8260 277
Width: 166
Flags: W
LayerCount: 2
Fore
SplineSet
-533 0 m 1,0,-1
 487 1650 l 1,1,-1
 699 1650 l 1,2,-1
 -322 0 l 1,3,-1
 -533 0 l 1,0,-1
EndSplineSet
EndChar

StartChar: period
Encoding: 46 46 298
Width: 816
Flags: W
LayerCount: 2
Fore
SplineSet
407 -32 m 256,0,1
 351 -32 351 -32 305.5 -5 c 128,-1,2
 260 22 260 22 233.5 67.5 c 128,-1,3
 207 113 207 113 207 168 c 0,4,5
 207 224 207 224 233.5 269 c 128,-1,6
 260 314 260 314 306 341 c 128,-1,7
 352 368 352 368 407 368 c 0,8,9
 463 368 463 368 508 341 c 128,-1,10
 553 314 553 314 580 269 c 128,-1,11
 607 224 607 224 607 168 c 0,12,13
 607 113 607 113 580 67.5 c 128,-1,14
 553 22 553 22 508 -5 c 128,-1,15
 463 -32 463 -32 407 -32 c 256,0,1
EndSplineSet
EndChar

StartChar: comma
Encoding: 44 44 299
Width: 756
Flags: W
LayerCount: 2
Fore
SplineSet
292 -345 m 1,0,-1
 205 -274 l 1,1,2
 231 -249 231 -249 259 -204 c 128,-1,3
 287 -159 287 -159 309 -108 c 128,-1,4
 331 -57 331 -57 337 -15 c 1,5,6
 266 2 266 2 226 52 c 128,-1,7
 186 102 186 102 186 172 c 0,8,9
 186 259 186 259 242.5 313.5 c 128,-1,10
 299 368 299 368 388 368 c 0,11,12
 479 368 479 368 533 310.5 c 128,-1,13
 587 253 587 253 587 153 c 0,14,15
 587 33 587 33 508.5 -99.5 c 128,-1,16
 430 -232 430 -232 292 -345 c 1,0,-1
EndSplineSet
EndChar

StartChar: colon
Encoding: 58 58 300
Width: 783
Flags: W
LayerCount: 2
Fore
SplineSet
388 751 m 256,0,1
 332 751 332 751 287 778 c 128,-1,2
 242 805 242 805 215 850.5 c 128,-1,3
 188 896 188 896 188 951 c 0,4,5
 188 1007 188 1007 215 1052 c 128,-1,6
 242 1097 242 1097 287 1124 c 128,-1,7
 332 1151 332 1151 388 1151 c 256,8,9
 444 1151 444 1151 489 1124 c 128,-1,10
 534 1097 534 1097 561 1052 c 128,-1,11
 588 1007 588 1007 588 951 c 0,12,13
 588 896 588 896 561 850.5 c 128,-1,14
 534 805 534 805 489 778 c 128,-1,15
 444 751 444 751 388 751 c 256,0,1
388 -32 m 256,16,17
 332 -32 332 -32 287 -5 c 128,-1,18
 242 22 242 22 215 67.5 c 128,-1,19
 188 113 188 113 188 168 c 0,20,21
 188 224 188 224 215 269 c 128,-1,22
 242 314 242 314 287 341 c 128,-1,23
 332 368 332 368 388 368 c 256,24,25
 444 368 444 368 489 341 c 128,-1,26
 534 314 534 314 561 269 c 128,-1,27
 588 224 588 224 588 168 c 0,28,29
 588 113 588 113 561 67.5 c 128,-1,30
 534 22 534 22 489 -5 c 128,-1,31
 444 -32 444 -32 388 -32 c 256,16,17
EndSplineSet
Substitution2: "'tnum' Tabular Numbers lookup 19-1" colon.tnum
EndChar

StartChar: semicolon
Encoding: 59 59 301
Width: 762
Flags: W
LayerCount: 2
Fore
SplineSet
388 751 m 256,0,1
 332 751 332 751 287 778 c 128,-1,2
 242 805 242 805 215 850.5 c 128,-1,3
 188 896 188 896 188 951 c 0,4,5
 188 1007 188 1007 215 1052.5 c 128,-1,6
 242 1098 242 1098 287 1124.5 c 128,-1,7
 332 1151 332 1151 388 1151 c 256,8,9
 444 1151 444 1151 489 1124.5 c 128,-1,10
 534 1098 534 1098 561 1052.5 c 128,-1,11
 588 1007 588 1007 588 951 c 0,12,13
 588 896 588 896 561 850.5 c 128,-1,14
 534 805 534 805 489 778 c 128,-1,15
 444 751 444 751 388 751 c 256,0,1
292 -345 m 1,16,-1
 205 -274 l 1,17,18
 231 -249 231 -249 259 -204 c 128,-1,19
 287 -159 287 -159 309 -108 c 128,-1,20
 331 -57 331 -57 337 -15 c 1,21,22
 266 2 266 2 226 52 c 128,-1,23
 186 102 186 102 186 172 c 0,24,25
 186 259 186 259 242.5 313.5 c 128,-1,26
 299 368 299 368 388 368 c 0,27,28
 479 368 479 368 533 310.5 c 128,-1,29
 587 253 587 253 587 153 c 0,30,31
 587 33 587 33 508.5 -99.5 c 128,-1,32
 430 -232 430 -232 292 -345 c 1,16,-1
EndSplineSet
EndChar

StartChar: ellipsis
Encoding: 8230 8230 302
Width: 2051
Flags: W
LayerCount: 2
Fore
SplineSet
407 -32 m 256,0,1
 351 -32 351 -32 305.5 -5 c 128,-1,2
 260 22 260 22 233.5 67.5 c 128,-1,3
 207 113 207 113 207 168 c 0,4,5
 207 224 207 224 233.5 269 c 128,-1,6
 260 314 260 314 306 341 c 128,-1,7
 352 368 352 368 407 368 c 0,8,9
 463 368 463 368 508 341 c 128,-1,10
 553 314 553 314 580 269 c 128,-1,11
 607 224 607 224 607 168 c 0,12,13
 607 113 607 113 580 67.5 c 128,-1,14
 553 22 553 22 508 -5 c 128,-1,15
 463 -32 463 -32 407 -32 c 256,0,1
1025 -32 m 0,16,17
 969 -32 969 -32 923.5 -5 c 128,-1,18
 878 22 878 22 851.5 67.5 c 128,-1,19
 825 113 825 113 825 168 c 0,20,21
 825 224 825 224 851.5 269 c 128,-1,22
 878 314 878 314 923.5 341 c 128,-1,23
 969 368 969 368 1025 368 c 0,24,25
 1080 368 1080 368 1125.5 341 c 128,-1,26
 1171 314 1171 314 1198 268.5 c 128,-1,27
 1225 223 1225 223 1225 168 c 256,28,29
 1225 113 1225 113 1198 67.5 c 128,-1,30
 1171 22 1171 22 1125.5 -5 c 128,-1,31
 1080 -32 1080 -32 1025 -32 c 0,16,17
1642 -32 m 256,32,33
 1586 -32 1586 -32 1541 -5 c 128,-1,34
 1496 22 1496 22 1469 67.5 c 128,-1,35
 1442 113 1442 113 1442 168 c 0,36,37
 1442 224 1442 224 1469 269 c 128,-1,38
 1496 314 1496 314 1541 341 c 128,-1,39
 1586 368 1586 368 1642 368 c 256,40,41
 1698 368 1698 368 1743 341 c 128,-1,42
 1788 314 1788 314 1815 268.5 c 128,-1,43
 1842 223 1842 223 1842 168 c 256,44,45
 1842 113 1842 113 1815 67.5 c 128,-1,46
 1788 22 1788 22 1743 -5 c 128,-1,47
 1698 -32 1698 -32 1642 -32 c 256,32,33
EndSplineSet
EndChar

StartChar: exclam
Encoding: 33 33 303
Width: 777
Flags: W
LayerCount: 2
Fore
SplineSet
276 506 m 1,0,-1
 236 1720 l 1,1,-1
 541 1720 l 1,2,-1
 501 506 l 1,3,-1
 276 506 l 1,0,-1
387 -32 m 0,4,5
 332 -32 332 -32 286.5 -5 c 128,-1,6
 241 22 241 22 214 67.5 c 128,-1,7
 187 113 187 113 187 168 c 0,8,9
 187 224 187 224 214 269 c 128,-1,10
 241 314 241 314 286.5 341 c 128,-1,11
 332 368 332 368 387 368 c 0,12,13
 443 368 443 368 488 341 c 128,-1,14
 533 314 533 314 560 269 c 128,-1,15
 587 224 587 224 587 168 c 0,16,17
 587 113 587 113 560 67.5 c 128,-1,18
 533 22 533 22 488 -5 c 128,-1,19
 443 -32 443 -32 387 -32 c 0,4,5
EndSplineSet
EndChar

StartChar: exclamdown
Encoding: 161 161 304
Width: 781
Flags: W
LayerCount: 2
Fore
SplineSet
237 -522 m 1,0,-1
 278 692 l 1,1,-1
 502 692 l 1,2,-1
 543 -522 l 1,3,-1
 237 -522 l 1,0,-1
388 830 m 0,4,5
 333 830 333 830 288 857 c 128,-1,6
 243 884 243 884 216 929 c 128,-1,7
 189 974 189 974 189 1030 c 256,8,9
 189 1086 189 1086 216 1131 c 128,-1,10
 243 1176 243 1176 288 1203 c 128,-1,11
 333 1230 333 1230 388 1230 c 0,12,13
 444 1230 444 1230 489 1203 c 128,-1,14
 534 1176 534 1176 561 1131 c 128,-1,15
 588 1086 588 1086 588 1030 c 256,16,17
 588 974 588 974 561 929 c 128,-1,18
 534 884 534 884 489 857 c 128,-1,19
 444 830 444 830 388 830 c 0,4,5
EndSplineSet
EndChar

StartChar: question
Encoding: 63 63 305
Width: 1217
Flags: W
LayerCount: 2
Fore
SplineSet
571 -32 m 0,0,1
 516 -32 516 -32 470.5 -5 c 128,-1,2
 425 22 425 22 398.5 67.5 c 128,-1,3
 372 113 372 113 372 168 c 0,4,5
 372 224 372 224 398.5 269.5 c 128,-1,6
 425 315 425 315 470.5 341.5 c 128,-1,7
 516 368 516 368 571 368 c 0,8,9
 627 368 627 368 672.5 341.5 c 128,-1,10
 718 315 718 315 745 269.5 c 128,-1,11
 772 224 772 224 772 168 c 0,12,13
 772 113 772 113 745 67.5 c 128,-1,14
 718 22 718 22 672.5 -5 c 128,-1,15
 627 -32 627 -32 571 -32 c 0,0,1
431 512 m 1,16,-1
 431 968 l 1,17,18
 452 963 452 963 483.5 959 c 128,-1,19
 515 955 515 955 551 955 c 0,20,21
 640 955 640 955 704.5 981.5 c 128,-1,22
 769 1008 769 1008 804 1059 c 128,-1,23
 839 1110 839 1110 839 1183 c 0,24,25
 839 1253 839 1253 807.5 1303.5 c 128,-1,26
 776 1354 776 1354 717 1381 c 128,-1,27
 658 1408 658 1408 576 1408 c 0,28,29
 465 1408 465 1408 393 1353.5 c 128,-1,30
 321 1299 321 1299 305 1198 c 1,31,-1
 51 1251 l 1,32,33
 73 1385 73 1385 148.5 1481 c 128,-1,34
 224 1577 224 1577 336 1628.5 c 128,-1,35
 448 1680 448 1680 582 1680 c 0,36,37
 741 1680 741 1680 864 1612 c 128,-1,38
 987 1544 987 1544 1057.5 1431 c 128,-1,39
 1128 1318 1128 1318 1128 1183 c 0,40,41
 1128 1062 1128 1062 1072.5 958.5 c 128,-1,42
 1017 855 1017 855 923.5 786.5 c 128,-1,43
 830 718 830 718 715 699 c 1,44,-1
 715 512 l 1,45,-1
 431 512 l 1,16,-1
EndSplineSet
EndChar

StartChar: questiondown
Encoding: 191 191 306
Width: 1216
Flags: W
LayerCount: 2
Fore
SplineSet
634 -550 m 0,0,1
 476 -550 476 -550 352.5 -482 c 128,-1,2
 229 -414 229 -414 158.5 -300.5 c 128,-1,3
 88 -187 88 -187 88 -53 c 0,4,5
 88 69 88 69 143.5 172 c 128,-1,6
 199 275 199 275 293 343.5 c 128,-1,7
 387 412 387 412 502 431 c 1,8,-1
 502 618 l 1,9,-1
 786 618 l 1,10,-1
 786 162 l 1,11,12
 764 168 764 168 732.5 171.5 c 128,-1,13
 701 175 701 175 665 175 c 0,14,15
 576 175 576 175 511.5 148.5 c 128,-1,16
 447 122 447 122 412 71.5 c 128,-1,17
 377 21 377 21 377 -53 c 0,18,19
 377 -122 377 -122 409 -173 c 128,-1,20
 441 -224 441 -224 500 -251 c 128,-1,21
 559 -278 559 -278 640 -278 c 0,22,23
 751 -278 751 -278 823 -223.5 c 128,-1,24
 895 -169 895 -169 911 -68 c 1,25,-1
 1165 -121 l 1,26,27
 1143 -254 1143 -254 1067.5 -350.5 c 128,-1,28
 992 -447 992 -447 880 -498.5 c 128,-1,29
 768 -550 768 -550 634 -550 c 0,0,1
645 762 m 0,30,31
 589 762 589 762 543.5 789 c 128,-1,32
 498 816 498 816 471.5 861 c 128,-1,33
 445 906 445 906 445 962 c 256,34,35
 445 1018 445 1018 471.5 1063 c 128,-1,36
 498 1108 498 1108 543.5 1135 c 128,-1,37
 589 1162 589 1162 645 1162 c 0,38,39
 700 1162 700 1162 745.5 1135 c 128,-1,40
 791 1108 791 1108 818 1063 c 128,-1,41
 845 1018 845 1018 845 962 c 256,42,43
 845 906 845 906 818 861 c 128,-1,44
 791 816 791 816 745.5 789 c 128,-1,45
 700 762 700 762 645 762 c 0,30,31
EndSplineSet
EndChar

StartChar: periodcentered
Encoding: 183 183 307
Width: 816
Flags: W
LayerCount: 2
Fore
SplineSet
407 339 m 256,0,1
 351 339 351 339 306 366 c 128,-1,2
 261 393 261 393 234 438.5 c 128,-1,3
 207 484 207 484 207 540 c 0,4,5
 207 595 207 595 233.5 640.5 c 128,-1,6
 260 686 260 686 306 712.5 c 128,-1,7
 352 739 352 739 407 739 c 0,8,9
 463 739 463 739 508 712.5 c 128,-1,10
 553 686 553 686 580 640.5 c 128,-1,11
 607 595 607 595 607 540 c 0,12,13
 607 484 607 484 580 438.5 c 128,-1,14
 553 393 553 393 508 366 c 128,-1,15
 463 339 463 339 407 339 c 256,0,1
EndSplineSet
EndChar

StartChar: bullet
Encoding: 8226 8226 308
Width: 1028
Flags: W
LayerCount: 2
Fore
SplineSet
513 377 m 256,0,1
 419 377 419 377 342 422 c 128,-1,2
 265 467 265 467 220 543.5 c 128,-1,3
 175 620 175 620 175 714 c 256,4,5
 175 808 175 808 220 884.5 c 128,-1,6
 265 961 265 961 342 1006 c 128,-1,7
 419 1051 419 1051 513 1051 c 256,8,9
 607 1051 607 1051 683.5 1006 c 128,-1,10
 760 961 760 961 805 884.5 c 128,-1,11
 850 808 850 808 850 714 c 256,12,13
 850 620 850 620 805 543.5 c 128,-1,14
 760 467 760 467 683.5 422 c 128,-1,15
 607 377 607 377 513 377 c 256,0,1
EndSplineSet
EndChar

StartChar: asterisk
Encoding: 42 42 309
Width: 992
Flags: W
LayerCount: 2
Fore
SplineSet
362 1086 m 1,0,-1
 247 1165 l 1,1,-1
 373 1351 l 1,2,-1
 159 1427 l 1,3,-1
 203 1565 l 1,4,-1
 418 1498 l 1,5,-1
 418 1720 l 1,6,-1
 571 1720 l 1,7,-1
 571 1498 l 1,8,-1
 787 1565 l 1,9,-1
 831 1427 l 1,10,-1
 617 1351 l 1,11,-1
 743 1165 l 1,12,-1
 628 1086 l 1,13,-1
 494 1260 l 1,14,-1
 362 1086 l 1,0,-1
EndSplineSet
EndChar

StartChar: numbersign
Encoding: 35 35 310
Width: 1563
Flags: W
LayerCount: 2
Fore
SplineSet
295 0 m 1,0,-1
 348 434 l 1,1,-1
 151 434 l 1,2,-1
 151 643 l 1,3,-1
 373 643 l 1,4,-1
 414 961 l 1,5,-1
 151 961 l 1,6,-1
 151 1171 l 1,7,-1
 439 1171 l 1,8,-1
 493 1604 l 1,9,-1
 703 1604 l 1,10,-1
 647 1171 l 1,11,-1
 1004 1171 l 1,12,-1
 1057 1604 l 1,13,-1
 1267 1604 l 1,14,-1
 1212 1171 l 1,15,-1
 1412 1171 l 1,16,-1
 1412 961 l 1,17,-1
 1188 961 l 1,18,-1
 1146 643 l 1,19,-1
 1412 643 l 1,20,-1
 1412 434 l 1,21,-1
 1120 434 l 1,22,-1
 1068 0 l 1,23,-1
 860 0 l 1,24,-1
 912 434 l 1,25,-1
 556 434 l 1,26,-1
 503 0 l 1,27,-1
 295 0 l 1,0,-1
582 643 m 1,28,-1
 938 643 l 1,29,-1
 979 961 l 1,30,-1
 623 961 l 1,31,-1
 582 643 l 1,28,-1
EndSplineSet
EndChar

StartChar: slash
Encoding: 47 47 311
Width: 1014
Flags: W
LayerCount: 2
Fore
SplineSet
-36 -240 m 1,0,-1
 788 1720 l 1,1,-1
 1050 1720 l 1,2,-1
 226 -240 l 1,3,-1
 -36 -240 l 1,0,-1
EndSplineSet
Substitution2: "'frac' Diagonal Fractions in Latin lookup 10 subtable" fraction
Substitution2: "'aalt' Access All Alternates in Latin lookup 0 subtable" fraction
EndChar

StartChar: backslash
Encoding: 92 92 312
Width: 1014
Flags: W
LayerCount: 2
Fore
SplineSet
788 0 m 1,0,-1
 -36 1720 l 1,1,-1
 226 1720 l 1,2,-1
 1050 0 l 1,3,-1
 788 0 l 1,0,-1
EndSplineSet
EndChar

StartChar: parenleft
Encoding: 40 40 313
Width: 737
Flags: W
LayerCount: 2
Fore
SplineSet
470 -520 m 1,0,1
 412 -444 412 -444 350 -330 c 128,-1,2
 288 -216 288 -216 234.5 -70.5 c 128,-1,3
 181 75 181 75 148 248 c 128,-1,4
 115 421 115 421 115 614 c 0,5,6
 115 808 115 808 148.5 981.5 c 128,-1,7
 182 1155 182 1155 235 1301 c 128,-1,8
 288 1447 288 1447 350.5 1561 c 128,-1,9
 413 1675 413 1675 470 1750 c 1,10,-1
 668 1665 l 1,11,12
 612 1583 612 1583 548.5 1433 c 128,-1,13
 485 1283 485 1283 441.5 1076 c 128,-1,14
 398 869 398 869 398 615 c 0,15,16
 398 377 398 377 438.5 174 c 128,-1,17
 479 -29 479 -29 541.5 -184 c 128,-1,18
 604 -339 604 -339 668 -435 c 1,19,-1
 470 -520 l 1,0,1
EndSplineSet
EndChar

StartChar: parenright
Encoding: 41 41 314
Width: 736
Flags: W
LayerCount: 2
Fore
SplineSet
267 -520 m 1,0,-1
 68 -435 l 1,1,2
 153 -310 153 -310 213 -142.5 c 128,-1,3
 273 25 273 25 305 218 c 128,-1,4
 337 411 337 411 337 614 c 0,5,6
 337 814 337 814 306 1006.5 c 128,-1,7
 275 1199 275 1199 215 1368 c 128,-1,8
 155 1537 155 1537 68 1665 c 1,9,-1
 267 1750 l 1,10,11
 438 1520 438 1520 528.5 1224 c 128,-1,12
 619 928 619 928 619 614 c 0,13,14
 619 309 619 309 531 13 c 128,-1,15
 443 -283 443 -283 267 -520 c 1,0,-1
EndSplineSet
EndChar

StartChar: braceleft
Encoding: 123 123 315
Width: 788
Flags: W
LayerCount: 2
Fore
SplineSet
538 -520 m 2,0,1
 442 -520 442 -520 380 -487.5 c 128,-1,2
 318 -455 318 -455 283 -401.5 c 128,-1,3
 248 -348 248 -348 234 -284 c 128,-1,4
 220 -220 220 -220 220 -158 c 2,5,-1
 220 395 l 2,6,7
 220 461 220 461 185.5 489.5 c 128,-1,8
 151 518 151 518 91 518 c 1,9,-1
 91 682 l 1,10,11
 151 682 151 682 185.5 711 c 128,-1,12
 220 740 220 740 220 805 c 2,13,-1
 220 1358 l 2,14,15
 220 1420 220 1420 234 1484 c 128,-1,16
 248 1548 248 1548 283 1601.5 c 128,-1,17
 318 1655 318 1655 380 1687.5 c 128,-1,18
 442 1720 442 1720 538 1720 c 2,19,-1
 704 1720 l 1,20,-1
 704 1497 l 1,21,-1
 632 1497 l 2,22,23
 566 1497 566 1497 525.5 1452 c 128,-1,24
 485 1407 485 1407 485 1333 c 2,25,-1
 485 792 l 2,26,27
 485 715 485 715 454 669.5 c 128,-1,28
 423 624 423 624 378 600 c 1,29,30
 423 576 423 576 454 529.5 c 128,-1,31
 485 483 485 483 485 408 c 2,32,-1
 485 -133 l 2,33,34
 485 -207 485 -207 525.5 -252 c 128,-1,35
 566 -297 566 -297 632 -297 c 2,36,-1
 704 -297 l 1,37,-1
 704 -520 l 1,38,-1
 538 -520 l 2,0,1
EndSplineSet
EndChar

StartChar: braceright
Encoding: 125 125 316
Width: 788
Flags: W
LayerCount: 2
Fore
SplineSet
84 -520 m 1,0,-1
 84 -297 l 1,1,-1
 156 -297 l 2,2,3
 222 -297 222 -297 262.5 -252 c 128,-1,4
 303 -207 303 -207 303 -133 c 2,5,-1
 303 408 l 2,6,7
 303 483 303 483 334.5 529.5 c 128,-1,8
 366 576 366 576 411 600 c 1,9,10
 366 624 366 624 334.5 669.5 c 128,-1,11
 303 715 303 715 303 792 c 2,12,-1
 303 1333 l 2,13,14
 303 1407 303 1407 262.5 1452 c 128,-1,15
 222 1497 222 1497 156 1497 c 2,16,-1
 84 1497 l 1,17,-1
 84 1720 l 1,18,-1
 251 1720 l 2,19,20
 347 1720 347 1720 409 1687.5 c 128,-1,21
 471 1655 471 1655 506 1601.5 c 128,-1,22
 541 1548 541 1548 555 1484 c 128,-1,23
 569 1420 569 1420 569 1358 c 2,24,-1
 569 805 l 2,25,26
 569 740 569 740 603.5 711 c 128,-1,27
 638 682 638 682 698 682 c 1,28,-1
 698 518 l 1,29,30
 638 518 638 518 603.5 489.5 c 128,-1,31
 569 461 569 461 569 395 c 2,32,-1
 569 -158 l 2,33,34
 569 -220 569 -220 555 -284 c 128,-1,35
 541 -348 541 -348 506 -401.5 c 128,-1,36
 471 -455 471 -455 409 -487.5 c 128,-1,37
 347 -520 347 -520 251 -520 c 2,38,-1
 84 -520 l 1,0,-1
EndSplineSet
EndChar

StartChar: bracketleft
Encoding: 91 91 317
Width: 850
Flags: W
LayerCount: 2
Fore
SplineSet
216 -520 m 1,0,-1
 216 1720 l 1,1,-1
 808 1720 l 1,2,-1
 808 1515 l 1,3,-1
 482 1515 l 1,4,-1
 482 -315 l 1,5,-1
 808 -315 l 1,6,-1
 808 -520 l 1,7,-1
 216 -520 l 1,0,-1
EndSplineSet
EndChar

StartChar: bracketright
Encoding: 93 93 318
Width: 850
Flags: W
LayerCount: 2
Fore
SplineSet
42 -520 m 1,0,-1
 42 -315 l 1,1,-1
 369 -315 l 1,2,-1
 369 1515 l 1,3,-1
 42 1515 l 1,4,-1
 42 1720 l 1,5,-1
 634 1720 l 1,6,-1
 634 -520 l 1,7,-1
 42 -520 l 1,0,-1
EndSplineSet
EndChar

StartChar: hyphen
Encoding: 45 45 319
Width: 1005
Flags: W
LayerCount: 2
Fore
SplineSet
181 447 m 1,0,-1
 181 711 l 1,1,-1
 825 711 l 1,2,-1
 825 447 l 1,3,-1
 181 447 l 1,0,-1
EndSplineSet
EndChar

StartChar: uni00AD
Encoding: 173 173 320
Width: 1005
Flags: W
LayerCount: 2
Fore
SplineSet
181 447 m 1,0,-1
 181 711 l 1,1,-1
 825 711 l 1,2,-1
 825 447 l 1,3,-1
 181 447 l 1,0,-1
EndSplineSet
EndChar

StartChar: endash
Encoding: 8211 8211 321
Width: 1391
Flags: W
LayerCount: 2
Fore
SplineSet
181 447 m 1,0,-1
 181 711 l 1,1,-1
 1211 711 l 1,2,-1
 1211 447 l 1,3,-1
 181 447 l 1,0,-1
EndSplineSet
EndChar

StartChar: emdash
Encoding: 8212 8212 322
Width: 2414
Flags: W
LayerCount: 2
Fore
SplineSet
181 447 m 1,0,-1
 181 711 l 1,1,-1
 2233 711 l 1,2,-1
 2233 447 l 1,3,-1
 181 447 l 1,0,-1
EndSplineSet
EndChar

StartChar: underscore
Encoding: 95 95 323
Width: 1387
Flags: W
LayerCount: 2
Fore
SplineSet
181 -202 m 1,0,-1
 181 -53 l 1,1,-1
 1207 -53 l 1,2,-1
 1207 -202 l 1,3,-1
 181 -202 l 1,0,-1
EndSplineSet
EndChar

StartChar: quotesinglbase
Encoding: 8218 8218 324
Width: 756
Flags: W
LayerCount: 2
Fore
SplineSet
248 -299 m 1,0,-1
 169 -234 l 1,1,2
 193 -211 193 -211 219 -170 c 128,-1,3
 245 -129 245 -129 264.5 -81.5 c 128,-1,4
 284 -34 284 -34 290 4 c 1,5,6
 226 20 226 20 189 65.5 c 128,-1,7
 152 111 152 111 152 176 c 0,8,9
 152 255 152 255 203 304 c 128,-1,10
 254 353 254 353 336 353 c 0,11,12
 419 353 419 353 469 301 c 128,-1,13
 519 249 519 249 519 157 c 0,14,15
 519 47 519 47 447 -74.5 c 128,-1,16
 375 -196 375 -196 248 -299 c 1,0,-1
EndSplineSet
EndChar

StartChar: quotedblbase
Encoding: 8222 8222 325
Width: 1105
Flags: W
LayerCount: 2
Fore
SplineSet
248 -299 m 1,0,-1
 170 -234 l 1,1,2
 194 -211 194 -211 219.5 -170 c 128,-1,3
 245 -129 245 -129 265 -81.5 c 128,-1,4
 285 -34 285 -34 290 4 c 1,5,6
 227 20 227 20 189.5 65.5 c 128,-1,7
 152 111 152 111 152 176 c 0,8,9
 152 255 152 255 203.5 304 c 128,-1,10
 255 353 255 353 337 353 c 0,11,12
 420 353 420 353 469.5 301 c 128,-1,13
 519 249 519 249 519 157 c 0,14,15
 519 47 519 47 447 -74.5 c 128,-1,16
 375 -196 375 -196 248 -299 c 1,0,-1
699 -299 m 1,17,-1
 620 -234 l 1,18,19
 644 -211 644 -211 670 -170 c 128,-1,20
 696 -129 696 -129 715.5 -81.5 c 128,-1,21
 735 -34 735 -34 741 4 c 1,22,23
 677 20 677 20 640 65.5 c 128,-1,24
 603 111 603 111 603 176 c 0,25,26
 603 255 603 255 654 304 c 128,-1,27
 705 353 705 353 787 353 c 0,28,29
 870 353 870 353 920 301 c 128,-1,30
 970 249 970 249 970 157 c 0,31,32
 970 47 970 47 898 -74.5 c 128,-1,33
 826 -196 826 -196 699 -299 c 1,17,-1
EndSplineSet
EndChar

StartChar: quotedblleft
Encoding: 8220 8220 326
Width: 1114
Flags: W
LayerCount: 2
Fore
SplineSet
770 1027 m 0,0,1
 687 1027 687 1027 637 1079.5 c 128,-1,2
 587 1132 587 1132 587 1223 c 0,3,4
 587 1333 587 1333 659.5 1454.5 c 128,-1,5
 732 1576 732 1576 858 1680 c 1,6,-1
 936 1614 l 1,7,8
 912 1592 912 1592 886.5 1550.5 c 128,-1,9
 861 1509 861 1509 841.5 1462.5 c 128,-1,10
 822 1416 822 1416 816 1376 c 1,11,12
 880 1361 880 1361 917 1315 c 128,-1,13
 954 1269 954 1269 954 1205 c 0,14,15
 954 1127 954 1127 903 1077 c 128,-1,16
 852 1027 852 1027 770 1027 c 0,0,1
319 1027 m 0,17,18
 236 1027 236 1027 186.5 1079.5 c 128,-1,19
 137 1132 137 1132 137 1223 c 0,20,21
 137 1333 137 1333 209 1454.5 c 128,-1,22
 281 1576 281 1576 407 1680 c 1,23,-1
 486 1614 l 1,24,25
 462 1592 462 1592 436.5 1550.5 c 128,-1,26
 411 1509 411 1509 391.5 1462.5 c 128,-1,27
 372 1416 372 1416 366 1376 c 1,28,29
 430 1361 430 1361 467 1315 c 128,-1,30
 504 1269 504 1269 504 1205 c 0,31,32
 504 1127 504 1127 452.5 1077 c 128,-1,33
 401 1027 401 1027 319 1027 c 0,17,18
EndSplineSet
EndChar

StartChar: quotedblright
Encoding: 8221 8221 327
Width: 1110
Flags: W
LayerCount: 2
Fore
SplineSet
704 1028 m 1,0,-1
 625 1093 l 1,1,2
 649 1115 649 1115 674.5 1156.5 c 128,-1,3
 700 1198 700 1198 720 1245 c 128,-1,4
 740 1292 740 1292 745 1331 c 1,5,6
 682 1347 682 1347 645 1392.5 c 128,-1,7
 608 1438 608 1438 608 1502 c 0,8,9
 608 1581 608 1581 659 1630.5 c 128,-1,10
 710 1680 710 1680 792 1680 c 0,11,12
 875 1680 875 1680 924.5 1627.5 c 128,-1,13
 974 1575 974 1575 974 1484 c 0,14,15
 974 1374 974 1374 902 1252.5 c 128,-1,16
 830 1131 830 1131 704 1028 c 1,0,-1
253 1028 m 1,17,-1
 175 1093 l 1,18,19
 199 1115 199 1115 224.5 1156.5 c 128,-1,20
 250 1198 250 1198 269.5 1245 c 128,-1,21
 289 1292 289 1292 295 1331 c 1,22,23
 232 1347 232 1347 194.5 1392.5 c 128,-1,24
 157 1438 157 1438 157 1502 c 0,25,26
 157 1581 157 1581 208 1630.5 c 128,-1,27
 259 1680 259 1680 341 1680 c 0,28,29
 424 1680 424 1680 474 1627.5 c 128,-1,30
 524 1575 524 1575 524 1484 c 0,31,32
 524 1374 524 1374 452 1252.5 c 128,-1,33
 380 1131 380 1131 253 1028 c 1,17,-1
EndSplineSet
EndChar

StartChar: quoteleft
Encoding: 8216 8216 328
Width: 662
Flags: W
LayerCount: 2
Fore
SplineSet
320 1027 m 0,0,1
 237 1027 237 1027 187 1079.5 c 128,-1,2
 137 1132 137 1132 137 1223 c 0,3,4
 137 1333 137 1333 209.5 1454.5 c 128,-1,5
 282 1576 282 1576 408 1680 c 1,6,-1
 487 1614 l 1,7,8
 462 1592 462 1592 436.5 1550.5 c 128,-1,9
 411 1509 411 1509 391.5 1462.5 c 128,-1,10
 372 1416 372 1416 366 1376 c 1,11,12
 430 1361 430 1361 467 1315 c 128,-1,13
 504 1269 504 1269 504 1205 c 0,14,15
 504 1127 504 1127 453 1077 c 128,-1,16
 402 1027 402 1027 320 1027 c 0,0,1
EndSplineSet
EndChar

StartChar: quoteright
Encoding: 8217 8217 329
Width: 660
Flags: W
LayerCount: 2
Fore
SplineSet
249 1028 m 1,0,-1
 171 1093 l 1,1,2
 195 1116 195 1116 221 1157.5 c 128,-1,3
 247 1199 247 1199 266.5 1246 c 128,-1,4
 286 1293 286 1293 291 1332 c 1,5,6
 228 1348 228 1348 191 1393.5 c 128,-1,7
 154 1439 154 1439 154 1503 c 0,8,9
 154 1582 154 1582 205 1631.5 c 128,-1,10
 256 1681 256 1681 338 1681 c 0,11,12
 421 1681 421 1681 470.5 1628.5 c 128,-1,13
 520 1576 520 1576 520 1485 c 0,14,15
 520 1375 520 1375 448 1253 c 128,-1,16
 376 1131 376 1131 249 1028 c 1,0,-1
EndSplineSet
EndChar

StartChar: guillemotleft
Encoding: 171 171 330
Width: 1204
Flags: W
LayerCount: 2
Fore
SplineSet
764 58 m 1,0,-1
 374 558 l 1,1,-1
 764 1058 l 1,2,-1
 927 929 l 1,3,-1
 636 558 l 1,4,-1
 927 185 l 1,5,-1
 764 58 l 1,0,-1
643 58 m 1,6,-1
 253 558 l 1,7,-1
 643 1058 l 1,8,-1
 807 929 l 1,9,-1
 516 558 l 1,10,-1
 807 185 l 1,11,-1
 643 58 l 1,6,-1
EndSplineSet
EndChar

StartChar: guillemotright
Encoding: 187 187 331
Width: 1197
Flags: W
LayerCount: 2
Fore
SplineSet
264 58 m 1,0,-1
 100 185 l 1,1,-1
 391 558 l 1,2,-1
 100 929 l 1,3,-1
 264 1058 l 1,4,-1
 654 558 l 1,5,-1
 264 58 l 1,0,-1
727 58 m 1,6,-1
 565 185 l 1,7,-1
 855 558 l 1,8,-1
 565 929 l 1,9,-1
 727 1058 l 1,10,-1
 1117 558 l 1,11,-1
 727 58 l 1,6,-1
EndSplineSet
EndChar

StartChar: guilsinglleft
Encoding: 8249 8249 332
Width: 736
Flags: W
LayerCount: 2
Fore
SplineSet
469 58 m 1,0,-1
 79 558 l 1,1,-1
 469 1058 l 1,2,-1
 632 929 l 1,3,-1
 341 558 l 1,4,-1
 632 185 l 1,5,-1
 469 58 l 1,0,-1
EndSplineSet
EndChar

StartChar: guilsinglright
Encoding: 8250 8250 333
Width: 733
Flags: W
LayerCount: 2
Fore
SplineSet
264 58 m 1,0,-1
 100 185 l 1,1,-1
 391 558 l 1,2,-1
 100 929 l 1,3,-1
 264 1058 l 1,4,-1
 654 558 l 1,5,-1
 264 58 l 1,0,-1
EndSplineSet
EndChar

StartChar: quotedbl
Encoding: 34 34 334
Width: 1069
Flags: W
LayerCount: 2
Fore
SplineSet
640 1018 m 1,0,-1
 585 1675 l 1,1,-1
 881 1675 l 1,2,-1
 825 1018 l 1,3,-1
 640 1018 l 1,0,-1
244 1018 m 1,4,-1
 189 1675 l 1,5,-1
 485 1675 l 1,6,-1
 429 1018 l 1,7,-1
 244 1018 l 1,4,-1
EndSplineSet
EndChar

StartChar: quotesingle
Encoding: 39 39 335
Width: 673
Flags: W
LayerCount: 2
Fore
SplineSet
244 1018 m 1,0,-1
 189 1675 l 1,1,-1
 485 1675 l 1,2,-1
 429 1018 l 1,3,-1
 244 1018 l 1,0,-1
EndSplineSet
EndChar

StartChar: cent
Encoding: 162 162 339
Width: 1207
Flags: W
LayerCount: 2
Fore
SplineSet
601 -258 m 1,0,-1
 601 -19 l 1,1,2
 468 5 468 5 363.5 81.5 c 128,-1,3
 259 158 259 158 199 270.5 c 128,-1,4
 139 383 139 383 139 512 c 0,5,6
 139 631 139 631 190 736 c 128,-1,7
 241 841 241 841 332 917.5 c 128,-1,8
 423 994 423 994 543 1028 c 1,9,-1
 543 1272 l 1,10,-1
 730 1272 l 1,11,-1
 730 1054 l 1,12,13
 826 1051 826 1051 908 1025.5 c 128,-1,14
 990 1000 990 1000 1049 955 c 1,15,-1
 948 748 l 1,16,17
 911 777 911 777 858 792.5 c 128,-1,18
 805 808 805 808 748 808 c 0,19,20
 661 808 661 808 596.5 771 c 128,-1,21
 532 734 532 734 496.5 668 c 128,-1,22
 461 602 461 602 461 515 c 0,23,24
 461 426 461 426 497.5 359 c 128,-1,25
 534 292 534 292 599.5 254 c 128,-1,26
 665 216 665 216 749 216 c 0,27,28
 804 216 804 216 858 232 c 128,-1,29
 912 248 912 248 948 276 c 1,30,-1
 1049 68 l 1,31,32
 999 31 999 31 930.5 6.5 c 128,-1,33
 862 -18 862 -18 789 -26 c 1,34,-1
 789 -258 l 1,35,-1
 601 -258 l 1,0,-1
EndSplineSet
EndChar

StartChar: currency
Encoding: 164 164 340
Width: 1234
Flags: W
LayerCount: 2
Fore
SplineSet
203 97 m 1,0,-1
 96 204 l 1,1,-1
 236 343 l 1,2,3
 196 401 196 401 172.5 470.5 c 128,-1,4
 149 540 149 540 149 619 c 256,5,6
 149 698 149 698 172.5 768 c 128,-1,7
 196 838 196 838 236 895 c 1,8,-1
 96 1034 l 1,9,-1
 203 1141 l 1,10,-1
 341 1002 l 1,11,12
 399 1044 399 1044 469 1067 c 128,-1,13
 539 1090 539 1090 618 1090 c 0,14,15
 696 1090 696 1090 766.5 1067 c 128,-1,16
 837 1044 837 1044 894 1002 c 1,17,-1
 1033 1141 l 1,18,-1
 1138 1034 l 1,19,-1
 999 895 l 1,20,21
 1040 838 1040 838 1063 768 c 128,-1,22
 1086 698 1086 698 1086 619 c 256,23,24
 1086 540 1086 540 1063 470 c 128,-1,25
 1040 400 1040 400 999 342 c 1,26,-1
 1138 204 l 1,27,-1
 1033 97 l 1,28,-1
 894 236 l 1,29,30
 837 194 837 194 766.5 171 c 128,-1,31
 696 148 696 148 618 148 c 0,32,33
 539 148 539 148 469 171 c 128,-1,34
 399 194 399 194 341 237 c 1,35,-1
 203 97 l 1,0,-1
618 405 m 0,36,37
 680 405 680 405 728.5 432.5 c 128,-1,38
 777 460 777 460 806 508.5 c 128,-1,39
 835 557 835 557 835 619 c 0,40,41
 835 682 835 682 806 730.5 c 128,-1,42
 777 779 777 779 728.5 806 c 128,-1,43
 680 833 680 833 618 833 c 0,44,45
 555 833 555 833 506.5 806 c 128,-1,46
 458 779 458 779 429.5 730.5 c 128,-1,47
 401 682 401 682 401 619 c 0,48,49
 401 557 401 557 429.5 508.5 c 128,-1,50
 458 460 458 460 506.5 432.5 c 128,-1,51
 555 405 555 405 618 405 c 0,36,37
EndSplineSet
EndChar

StartChar: dollar
Encoding: 36 36 341
Width: 1438
Flags: W
LayerCount: 2
Fore
SplineSet
655 -276 m 1,0,-1
 655 -30 l 1,1,2
 574 -27 574 -27 492 -8 c 128,-1,3
 410 11 410 11 335 44 c 128,-1,4
 260 77 260 77 198 119 c 128,-1,5
 136 161 136 161 95 210 c 1,6,-1
 261 477 l 1,7,8
 321 414 321 414 397 367.5 c 128,-1,9
 473 321 473 321 555 295 c 128,-1,10
 637 269 637 269 712 269 c 0,11,12
 784 269 784 269 836.5 292.5 c 128,-1,13
 889 316 889 316 918 359 c 128,-1,14
 947 402 947 402 947 461 c 0,15,16
 947 519 947 519 920 561.5 c 128,-1,17
 893 604 893 604 842.5 639 c 128,-1,18
 792 674 792 674 723 707 c 128,-1,19
 654 740 654 740 569 778 c 0,20,21
 470 822 470 822 394 880 c 128,-1,22
 318 938 318 938 275.5 1015.5 c 128,-1,23
 233 1093 233 1093 233 1194 c 0,24,25
 233 1303 233 1303 284 1402.5 c 128,-1,26
 335 1502 335 1502 429.5 1574 c 128,-1,27
 524 1646 524 1646 655 1669 c 1,28,-1
 655 1926 l 1,29,-1
 844 1926 l 1,30,-1
 844 1675 l 1,31,32
 956 1664 956 1664 1065 1618 c 128,-1,33
 1174 1572 1174 1572 1244 1509 c 1,34,-1
 1108 1254 l 1,35,36
 1043 1313 1043 1313 951 1349.5 c 128,-1,37
 859 1386 859 1386 769 1386 c 0,38,39
 703 1386 703 1386 653 1363.5 c 128,-1,40
 603 1341 603 1341 576 1301.5 c 128,-1,41
 549 1262 549 1262 549 1211 c 0,42,43
 549 1152 549 1152 584 1113.5 c 128,-1,44
 619 1075 619 1075 675 1048 c 128,-1,45
 731 1021 731 1021 792 997 c 0,46,47
 918 946 918 946 1013.5 893.5 c 128,-1,48
 1109 841 1109 841 1172.5 780.5 c 128,-1,49
 1236 720 1236 720 1268 644.5 c 128,-1,50
 1300 569 1300 569 1300 472 c 0,51,52
 1300 339 1300 339 1244 235 c 128,-1,53
 1188 131 1188 131 1086 65.5 c 128,-1,54
 984 0 984 0 844 -19 c 1,55,-1
 844 -276 l 1,56,-1
 655 -276 l 1,0,-1
EndSplineSet
EndChar

StartChar: Euro
Encoding: 8364 8364 342
Width: 1856
Flags: W
LayerCount: 2
Fore
SplineSet
1180 -32 m 0,0,1
 992 -32 992 -32 822.5 43 c 128,-1,2
 653 118 653 118 525.5 251.5 c 128,-1,3
 398 385 398 385 337 559 c 1,4,-1
 150 559 l 1,5,-1
 150 748 l 1,6,-1
 295 748 l 1,7,8
 293 764 293 764 291 785 c 128,-1,9
 289 806 289 806 289 824 c 256,10,11
 289 842 289 842 291 861.5 c 128,-1,12
 293 881 293 881 295 898 c 1,13,-1
 150 898 l 1,14,-1
 150 1087 l 1,15,-1
 337 1087 l 1,16,17
 382 1218 382 1218 466.5 1326.5 c 128,-1,18
 551 1435 551 1435 663 1514 c 128,-1,19
 775 1593 775 1593 907 1636.5 c 128,-1,20
 1039 1680 1039 1680 1180 1680 c 0,21,22
 1334 1680 1334 1680 1477.5 1639 c 128,-1,23
 1621 1598 1621 1598 1719 1524 c 1,24,-1
 1580 1248 l 1,25,26
 1509 1302 1509 1302 1416.5 1332 c 128,-1,27
 1324 1362 1324 1362 1228 1362 c 0,28,29
 1117 1362 1117 1362 1020.5 1328.5 c 128,-1,30
 924 1295 924 1295 848.5 1233.5 c 128,-1,31
 773 1172 773 1172 723 1087 c 1,32,-1
 1396 1087 l 1,33,-1
 1396 898 l 1,34,-1
 649 898 l 1,35,36
 645 880 645 880 643 861 c 128,-1,37
 641 842 641 842 641 824 c 256,38,39
 641 806 641 806 643 786.5 c 128,-1,40
 645 767 645 767 649 748 c 1,41,-1
 1396 748 l 1,42,-1
 1396 559 l 1,43,-1
 722 559 l 1,44,45
 770 475 770 475 845.5 413.5 c 128,-1,46
 921 352 921 352 1018.5 319.5 c 128,-1,47
 1116 287 1116 287 1228 287 c 0,48,49
 1324 287 1324 287 1417 317 c 128,-1,50
 1510 347 1510 347 1580 400 c 1,51,-1
 1719 124 l 1,52,53
 1622 51 1622 51 1478.5 9.5 c 128,-1,54
 1335 -32 1335 -32 1180 -32 c 0,0,1
EndSplineSet
EndChar

StartChar: florin
Encoding: 402 402 343
Width: 1011
Flags: W
LayerCount: 2
Fore
SplineSet
140 -551 m 0,0,1
 66 -551 66 -551 -3.5 -528.5 c 128,-1,2
 -73 -506 -73 -506 -120 -466 c 1,3,-1
 6 -251 l 1,4,5
 48 -280 48 -280 110 -280 c 0,6,7
 177 -280 177 -280 210.5 -232.5 c 128,-1,8
 244 -185 244 -185 253 -72 c 2,9,-1
 335 791 l 1,10,-1
 198 791 l 1,11,-1
 219 1024 l 1,12,-1
 356 1024 l 1,13,-1
 381 1278 l 2,14,15
 394 1424 394 1424 449 1530 c 128,-1,16
 504 1636 504 1636 593.5 1693 c 128,-1,17
 683 1750 683 1750 800 1750 c 0,18,19
 874 1750 874 1750 943.5 1727.5 c 128,-1,20
 1013 1705 1013 1705 1060 1665 c 1,21,-1
 934 1450 l 1,22,23
 891 1479 891 1479 830 1479 c 0,24,25
 763 1479 763 1479 729.5 1431.5 c 128,-1,26
 696 1384 696 1384 686 1271 c 2,27,-1
 663 1024 l 1,28,-1
 904 1024 l 1,29,-1
 883 791 l 1,30,-1
 642 791 l 1,31,-1
 559 -79 l 2,32,33
 546 -225 546 -225 491 -331 c 128,-1,34
 436 -437 436 -437 346.5 -494 c 128,-1,35
 257 -551 257 -551 140 -551 c 0,0,1
EndSplineSet
EndChar

StartChar: sterling
Encoding: 163 163 344
Width: 1596
Flags: W
LayerCount: 2
Fore
SplineSet
1119 -30 m 0,0,1
 1042 -30 1042 -30 971 -10.5 c 128,-1,2
 900 9 900 9 833.5 34 c 128,-1,3
 767 59 767 59 706 78.5 c 128,-1,4
 645 98 645 98 589 98 c 0,5,6
 551 98 551 98 522 87 c 128,-1,7
 493 76 493 76 476.5 54 c 128,-1,8
 460 32 460 32 457 0 c 1,9,-1
 192 0 l 1,10,11
 190 92 190 92 227.5 166 c 128,-1,12
 265 240 265 240 332 284.5 c 128,-1,13
 399 329 399 329 483 331 c 1,14,15
 497 355 497 355 505 391.5 c 128,-1,16
 513 428 513 428 513 466 c 0,17,18
 513 502 513 502 504 532.5 c 128,-1,19
 495 563 495 563 480 588 c 1,20,-1
 181 588 l 1,21,-1
 181 760 l 1,22,-1
 403 760 l 1,23,24
 353 841 353 841 320.5 936 c 128,-1,25
 288 1031 288 1031 288 1144 c 0,26,27
 288 1309 288 1309 358 1429.5 c 128,-1,28
 428 1550 428 1550 552.5 1616 c 128,-1,29
 677 1682 677 1682 843 1682 c 0,30,31
 989 1682 989 1682 1101.5 1632 c 128,-1,32
 1214 1582 1214 1582 1288 1495 c 128,-1,33
 1362 1408 1362 1408 1392 1294 c 1,34,-1
 1128 1164 l 1,35,36
 1110 1236 1110 1236 1074 1292 c 128,-1,37
 1038 1348 1038 1348 980.5 1380.5 c 128,-1,38
 923 1413 923 1413 838 1413 c 0,39,40
 760 1413 760 1413 705 1383 c 128,-1,41
 650 1353 650 1353 621 1296 c 128,-1,42
 592 1239 592 1239 592 1156 c 0,43,44
 592 1097 592 1097 606.5 1033 c 128,-1,45
 621 969 621 969 647 901 c 128,-1,46
 673 833 673 833 706 760 c 1,47,-1
 1095 760 l 1,48,-1
 1095 588 l 1,49,-1
 751 588 l 1,50,51
 764 560 764 560 771 529.5 c 128,-1,52
 778 499 778 499 778 464 c 0,53,54
 778 426 778 426 768.5 386 c 128,-1,55
 759 346 759 346 739 304 c 1,56,57
 779 299 779 299 821.5 285 c 128,-1,58
 864 271 864 271 907.5 256.5 c 128,-1,59
 951 242 951 242 993.5 231 c 128,-1,60
 1036 220 1036 220 1076 220 c 0,61,62
 1131 220 1131 220 1167 240 c 128,-1,63
 1203 260 1203 260 1223.5 297.5 c 128,-1,64
 1244 335 1244 335 1251 386 c 1,65,-1
 1490 268 l 1,66,67
 1474 179 1474 179 1424 111.5 c 128,-1,68
 1374 44 1374 44 1296.5 7 c 128,-1,69
 1219 -30 1219 -30 1119 -30 c 0,0,1
EndSplineSet
EndChar

StartChar: yen
Encoding: 165 165 345
Width: 1723
Flags: W
LayerCount: 2
Fore
SplineSet
700 0 m 1,0,-1
 700 243 l 1,1,-1
 282 243 l 1,2,-1
 282 473 l 1,3,-1
 700 473 l 1,4,-1
 700 621 l 1,5,-1
 282 621 l 1,6,-1
 282 851 l 1,7,-1
 621 851 l 1,8,-1
 101 1650 l 1,9,-1
 492 1650 l 1,10,-1
 861 1065 l 1,11,-1
 1232 1650 l 1,12,-1
 1622 1650 l 1,13,-1
 1101 851 l 1,14,-1
 1441 851 l 1,15,-1
 1441 621 l 1,16,-1
 1024 621 l 1,17,-1
 1024 473 l 1,18,-1
 1441 473 l 1,19,-1
 1441 243 l 1,20,-1
 1024 243 l 1,21,-1
 1024 0 l 1,22,-1
 700 0 l 1,0,-1
EndSplineSet
EndChar

StartChar: plus
Encoding: 43 43 346
Width: 1341
Flags: W
LayerCount: 2
Fore
SplineSet
538 316 m 1,0,-1
 538 697 l 1,1,-1
 157 697 l 1,2,-1
 157 962 l 1,3,-1
 538 962 l 1,4,-1
 538 1343 l 1,5,-1
 803 1343 l 1,6,-1
 803 962 l 1,7,-1
 1184 962 l 1,8,-1
 1184 697 l 1,9,-1
 803 697 l 1,10,-1
 803 316 l 1,11,-1
 538 316 l 1,0,-1
EndSplineSet
EndChar

StartChar: minus
Encoding: 8722 8722 347
Width: 1568
Flags: W
LayerCount: 2
Fore
SplineSet
270 697 m 1,0,-1
 270 962 l 1,1,-1
 1297 962 l 1,2,-1
 1297 697 l 1,3,-1
 270 697 l 1,0,-1
EndSplineSet
EndChar

StartChar: multiply
Encoding: 215 215 348
Width: 1294
Flags: W
LayerCount: 2
Fore
SplineSet
327 324 m 1,0,-1
 141 509 l 1,1,-1
 462 830 l 1,2,-1
 141 1151 l 1,3,-1
 327 1335 l 1,4,-1
 647 1016 l 1,5,-1
 967 1335 l 1,6,-1
 1152 1151 l 1,7,-1
 832 830 l 1,8,-1
 1152 509 l 1,9,-1
 966 324 l 1,10,-1
 647 643 l 1,11,-1
 327 324 l 1,0,-1
EndSplineSet
EndChar

StartChar: divide
Encoding: 247 247 349
Width: 1298
Flags: W
LayerCount: 2
Fore
SplineSet
127 697 m 1,0,-1
 127 963 l 1,1,-1
 1154 963 l 1,2,-1
 1154 697 l 1,3,-1
 127 697 l 1,0,-1
640 227 m 0,4,5
 583 227 583 227 541 269.5 c 128,-1,6
 499 312 499 312 499 373 c 256,7,8
 499 434 499 434 541 476.5 c 128,-1,9
 583 519 583 519 640 519 c 0,10,11
 699 519 699 519 740.5 476.5 c 128,-1,12
 782 434 782 434 782 373 c 256,13,14
 782 312 782 312 740.5 269.5 c 128,-1,15
 699 227 699 227 640 227 c 0,4,5
640 1142 m 0,16,17
 583 1142 583 1142 541 1184 c 128,-1,18
 499 1226 499 1226 499 1287 c 0,19,20
 499 1349 499 1349 541 1391 c 128,-1,21
 583 1433 583 1433 640 1433 c 0,22,23
 699 1433 699 1433 740.5 1391 c 128,-1,24
 782 1349 782 1349 782 1287 c 0,25,26
 782 1226 782 1226 740.5 1184 c 128,-1,27
 699 1142 699 1142 640 1142 c 0,16,17
EndSplineSet
EndChar

StartChar: equal
Encoding: 61 61 350
Width: 1568
Flags: W
LayerCount: 2
Fore
SplineSet
270 930 m 1,0,-1
 270 1195 l 1,1,-1
 1297 1195 l 1,2,-1
 1297 930 l 1,3,-1
 270 930 l 1,0,-1
270 466 m 1,4,-1
 270 731 l 1,5,-1
 1297 731 l 1,6,-1
 1297 466 l 1,7,-1
 270 466 l 1,4,-1
EndSplineSet
EndChar

StartChar: notequal
Encoding: 8800 8800 351
Width: 1459
Flags: W
LayerCount: 2
Fore
SplineSet
202 167 m 1,0,-1
 373 466 l 1,1,-1
 222 466 l 1,2,-1
 222 731 l 1,3,-1
 528 731 l 1,4,-1
 643 930 l 1,5,-1
 222 930 l 1,6,-1
 222 1195 l 1,7,-1
 798 1195 l 1,8,-1
 965 1483 l 1,9,-1
 1171 1483 l 1,10,-1
 1004 1195 l 1,11,-1
 1249 1195 l 1,12,-1
 1249 930 l 1,13,-1
 848 930 l 1,14,-1
 733 731 l 1,15,-1
 1249 731 l 1,16,-1
 1249 466 l 1,17,-1
 579 466 l 1,18,-1
 407 167 l 1,19,-1
 202 167 l 1,0,-1
EndSplineSet
EndChar

StartChar: greater
Encoding: 62 62 352
Width: 1422
Flags: W
LayerCount: 2
Fore
SplineSet
201 270 m 1,0,-1
 201 517 l 1,1,-1
 968 832 l 1,2,-1
 201 1147 l 1,3,-1
 201 1394 l 1,4,-1
 1294 934 l 1,5,-1
 1294 730 l 1,6,-1
 201 270 l 1,0,-1
EndSplineSet
EndChar

StartChar: less
Encoding: 60 60 353
Width: 1422
Flags: W
LayerCount: 2
Fore
SplineSet
1221 270 m 1,0,-1
 129 730 l 1,1,-1
 129 934 l 1,2,-1
 1221 1394 l 1,3,-1
 1221 1147 l 1,4,-1
 455 832 l 1,5,-1
 1221 517 l 1,6,-1
 1221 270 l 1,0,-1
EndSplineSet
EndChar

StartChar: greaterequal
Encoding: 8805 8805 354
Width: 1474
Flags: W
LayerCount: 2
Fore
SplineSet
218 508 m 1,0,-1
 218 752 l 1,1,-1
 988 1067 l 1,2,-1
 218 1386 l 1,3,-1
 218 1632 l 1,4,-1
 1313 1171 l 1,5,-1
 1313 968 l 1,6,-1
 218 508 l 1,0,-1
218 59 m 1,7,-1
 218 324 l 1,8,-1
 1313 324 l 1,9,-1
 1313 59 l 1,10,-1
 218 59 l 1,7,-1
EndSplineSet
EndChar

StartChar: lessequal
Encoding: 8804 8804 355
Width: 1474
Flags: W
LayerCount: 2
Fore
SplineSet
1256 508 m 1,0,-1
 161 968 l 1,1,-1
 161 1171 l 1,2,-1
 1256 1632 l 1,3,-1
 1256 1386 l 1,4,-1
 487 1067 l 1,5,-1
 1256 752 l 1,6,-1
 1256 508 l 1,0,-1
161 59 m 1,7,-1
 161 324 l 1,8,-1
 1256 324 l 1,9,-1
 1256 59 l 1,10,-1
 161 59 l 1,7,-1
EndSplineSet
EndChar

StartChar: plusminus
Encoding: 177 177 356
Width: 1430
Flags: W
LayerCount: 2
Fore
SplineSet
582 400 m 1,0,-1
 582 738 l 1,1,-1
 202 738 l 1,2,-1
 202 1003 l 1,3,-1
 582 1003 l 1,4,-1
 582 1342 l 1,5,-1
 848 1342 l 1,6,-1
 848 1003 l 1,7,-1
 1228 1003 l 1,8,-1
 1228 738 l 1,9,-1
 848 738 l 1,10,-1
 848 400 l 1,11,-1
 582 400 l 1,0,-1
202 0 m 1,12,-1
 202 266 l 1,13,-1
 1228 266 l 1,14,-1
 1228 0 l 1,15,-1
 202 0 l 1,12,-1
EndSplineSet
EndChar

StartChar: approxequal
Encoding: 8776 8776 357
Width: 1613
Flags: W
LayerCount: 2
Fore
SplineSet
1011 890 m 0,0,1
 957 890 957 890 905.5 915 c 128,-1,2
 854 940 854 940 803.5 971.5 c 128,-1,3
 753 1003 753 1003 703 1028 c 128,-1,4
 653 1053 653 1053 601 1053 c 0,5,6
 531 1053 531 1053 488.5 1006 c 128,-1,7
 446 959 446 959 424 903 c 1,8,-1
 270 1038 l 1,9,10
 322 1142 322 1142 409 1212.5 c 128,-1,11
 496 1283 496 1283 597 1283 c 0,12,13
 660 1283 660 1283 719.5 1258.5 c 128,-1,14
 779 1234 779 1234 834 1202 c 128,-1,15
 889 1170 889 1170 937 1145.5 c 128,-1,16
 985 1121 985 1121 1024 1121 c 0,17,18
 1075 1121 1075 1121 1121.5 1165.5 c 128,-1,19
 1168 1210 1168 1210 1190 1270 c 1,20,-1
 1343 1135 l 1,21,22
 1308 1064 1308 1064 1251 1008.5 c 128,-1,23
 1194 953 1194 953 1130.5 921.5 c 128,-1,24
 1067 890 1067 890 1011 890 c 0,0,1
1011 366 m 0,25,26
 957 366 957 366 905.5 391 c 128,-1,27
 854 416 854 416 803.5 447.5 c 128,-1,28
 753 479 753 479 703 504 c 128,-1,29
 653 529 653 529 601 529 c 0,30,31
 531 529 531 529 488.5 482 c 128,-1,32
 446 435 446 435 424 379 c 1,33,-1
 270 514 l 1,34,35
 322 618 322 618 409 688.5 c 128,-1,36
 496 759 496 759 597 759 c 0,37,38
 660 759 660 759 719.5 734.5 c 128,-1,39
 779 710 779 710 834 678 c 128,-1,40
 889 646 889 646 937 621.5 c 128,-1,41
 985 597 985 597 1024 597 c 0,42,43
 1075 597 1075 597 1121.5 642 c 128,-1,44
 1168 687 1168 687 1190 746 c 1,45,-1
 1343 611 l 1,46,47
 1308 540 1308 540 1251 484.5 c 128,-1,48
 1194 429 1194 429 1130.5 397.5 c 128,-1,49
 1067 366 1067 366 1011 366 c 0,25,26
EndSplineSet
EndChar

StartChar: asciitilde
Encoding: 126 126 358
Width: 1476
Flags: W
LayerCount: 2
Fore
SplineSet
944 622 m 0,0,1
 881 622 881 622 823.5 647.5 c 128,-1,2
 766 673 766 673 712.5 706.5 c 128,-1,3
 659 740 659 740 610 765.5 c 128,-1,4
 561 791 561 791 516 791 c 0,5,6
 459 791 459 791 411.5 747.5 c 128,-1,7
 364 704 364 704 337 635 c 1,8,-1
 176 778 l 1,9,10
 210 847 210 847 266 905.5 c 128,-1,11
 322 964 322 964 391 999.5 c 128,-1,12
 460 1035 460 1035 529 1035 c 0,13,14
 592 1035 592 1035 649.5 1009 c 128,-1,15
 707 983 707 983 760.5 950 c 128,-1,16
 814 917 814 917 862.5 891 c 128,-1,17
 911 865 911 865 956 865 c 0,18,19
 1009 865 1009 865 1057.5 906.5 c 128,-1,20
 1106 948 1106 948 1135 1020 c 1,21,-1
 1297 878 l 1,22,23
 1262 810 1262 810 1206 751.5 c 128,-1,24
 1150 693 1150 693 1082.5 657.5 c 128,-1,25
 1015 622 1015 622 944 622 c 0,0,1
EndSplineSet
EndChar

StartChar: logicalnot
Encoding: 172 172 359
Width: 1341
Flags: W
LayerCount: 2
Fore
SplineSet
918 316 m 1,0,-1
 918 697 l 1,1,-1
 157 697 l 1,2,-1
 157 962 l 1,3,-1
 1184 962 l 1,4,-1
 1184 316 l 1,5,-1
 918 316 l 1,0,-1
EndSplineSet
EndChar

StartChar: asciicircum
Encoding: 94 94 360
Width: 1183
Flags: W
LayerCount: 2
Fore
SplineSet
98 1210 m 1,0,-1
 512 1682 l 1,1,-1
 671 1682 l 1,2,-1
 1085 1210 l 1,3,-1
 808 1210 l 1,4,-1
 591 1464 l 1,5,-1
 375 1210 l 1,6,-1
 98 1210 l 1,0,-1
EndSplineSet
EndChar

StartChar: infinity
Encoding: 8734 8734 361
Width: 2110
Flags: W
LayerCount: 2
Fore
SplineSet
566 61 m 0,0,1
 476 61 476 61 391 96.5 c 128,-1,2
 306 132 306 132 238 197 c 128,-1,3
 170 262 170 262 130 350.5 c 128,-1,4
 90 439 90 439 90 545 c 256,5,6
 90 651 90 651 130 739.5 c 128,-1,7
 170 828 170 828 238 892.5 c 128,-1,8
 306 957 306 957 391 992.5 c 128,-1,9
 476 1028 476 1028 566 1028 c 0,10,11
 659 1028 659 1028 741.5 990 c 128,-1,12
 824 952 824 952 901 885.5 c 128,-1,13
 978 819 978 819 1055 733 c 1,14,15
 1131 819 1131 819 1208 885.5 c 128,-1,16
 1285 952 1285 952 1368 990 c 128,-1,17
 1451 1028 1451 1028 1543 1028 c 0,18,19
 1633 1028 1633 1028 1718 992.5 c 128,-1,20
 1803 957 1803 957 1871 892.5 c 128,-1,21
 1939 828 1939 828 1979 739.5 c 128,-1,22
 2019 651 2019 651 2019 545 c 256,23,24
 2019 439 2019 439 1979 350.5 c 128,-1,25
 1939 262 1939 262 1871 197 c 128,-1,26
 1803 132 1803 132 1718 96.5 c 128,-1,27
 1633 61 1633 61 1543 61 c 0,28,29
 1451 61 1451 61 1368 99 c 128,-1,30
 1285 137 1285 137 1208 204 c 128,-1,31
 1131 271 1131 271 1055 357 c 1,32,33
 978 271 978 271 901 204 c 128,-1,34
 824 137 824 137 741.5 99 c 128,-1,35
 659 61 659 61 566 61 c 0,0,1
605 328 m 0,36,37
 660 328 660 328 707 357.5 c 128,-1,38
 754 387 754 387 800.5 436 c 128,-1,39
 847 485 847 485 898 545 c 1,40,41
 847 605 847 605 801 654 c 128,-1,42
 755 703 755 703 707.5 732 c 128,-1,43
 660 761 660 761 605 761 c 0,44,45
 553 761 553 761 504.5 734 c 128,-1,46
 456 707 456 707 424.5 658 c 128,-1,47
 393 609 393 609 393 545 c 256,48,49
 393 481 393 481 424 432 c 128,-1,50
 455 383 455 383 504 355.5 c 128,-1,51
 553 328 553 328 605 328 c 0,36,37
1504 328 m 0,52,53
 1556 328 1556 328 1604.5 355.5 c 128,-1,54
 1653 383 1653 383 1684 432 c 128,-1,55
 1715 481 1715 481 1715 545 c 0,56,57
 1715 610 1715 610 1684 658.5 c 128,-1,58
 1653 707 1653 707 1604.5 734 c 128,-1,59
 1556 761 1556 761 1504 761 c 0,60,61
 1449 761 1449 761 1401.5 732 c 128,-1,62
 1354 703 1354 703 1308 654 c 128,-1,63
 1262 605 1262 605 1211 545 c 1,64,65
 1262 485 1262 485 1308 436 c 128,-1,66
 1354 387 1354 387 1401.5 357.5 c 128,-1,67
 1449 328 1449 328 1504 328 c 0,52,53
EndSplineSet
EndChar

StartChar: emptyset
Encoding: 8709 8709 362
Width: 1200
Flags: W
LayerCount: 2
Fore
SplineSet
203 97 m 1,0,-1
 96 204 l 1,1,-1
 1033 1141 l 1,2,-1
 1138 1034 l 1,3,-1
 203 97 l 1,0,-1
618 148 m 0,4,5
 485 148 485 148 379 210.5 c 128,-1,6
 273 273 273 273 211 380 c 128,-1,7
 149 487 149 487 149 618 c 0,8,9
 149 751 149 751 211 857.5 c 128,-1,10
 273 964 273 964 379.5 1027 c 128,-1,11
 486 1090 486 1090 619 1090 c 0,12,13
 750 1090 750 1090 856 1028 c 128,-1,14
 962 966 962 966 1024 859.5 c 128,-1,15
 1086 753 1086 753 1086 619 c 256,16,17
 1086 485 1086 485 1023.5 378.5 c 128,-1,18
 961 272 961 272 855 210 c 128,-1,19
 749 148 749 148 618 148 c 0,4,5
618 350 m 256,20,21
 697 350 697 350 758.5 383.5 c 128,-1,22
 820 417 820 417 855.5 478 c 128,-1,23
 891 539 891 539 891 619 c 256,24,25
 891 699 891 699 855.5 760 c 128,-1,26
 820 821 820 821 758.5 855 c 128,-1,27
 697 889 697 889 618 889 c 256,28,29
 539 889 539 889 477 855 c 128,-1,30
 415 821 415 821 379.5 760 c 128,-1,31
 344 699 344 699 344 619 c 256,32,33
 344 539 344 539 379.5 478 c 128,-1,34
 415 417 415 417 477 383.5 c 128,-1,35
 539 350 539 350 618 350 c 256,20,21
EndSplineSet
EndChar

StartChar: integral
Encoding: 8747 8747 363
Width: 1011
Flags: W
LayerCount: 2
Fore
SplineSet
140 -551 m 0,0,1
 66 -551 66 -551 -3.5 -528.5 c 128,-1,2
 -73 -506 -73 -506 -120 -466 c 1,3,-1
 6 -251 l 1,4,5
 48 -280 48 -280 110 -280 c 0,6,7
 176 -280 176 -280 209.5 -232.5 c 128,-1,8
 243 -185 243 -185 253 -72 c 2,9,-1
 381 1278 l 2,10,11
 394 1424 394 1424 449 1530 c 128,-1,12
 504 1636 504 1636 593.5 1693 c 128,-1,13
 683 1750 683 1750 800 1750 c 0,14,15
 874 1750 874 1750 943.5 1727.5 c 128,-1,16
 1013 1705 1013 1705 1060 1665 c 1,17,-1
 934 1450 l 1,18,19
 891 1479 891 1479 829 1479 c 0,20,21
 764 1479 764 1479 730 1431.5 c 128,-1,22
 696 1384 696 1384 686 1271 c 2,23,-1
 559 -79 l 2,24,25
 546 -225 546 -225 491 -331 c 128,-1,26
 436 -437 436 -437 346.5 -494 c 128,-1,27
 257 -551 257 -551 140 -551 c 0,0,1
EndSplineSet
EndChar

StartChar: product
Encoding: 8719 8719 364
Width: 1464
Flags: W
LayerCount: 2
Fore
SplineSet
389 0 m 1,0,-1
 389 1503 l 1,1,-1
 225 1503 l 1,2,-1
 225 1720 l 1,3,-1
 1239 1720 l 1,4,-1
 1239 1503 l 1,5,-1
 1075 1503 l 1,6,-1
 1075 0 l 1,7,-1
 839 0 l 1,8,-1
 839 1503 l 1,9,-1
 625 1503 l 1,10,-1
 625 0 l 1,11,-1
 389 0 l 1,0,-1
EndSplineSet
EndChar

StartChar: summation
Encoding: 8721 8721 365
Width: 1464
Flags: W
LayerCount: 2
Fore
SplineSet
225 0 m 1,0,-1
 560 860 l 1,1,-1
 225 1720 l 1,2,-1
 1239 1720 l 1,3,-1
 1239 1503 l 1,4,-1
 553 1503 l 1,5,-1
 796 860 l 1,6,-1
 553 217 l 1,7,-1
 1239 217 l 1,8,-1
 1239 0 l 1,9,-1
 225 0 l 1,0,-1
EndSplineSet
EndChar

StartChar: radical
Encoding: 8730 8730 366
Width: 1799
Flags: W
LayerCount: 2
Fore
SplineSet
497 -32 m 1,0,-1
 225 609 l 1,1,-1
 462 609 l 1,2,-1
 628 221 l 1,3,-1
 981 1720 l 1,4,-1
 1573 1720 l 1,5,-1
 1573 1503 l 1,6,-1
 1169 1503 l 1,7,-1
 782 -32 l 1,8,-1
 497 -32 l 1,0,-1
EndSplineSet
EndChar

StartChar: partialdiff
Encoding: 8706 8706 367
Width: 1386
Flags: W
LayerCount: 2
Fore
SplineSet
717 -36 m 256,0,1
 583 -36 583 -36 468 7 c 128,-1,2
 353 50 353 50 266 127 c 128,-1,3
 179 204 179 204 130.5 307 c 128,-1,4
 82 410 82 410 82 531 c 0,5,6
 82 644 82 644 125.5 743 c 128,-1,7
 169 842 169 842 245.5 918 c 128,-1,8
 322 994 322 994 424.5 1036.5 c 128,-1,9
 527 1079 527 1079 645 1079 c 0,10,11
 710 1079 710 1079 769 1063 c 128,-1,12
 828 1047 828 1047 874.5 1018 c 128,-1,13
 921 989 921 989 945 951 c 1,14,15
 911 1087 911 1087 836.5 1206.5 c 128,-1,16
 762 1326 762 1326 654 1426 c 128,-1,17
 546 1526 546 1526 412 1603 c 1,18,-1
 546 1828 l 1,19,20
 776 1701 776 1701 947.5 1528 c 128,-1,21
 1119 1355 1119 1355 1214 1138.5 c 128,-1,22
 1309 922 1309 922 1309 666 c 0,23,24
 1309 497 1309 497 1267 366.5 c 128,-1,25
 1225 236 1225 236 1146.5 146 c 128,-1,26
 1068 56 1068 56 959.5 10 c 128,-1,27
 851 -36 851 -36 717 -36 c 256,0,1
689 233 m 0,28,29
 773 233 773 233 835.5 273.5 c 128,-1,30
 898 314 898 314 932.5 379.5 c 128,-1,31
 967 445 967 445 967 520 c 0,32,33
 967 604 967 604 927.5 666.5 c 128,-1,34
 888 729 888 729 823.5 764 c 128,-1,35
 759 799 759 799 683 799 c 0,36,37
 599 799 599 799 536 758.5 c 128,-1,38
 473 718 473 718 438.5 652 c 128,-1,39
 404 586 404 586 404 510 c 0,40,41
 404 426 404 426 443.5 363.5 c 128,-1,42
 483 301 483 301 548 267 c 128,-1,43
 613 233 613 233 689 233 c 0,28,29
EndSplineSet
EndChar

StartChar: uni00B5
Encoding: 181 181 368
Width: 1569
Flags: W
LayerCount: 2
Fore
SplineSet
229 -320 m 1,0,1
 229 -227 229 -227 237.5 -145 c 128,-1,2
 246 -63 246 -63 257 21 c 128,-1,3
 268 105 268 105 276 202.5 c 128,-1,4
 284 300 284 300 284 422 c 2,5,-1
 284 1024 l 1,6,-1
 591 1024 l 1,7,-1
 591 437 l 2,8,9
 591 329 591 329 646.5 268.5 c 128,-1,10
 702 208 702 208 799 208 c 0,11,12
 862 208 862 208 913 237 c 128,-1,13
 964 266 964 266 995.5 316 c 128,-1,14
 1027 366 1027 366 1027 424 c 2,15,-1
 1027 1024 l 1,16,-1
 1334 1024 l 1,17,-1
 1334 0 l 1,18,-1
 1027 0 l 1,19,-1
 1027 114 l 1,20,21
 975 48 975 48 892.5 8 c 128,-1,22
 810 -32 810 -32 724 -32 c 0,23,24
 681 -32 681 -32 646.5 -19 c 128,-1,25
 612 -6 612 -6 590 19 c 1,26,-1
 590 -320 l 1,27,-1
 229 -320 l 1,0,1
EndSplineSet
EndChar

StartChar: percent
Encoding: 37 37 369
Width: 2049
Flags: W
LayerCount: 2
Fore
SplineSet
533 892 m 256,0,1
 409 892 409 892 310 942 c 128,-1,2
 211 992 211 992 153 1081 c 128,-1,3
 95 1170 95 1170 95 1286 c 256,4,5
 95 1402 95 1402 153.5 1491 c 128,-1,6
 212 1580 212 1580 311 1630 c 128,-1,7
 410 1680 410 1680 533 1680 c 0,8,9
 657 1680 657 1680 756 1630 c 128,-1,10
 855 1580 855 1580 913 1491 c 128,-1,11
 971 1402 971 1402 971 1286 c 256,12,13
 971 1170 971 1170 913 1081 c 128,-1,14
 855 992 855 992 756 942 c 128,-1,15
 657 892 657 892 533 892 c 256,0,1
441 0 m 1,16,-1
 1401 1650 l 1,17,-1
 1610 1650 l 1,18,-1
 650 0 l 1,19,-1
 441 0 l 1,16,-1
533 1078 m 256,20,21
 591 1078 591 1078 638.5 1104.5 c 128,-1,22
 686 1131 686 1131 714.5 1178 c 128,-1,23
 743 1225 743 1225 743 1286 c 256,24,25
 743 1347 743 1347 714.5 1394 c 128,-1,26
 686 1441 686 1441 639 1467.5 c 128,-1,27
 592 1494 592 1494 533 1494 c 0,28,29
 475 1494 475 1494 427.5 1467.5 c 128,-1,30
 380 1441 380 1441 352 1394 c 128,-1,31
 324 1347 324 1347 324 1286 c 256,32,33
 324 1225 324 1225 352 1178 c 128,-1,34
 380 1131 380 1131 427.5 1104.5 c 128,-1,35
 475 1078 475 1078 533 1078 c 256,20,21
1515 -30 m 0,36,37
 1392 -30 1392 -30 1292.5 20 c 128,-1,38
 1193 70 1193 70 1135 159 c 128,-1,39
 1077 248 1077 248 1077 364 c 256,40,41
 1077 480 1077 480 1135 569 c 128,-1,42
 1193 658 1193 658 1292.5 708 c 128,-1,43
 1392 758 1392 758 1515 758 c 0,44,45
 1639 758 1639 758 1738 708 c 128,-1,46
 1837 658 1837 658 1895 569 c 128,-1,47
 1953 480 1953 480 1953 364 c 256,48,49
 1953 248 1953 248 1895 159 c 128,-1,50
 1837 70 1837 70 1738 20 c 128,-1,51
 1639 -30 1639 -30 1515 -30 c 0,36,37
1515 156 m 256,52,53
 1573 156 1573 156 1620.5 182.5 c 128,-1,54
 1668 209 1668 209 1696.5 256 c 128,-1,55
 1725 303 1725 303 1725 364 c 256,56,57
 1725 425 1725 425 1696.5 471.5 c 128,-1,58
 1668 518 1668 518 1620.5 544.5 c 128,-1,59
 1573 571 1573 571 1515 571 c 256,60,61
 1457 571 1457 571 1409.5 544.5 c 128,-1,62
 1362 518 1362 518 1334 471.5 c 128,-1,63
 1306 425 1306 425 1306 364 c 256,64,65
 1306 303 1306 303 1334 256 c 128,-1,66
 1362 209 1362 209 1409.5 182.5 c 128,-1,67
 1457 156 1457 156 1515 156 c 256,52,53
EndSplineSet
EndChar

StartChar: perthousand
Encoding: 8240 8240 370
Width: 3021
Flags: W
LayerCount: 2
Fore
SplineSet
533 892 m 256,0,1
 409 892 409 892 310 942 c 128,-1,2
 211 992 211 992 153 1081 c 128,-1,3
 95 1170 95 1170 95 1286 c 256,4,5
 95 1402 95 1402 153.5 1491 c 128,-1,6
 212 1580 212 1580 311 1630 c 128,-1,7
 410 1680 410 1680 533 1680 c 0,8,9
 657 1680 657 1680 756 1630 c 128,-1,10
 855 1580 855 1580 913 1491 c 128,-1,11
 971 1402 971 1402 971 1286 c 256,12,13
 971 1170 971 1170 913 1081 c 128,-1,14
 855 992 855 992 756 942 c 128,-1,15
 657 892 657 892 533 892 c 256,0,1
438 0 m 1,16,-1
 1398 1650 l 1,17,-1
 1607 1650 l 1,18,-1
 647 0 l 1,19,-1
 438 0 l 1,16,-1
532 1078 m 0,20,21
 591 1078 591 1078 638.5 1104.5 c 128,-1,22
 686 1131 686 1131 714.5 1178 c 128,-1,23
 743 1225 743 1225 743 1286 c 256,24,25
 743 1347 743 1347 714.5 1394 c 128,-1,26
 686 1441 686 1441 639 1467.5 c 128,-1,27
 592 1494 592 1494 533 1494 c 0,28,29
 475 1494 475 1494 427.5 1467.5 c 128,-1,30
 380 1441 380 1441 352 1394 c 128,-1,31
 324 1347 324 1347 324 1286 c 256,32,33
 324 1225 324 1225 352 1178 c 128,-1,34
 380 1131 380 1131 427.5 1104.5 c 128,-1,35
 475 1078 475 1078 532 1078 c 0,20,21
1508 -30 m 0,36,37
 1384 -30 1384 -30 1285 20 c 128,-1,38
 1186 70 1186 70 1128 159 c 128,-1,39
 1070 248 1070 248 1070 364 c 256,40,41
 1070 480 1070 480 1128 569 c 128,-1,42
 1186 658 1186 658 1285 708 c 128,-1,43
 1384 758 1384 758 1508 758 c 0,44,45
 1631 758 1631 758 1730 708 c 128,-1,46
 1829 658 1829 658 1887 569 c 128,-1,47
 1945 480 1945 480 1945 364 c 256,48,49
 1945 248 1945 248 1887 159 c 128,-1,50
 1829 70 1829 70 1730 20 c 128,-1,51
 1631 -30 1631 -30 1508 -30 c 0,36,37
2488 -30 m 256,52,53
 2364 -30 2364 -30 2265 20 c 128,-1,54
 2166 70 2166 70 2108 159 c 128,-1,55
 2050 248 2050 248 2050 364 c 256,56,57
 2050 480 2050 480 2108 569 c 128,-1,58
 2166 658 2166 658 2265 708 c 128,-1,59
 2364 758 2364 758 2488 758 c 256,60,61
 2612 758 2612 758 2711 708 c 128,-1,62
 2810 658 2810 658 2867.5 569 c 128,-1,63
 2925 480 2925 480 2925 364 c 256,64,65
 2925 248 2925 248 2867.5 159 c 128,-1,66
 2810 70 2810 70 2711 20 c 128,-1,67
 2612 -30 2612 -30 2488 -30 c 256,52,53
1508 156 m 0,68,69
 1566 156 1566 156 1613 182.5 c 128,-1,70
 1660 209 1660 209 1688.5 256 c 128,-1,71
 1717 303 1717 303 1717 364 c 256,72,73
 1717 425 1717 425 1688.5 471.5 c 128,-1,74
 1660 518 1660 518 1613 544.5 c 128,-1,75
 1566 571 1566 571 1508 571 c 0,76,77
 1449 571 1449 571 1401.5 544.5 c 128,-1,78
 1354 518 1354 518 1326 471.5 c 128,-1,79
 1298 425 1298 425 1298 364 c 256,80,81
 1298 303 1298 303 1326 256 c 128,-1,82
 1354 209 1354 209 1401.5 182.5 c 128,-1,83
 1449 156 1449 156 1508 156 c 0,68,69
2488 156 m 256,84,85
 2546 156 2546 156 2593.5 182.5 c 128,-1,86
 2641 209 2641 209 2669 256 c 128,-1,87
 2697 303 2697 303 2697 364 c 256,88,89
 2697 425 2697 425 2669 471.5 c 128,-1,90
 2641 518 2641 518 2593.5 544.5 c 128,-1,91
 2546 571 2546 571 2488 571 c 256,92,93
 2430 571 2430 571 2382.5 544.5 c 128,-1,94
 2335 518 2335 518 2306.5 471.5 c 128,-1,95
 2278 425 2278 425 2278 364 c 256,96,97
 2278 303 2278 303 2306.5 256 c 128,-1,98
 2335 209 2335 209 2382.5 182.5 c 128,-1,99
 2430 156 2430 156 2488 156 c 256,84,85
EndSplineSet
EndChar

StartChar: lozenge
Encoding: 9674 9674 371
Width: 1200
Flags: W
LayerCount: 2
Fore
SplineSet
503 -80 m 1,0,-1
 83 795 l 1,1,-1
 503 1670 l 1,2,-1
 697 1670 l 1,3,-1
 1117 795 l 1,4,-1
 697 -80 l 1,5,-1
 503 -80 l 1,0,-1
600 263 m 1,6,-1
 855 795 l 1,7,-1
 600 1327 l 1,8,-1
 345 795 l 1,9,-1
 600 263 l 1,6,-1
EndSplineSet
EndChar

StartChar: at
Encoding: 64 64 372
Width: 2006
Flags: W
LayerCount: 2
Fore
SplineSet
1032 -483 m 0,0,1
 848 -483 848 -483 686.5 -420 c 128,-1,2
 525 -357 525 -357 402.5 -242 c 128,-1,3
 280 -127 280 -127 211 29.5 c 128,-1,4
 142 186 142 186 142 373 c 0,5,6
 142 562 142 562 211.5 718 c 128,-1,7
 281 874 281 874 403.5 989 c 128,-1,8
 526 1104 526 1104 687 1166.5 c 128,-1,9
 848 1229 848 1229 1031 1229 c 0,10,11
 1206 1229 1206 1229 1359.5 1172.5 c 128,-1,12
 1513 1116 1513 1116 1630 1011.5 c 128,-1,13
 1747 907 1747 907 1813.5 761 c 128,-1,14
 1880 615 1880 615 1880 436 c 0,15,16
 1880 323 1880 323 1849.5 242.5 c 128,-1,17
 1819 162 1819 162 1767.5 111 c 128,-1,18
 1716 60 1716 60 1650.5 36.5 c 128,-1,19
 1585 13 1585 13 1515 13 c 0,20,21
 1434 13 1434 13 1369 38.5 c 128,-1,22
 1304 64 1304 64 1257 109 c 1,23,24
 1214 42 1214 42 1141 -2 c 128,-1,25
 1068 -46 1068 -46 969 -46 c 0,26,27
 860 -46 860 -46 774 7.5 c 128,-1,28
 688 61 688 61 637.5 153 c 128,-1,29
 587 245 587 245 587 362 c 0,30,31
 587 477 587 477 637 569.5 c 128,-1,32
 687 662 687 662 774 716 c 128,-1,33
 861 770 861 770 974 770 c 0,34,35
 1058 770 1058 770 1129.5 736 c 128,-1,36
 1201 702 1201 702 1245 645 c 1,37,-1
 1245 747 l 1,38,-1
 1438 747 l 1,39,-1
 1438 323 l 2,40,41
 1438 294 1438 294 1447 264.5 c 128,-1,42
 1456 235 1456 235 1481 215.5 c 128,-1,43
 1506 196 1506 196 1552 196 c 0,44,45
 1589 196 1589 196 1618 218 c 128,-1,46
 1647 240 1647 240 1664 289.5 c 128,-1,47
 1681 339 1681 339 1681 421 c 0,48,49
 1681 573 1681 573 1624 683.5 c 128,-1,50
 1567 794 1567 794 1472.5 866 c 128,-1,51
 1378 938 1378 938 1264.5 972.5 c 128,-1,52
 1151 1007 1151 1007 1037 1007 c 0,53,54
 889 1007 889 1007 770.5 955 c 128,-1,55
 652 903 652 903 568.5 814 c 128,-1,56
 485 725 485 725 440.5 611.5 c 128,-1,57
 396 498 396 498 396 376 c 0,58,59
 396 247 396 247 444.5 135.5 c 128,-1,60
 493 24 493 24 579.5 -59.5 c 128,-1,61
 666 -143 666 -143 782 -190 c 128,-1,62
 898 -237 898 -237 1034 -237 c 0,63,64
 1179 -237 1179 -237 1281.5 -187.5 c 128,-1,65
 1384 -138 1384 -138 1437 -79 c 1,66,-1
 1640 -212 l 1,67,68
 1590 -280 1590 -280 1505.5 -342 c 128,-1,69
 1421 -404 1421 -404 1302.5 -443.5 c 128,-1,70
 1184 -483 1184 -483 1032 -483 c 0,0,1
1025 141 m 0,71,72
 1090 141 1090 141 1139 169.5 c 128,-1,73
 1188 198 1188 198 1216.5 248.5 c 128,-1,74
 1245 299 1245 299 1245 363 c 0,75,76
 1245 430 1245 430 1216 481 c 128,-1,77
 1187 532 1187 532 1137.5 560.5 c 128,-1,78
 1088 589 1088 589 1027 589 c 256,79,80
 966 589 966 589 916.5 560 c 128,-1,81
 867 531 867 531 838 480 c 128,-1,82
 809 429 809 429 809 362 c 0,83,84
 809 297 809 297 837 247 c 128,-1,85
 865 197 865 197 914 169 c 128,-1,86
 963 141 963 141 1025 141 c 0,71,72
EndSplineSet
EndChar

StartChar: ampersand
Encoding: 38 38 373
Width: 1832
Flags: W
LayerCount: 2
Fore
SplineSet
646 -32 m 0,0,1
 486 -32 486 -32 364.5 24 c 128,-1,2
 243 80 243 80 175 181 c 128,-1,3
 107 282 107 282 107 417 c 0,4,5
 107 575 107 575 206.5 692.5 c 128,-1,6
 306 810 306 810 507 894 c 1,7,8
 441 973 441 973 401.5 1035.5 c 128,-1,9
 362 1098 362 1098 345 1155 c 128,-1,10
 328 1212 328 1212 328 1272 c 0,11,12
 328 1402 328 1402 393 1493.5 c 128,-1,13
 458 1585 458 1585 568 1633.5 c 128,-1,14
 678 1682 678 1682 812 1682 c 0,15,16
 932 1682 932 1682 1021.5 1646.5 c 128,-1,17
 1111 1611 1111 1611 1171 1551.5 c 128,-1,18
 1231 1492 1231 1492 1261 1419.5 c 128,-1,19
 1291 1347 1291 1347 1291 1274 c 0,20,21
 1291 1148 1291 1148 1206 1045 c 128,-1,22
 1121 942 1121 942 960 857 c 1,23,-1
 1236 566 l 1,24,25
 1262 586 1262 586 1293.5 615.5 c 128,-1,26
 1325 645 1325 645 1357 677 c 128,-1,27
 1389 709 1389 709 1417.5 739 c 128,-1,28
 1446 769 1446 769 1465 790 c 1,29,-1
 1665 598 l 1,30,31
 1608 533 1608 533 1547 468 c 128,-1,32
 1486 403 1486 403 1439 360 c 1,33,-1
 1780 0 l 1,34,-1
 1373 0 l 1,35,-1
 1197 185 l 1,36,37
 1080 82 1080 82 941.5 25 c 128,-1,38
 803 -32 803 -32 646 -32 c 0,0,1
690 276 m 0,39,40
 766 276 766 276 842 309 c 128,-1,41
 918 342 918 342 986 404 c 1,42,-1
 674 720 l 1,43,44
 580 684 580 684 526 615.5 c 128,-1,45
 472 547 472 547 472 465 c 0,46,47
 472 405 472 405 500.5 362.5 c 128,-1,48
 529 320 529 320 579 298 c 128,-1,49
 629 276 629 276 690 276 c 0,39,40
796 1035 m 1,50,51
 866 1073 866 1073 913 1110 c 128,-1,52
 960 1147 960 1147 983.5 1187.5 c 128,-1,53
 1007 1228 1007 1228 1007 1277 c 0,54,55
 1007 1328 1007 1328 983.5 1367.5 c 128,-1,56
 960 1407 960 1407 919.5 1429.5 c 128,-1,57
 879 1452 879 1452 827 1452 c 0,58,59
 777 1452 777 1452 738 1430 c 128,-1,60
 699 1408 699 1408 677.5 1369.5 c 128,-1,61
 656 1331 656 1331 656 1281 c 0,62,63
 656 1241 656 1241 671 1202.5 c 128,-1,64
 686 1164 686 1164 716.5 1123.5 c 128,-1,65
 747 1083 747 1083 796 1035 c 1,50,51
EndSplineSet
EndChar

StartChar: paragraph
Encoding: 182 182 374
Width: 1573
Flags: W
LayerCount: 2
Fore
SplineSet
830 0 m 1,0,-1
 830 633 l 1,1,-1
 638 633 l 2,2,3
 477 633 477 633 360 705 c 128,-1,4
 243 777 243 777 180 895 c 128,-1,5
 117 1013 117 1013 117 1152 c 0,6,7
 117 1292 117 1292 180 1404.5 c 128,-1,8
 243 1517 243 1517 360 1583.5 c 128,-1,9
 477 1650 477 1650 638 1650 c 2,10,-1
 1303 1650 l 1,11,-1
 1303 0 l 1,12,-1
 1122 0 l 1,13,-1
 1122 1468 l 1,14,-1
 1012 1468 l 1,15,-1
 1012 0 l 1,16,-1
 830 0 l 1,0,-1
EndSplineSet
EndChar

StartChar: section
Encoding: 167 167 375
Width: 1447
Flags: W
LayerCount: 2
Fore
SplineSet
701 -550 m 0,0,1
 571 -550 571 -550 475.5 -516 c 128,-1,2
 380 -482 380 -482 314.5 -426 c 128,-1,3
 249 -370 249 -370 210 -303.5 c 128,-1,4
 171 -237 171 -237 155 -172 c 1,5,-1
 433 -111 l 1,6,7
 451 -161 451 -161 486.5 -202.5 c 128,-1,8
 522 -244 522 -244 575.5 -268.5 c 128,-1,9
 629 -293 629 -293 698 -293 c 0,10,11
 762 -293 762 -293 805 -271.5 c 128,-1,12
 848 -250 848 -250 870 -214.5 c 128,-1,13
 892 -179 892 -179 892 -136 c 0,14,15
 892 -80 892 -80 848 -39 c 128,-1,16
 804 2 804 2 729.5 37.5 c 128,-1,17
 655 73 655 73 564 114 c 0,18,19
 493 148 493 148 422.5 191.5 c 128,-1,20
 352 235 352 235 294 290 c 128,-1,21
 236 345 236 345 203 415 c 128,-1,22
 170 485 170 485 174 572 c 0,23,24
 180 682 180 682 249 770.5 c 128,-1,25
 318 859 318 859 446 911 c 1,26,27
 347 973 347 973 297 1058 c 128,-1,28
 247 1143 247 1143 247 1253 c 0,29,30
 247 1371 247 1371 302.5 1468 c 128,-1,31
 358 1565 358 1565 468 1622.5 c 128,-1,32
 578 1680 578 1680 737 1680 c 0,33,34
 854 1680 854 1680 938 1650.5 c 128,-1,35
 1022 1621 1022 1621 1078.5 1571.5 c 128,-1,36
 1135 1522 1135 1522 1168.5 1461.5 c 128,-1,37
 1202 1401 1202 1401 1217 1340 c 1,38,-1
 939 1280 l 1,39,40
 929 1335 929 1335 880.5 1379 c 128,-1,41
 832 1423 832 1423 750 1423 c 0,42,43
 699 1423 699 1423 661.5 1403.5 c 128,-1,44
 624 1384 624 1384 603.5 1351.5 c 128,-1,45
 583 1319 583 1319 583 1278 c 0,46,47
 583 1233 583 1233 613.5 1196.5 c 128,-1,48
 644 1160 644 1160 692.5 1130 c 128,-1,49
 741 1100 741 1100 795.5 1075 c 128,-1,50
 850 1050 850 1050 898 1029 c 0,51,52
 972 994 972 994 1046 950 c 128,-1,53
 1120 906 1120 906 1180 850.5 c 128,-1,54
 1240 795 1240 795 1274.5 725 c 128,-1,55
 1309 655 1309 655 1306 568 c 0,56,57
 1301 458 1301 458 1232.5 370 c 128,-1,58
 1164 282 1164 282 1039 229 c 1,59,60
 1131 166 1131 166 1181.5 80.5 c 128,-1,61
 1232 -5 1232 -5 1232 -119 c 0,62,63
 1232 -259 1232 -259 1160.5 -355.5 c 128,-1,64
 1089 -452 1089 -452 968.5 -501 c 128,-1,65
 848 -550 848 -550 701 -550 c 0,0,1
838 347 m 1,66,67
 875 359 875 359 913 382 c 128,-1,68
 951 405 951 405 977 439 c 128,-1,69
 1003 473 1003 473 1003 516 c 0,70,71
 1003 556 1003 556 978 591 c 128,-1,72
 953 626 953 626 895.5 663.5 c 128,-1,73
 838 701 838 701 741 744 c 0,74,75
 720 753 720 753 699.5 762.5 c 128,-1,76
 679 772 679 772 647 786 c 1,77,78
 606 775 606 775 566.5 754 c 128,-1,79
 527 733 527 733 501.5 700 c 128,-1,80
 476 667 476 667 476 622 c 0,81,82
 476 584 476 584 495 552.5 c 128,-1,83
 514 521 514 521 553.5 493 c 128,-1,84
 593 465 593 465 652 435 c 0,85,86
 695 413 695 413 728 397 c 128,-1,87
 761 381 761 381 787.5 369.5 c 128,-1,88
 814 358 814 358 838 347 c 1,66,67
EndSplineSet
EndChar

StartChar: copyright
Encoding: 169 169 376
Width: 1986
Flags: W
LayerCount: 2
Fore
SplineSet
993 -30 m 0,0,1
 817 -30 817 -30 663 36 c 128,-1,2
 509 102 509 102 391.5 219.5 c 128,-1,3
 274 337 274 337 208 492 c 128,-1,4
 142 647 142 647 142 825 c 0,5,6
 142 1002 142 1002 208 1156 c 128,-1,7
 274 1310 274 1310 390.5 1428 c 128,-1,8
 507 1546 507 1546 661.5 1613 c 128,-1,9
 816 1680 816 1680 992 1680 c 0,10,11
 1169 1680 1169 1680 1323.5 1613.5 c 128,-1,12
 1478 1547 1478 1547 1595 1429 c 128,-1,13
 1712 1311 1712 1311 1778.5 1156 c 128,-1,14
 1845 1001 1845 1001 1845 824 c 256,15,16
 1845 647 1845 647 1779 492 c 128,-1,17
 1713 337 1713 337 1596 219.5 c 128,-1,18
 1479 102 1479 102 1324.5 36 c 128,-1,19
 1170 -30 1170 -30 993 -30 c 0,0,1
993 170 m 256,20,21
 1128 170 1128 170 1246.5 220.5 c 128,-1,22
 1365 271 1365 271 1454.5 361 c 128,-1,23
 1544 451 1544 451 1594.5 569.5 c 128,-1,24
 1645 688 1645 688 1645 824 c 256,25,26
 1645 960 1645 960 1594.5 1079 c 128,-1,27
 1544 1198 1544 1198 1454 1288.5 c 128,-1,28
 1364 1379 1364 1379 1245.5 1430 c 128,-1,29
 1127 1481 1127 1481 992 1481 c 0,30,31
 858 1481 858 1481 740.5 1430 c 128,-1,32
 623 1379 623 1379 533.5 1288.5 c 128,-1,33
 444 1198 444 1198 393.5 1079 c 128,-1,34
 343 960 343 960 343 824 c 256,35,36
 343 688 343 688 393.5 569.5 c 128,-1,37
 444 451 444 451 533 361 c 128,-1,38
 622 271 622 271 740 220.5 c 128,-1,39
 858 170 858 170 993 170 c 256,20,21
1031 394 m 0,40,41
 908 394 908 394 804.5 452 c 128,-1,42
 701 510 701 510 639.5 608.5 c 128,-1,43
 578 707 578 707 578 826 c 256,44,45
 578 945 578 945 639 1044 c 128,-1,46
 700 1143 700 1143 804 1203.5 c 128,-1,47
 908 1264 908 1264 1036 1264 c 0,48,49
 1111 1264 1111 1264 1183.5 1243 c 128,-1,50
 1256 1222 1256 1222 1304 1187 c 1,51,-1
 1226 1030 l 1,52,53
 1162 1073 1162 1073 1073 1073 c 0,54,55
 1003 1073 1003 1073 947.5 1040.5 c 128,-1,56
 892 1008 892 1008 859.5 953 c 128,-1,57
 827 898 827 898 827 827 c 0,58,59
 827 759 827 759 858.5 703.5 c 128,-1,60
 890 648 890 648 946 616 c 128,-1,61
 1002 584 1002 584 1075 584 c 0,62,63
 1117 584 1117 584 1159 595.5 c 128,-1,64
 1201 607 1201 607 1225 625 c 1,65,-1
 1303 468 l 1,66,67
 1163 394 1163 394 1031 394 c 0,40,41
EndSplineSet
EndChar

StartChar: registered
Encoding: 174 174 377
Width: 1271
Flags: W
LayerCount: 2
Fore
SplineSet
635 780 m 0,0,1
 511 780 511 780 408 841 c 128,-1,2
 305 902 305 902 244 1004.5 c 128,-1,3
 183 1107 183 1107 183 1230 c 0,4,5
 183 1354 183 1354 243.5 1457.5 c 128,-1,6
 304 1561 304 1561 406.5 1622.5 c 128,-1,7
 509 1684 509 1684 635 1684 c 0,8,9
 759 1684 759 1684 861.5 1623 c 128,-1,10
 964 1562 964 1562 1025.5 1459 c 128,-1,11
 1087 1356 1087 1356 1087 1231 c 0,12,13
 1087 1105 1087 1105 1025 1002.5 c 128,-1,14
 963 900 963 900 860.5 840 c 128,-1,15
 758 780 758 780 635 780 c 0,0,1
635 890 m 256,16,17
 728 890 728 890 805.5 934.5 c 128,-1,18
 883 979 883 979 930 1057 c 128,-1,19
 977 1135 977 1135 977 1230 c 0,20,21
 977 1326 977 1326 930.5 1404 c 128,-1,22
 884 1482 884 1482 806 1528 c 128,-1,23
 728 1574 728 1574 635 1574 c 0,24,25
 539 1574 539 1574 462 1527 c 128,-1,26
 385 1480 385 1480 339.5 1402 c 128,-1,27
 294 1324 294 1324 294 1230 c 0,28,29
 294 1137 294 1137 340.5 1059.5 c 128,-1,30
 387 982 387 982 464.5 936 c 128,-1,31
 542 890 542 890 635 890 c 256,16,17
498 1007 m 1,32,-1
 498 1459 l 1,33,-1
 643 1459 l 2,34,35
 708 1459 708 1459 751 1425.5 c 128,-1,36
 794 1392 794 1392 794 1323 c 0,37,38
 794 1270 794 1270 766 1235.5 c 128,-1,39
 738 1201 738 1201 693 1189 c 1,40,-1
 841 1007 l 1,41,-1
 727 1007 l 1,42,-1
 596 1181 l 1,43,-1
 588 1181 l 1,44,-1
 588 1007 l 1,45,-1
 498 1007 l 1,32,-1
588 1254 m 1,46,-1
 615 1254 l 2,47,48
 649 1254 649 1254 674 1269 c 128,-1,49
 699 1284 699 1284 699 1321 c 0,50,51
 699 1360 699 1360 672.5 1373.5 c 128,-1,52
 646 1387 646 1387 615 1387 c 2,53,-1
 588 1387 l 1,54,-1
 588 1254 l 1,46,-1
EndSplineSet
EndChar

StartChar: trademark
Encoding: 8482 8482 378
Width: 1368
Flags: W
LayerCount: 2
Fore
SplineSet
560 1134 m 1,0,-1
 610 1650 l 1,1,-1
 724 1650 l 1,2,-1
 842 1337 l 1,3,-1
 963 1650 l 1,4,-1
 1077 1650 l 1,5,-1
 1126 1134 l 1,6,-1
 1019 1134 l 1,7,-1
 989 1456 l 1,8,-1
 877 1144 l 1,9,-1
 810 1144 l 1,10,-1
 698 1456 l 1,11,-1
 668 1134 l 1,12,-1
 560 1134 l 1,0,-1
306 1134 m 1,13,-1
 306 1556 l 1,14,-1
 178 1556 l 1,15,-1
 178 1650 l 1,16,-1
 541 1650 l 1,17,-1
 541 1556 l 1,18,-1
 414 1556 l 1,19,-1
 414 1134 l 1,20,-1
 306 1134 l 1,13,-1
EndSplineSet
EndChar

StartChar: degree
Encoding: 176 176 379
Width: 915
Flags: W
LayerCount: 2
Fore
SplineSet
457 1338 m 256,0,1
 359 1338 359 1338 294.5 1396 c 128,-1,2
 230 1454 230 1454 230 1544 c 0,3,4
 230 1636 230 1636 296 1693 c 128,-1,5
 362 1750 362 1750 457 1750 c 0,6,7
 554 1750 554 1750 619.5 1693 c 128,-1,8
 685 1636 685 1636 685 1544 c 0,9,10
 685 1453 685 1453 620 1395.5 c 128,-1,11
 555 1338 555 1338 457 1338 c 256,0,1
458 1443 m 0,12,13
 499 1443 499 1443 527 1471.5 c 128,-1,14
 555 1500 555 1500 555 1544 c 0,15,16
 555 1589 555 1589 526 1617 c 128,-1,17
 497 1645 497 1645 457 1645 c 0,18,19
 416 1645 416 1645 388 1616.5 c 128,-1,20
 360 1588 360 1588 360 1544 c 256,21,22
 360 1500 360 1500 387.5 1471.5 c 128,-1,23
 415 1443 415 1443 458 1443 c 0,12,13
EndSplineSet
EndChar

StartChar: bar
Encoding: 124 124 380
Width: 806
Flags: W
LayerCount: 2
Fore
SplineSet
270 0 m 1,0,-1
 270 1720 l 1,1,-1
 536 1720 l 1,2,-1
 536 0 l 1,3,-1
 270 0 l 1,0,-1
EndSplineSet
EndChar

StartChar: brokenbar
Encoding: 166 166 381
Width: 806
Flags: W
LayerCount: 2
Fore
SplineSet
270 1056 m 1,0,-1
 270 1720 l 1,1,-1
 536 1720 l 1,2,-1
 536 1056 l 1,3,-1
 270 1056 l 1,0,-1
270 0 m 1,4,-1
 270 664 l 1,5,-1
 536 664 l 1,6,-1
 536 0 l 1,7,-1
 270 0 l 1,4,-1
EndSplineSet
EndChar

StartChar: dagger
Encoding: 8224 8224 382
Width: 1047
Flags: W
LayerCount: 2
Fore
SplineSet
391 0 m 1,0,-1
 391 1045 l 1,1,-1
 121 1045 l 1,2,-1
 121 1283 l 1,3,-1
 391 1283 l 1,4,-1
 391 1720 l 1,5,-1
 656 1720 l 1,6,-1
 656 1283 l 1,7,-1
 925 1283 l 1,8,-1
 925 1045 l 1,9,-1
 656 1045 l 1,10,-1
 656 0 l 1,11,-1
 391 0 l 1,0,-1
EndSplineSet
EndChar

StartChar: daggerdbl
Encoding: 8225 8225 383
Width: 1144
Flags: W
LayerCount: 2
Fore
SplineSet
440 0 m 1,0,-1
 440 477 l 1,1,-1
 170 477 l 1,2,-1
 170 715 l 1,3,-1
 440 715 l 1,4,-1
 440 1012 l 1,5,-1
 170 1012 l 1,6,-1
 170 1249 l 1,7,-1
 440 1249 l 1,8,-1
 440 1720 l 1,9,-1
 705 1720 l 1,10,-1
 705 1249 l 1,11,-1
 974 1249 l 1,12,-1
 974 1012 l 1,13,-1
 705 1012 l 1,14,-1
 705 715 l 1,15,-1
 974 715 l 1,16,-1
 974 477 l 1,17,-1
 705 477 l 1,18,-1
 705 0 l 1,19,-1
 440 0 l 1,0,-1
EndSplineSet
EndChar

StartChar: uni0308
Encoding: 776 776 384
Width: 0
GlyphClass: 4
Flags: W
AnchorPoint: "Anchor-4" 398 1560 basemark 0
AnchorPoint: "Anchor-4" 398 1024 mark 0
AnchorPoint: "Anchor-0" 398 1024 mark 0
LayerCount: 2
Fore
SplineSet
634 1236 m 0,0,1
 567 1236 567 1236 519.5 1283.5 c 128,-1,2
 472 1331 472 1331 472 1398 c 0,3,4
 472 1466 472 1466 519.5 1513 c 128,-1,5
 567 1560 567 1560 634 1560 c 0,6,7
 702 1560 702 1560 749.5 1513 c 128,-1,8
 797 1466 797 1466 797 1398 c 0,9,10
 797 1331 797 1331 749.5 1283.5 c 128,-1,11
 702 1236 702 1236 634 1236 c 0,0,1
162 1236 m 0,12,13
 95 1236 95 1236 47.5 1283.5 c 128,-1,14
 0 1331 0 1331 0 1398 c 0,15,16
 0 1466 0 1466 47.5 1513 c 128,-1,17
 95 1560 95 1560 162 1560 c 0,18,19
 230 1560 230 1560 277.5 1513 c 128,-1,20
 325 1466 325 1466 325 1398 c 0,21,22
 325 1331 325 1331 277.5 1283.5 c 128,-1,23
 230 1236 230 1236 162 1236 c 0,12,13
EndSplineSet
EndChar

StartChar: uni0307
Encoding: 775 775 385
Width: 0
GlyphClass: 4
Flags: W
AnchorPoint: "Anchor-4" 182 1662 basemark 0
AnchorPoint: "Anchor-4" 182 1024 mark 0
AnchorPoint: "Anchor-0" 182 1024 mark 0
LayerCount: 2
Fore
SplineSet
183 1298 m 0,0,1
 132 1298 132 1298 90.5 1322.5 c 128,-1,2
 49 1347 49 1347 24.5 1388.5 c 128,-1,3
 0 1430 0 1430 0 1480 c 0,4,5
 0 1531 0 1531 24.5 1572 c 128,-1,6
 49 1613 49 1613 90.5 1637.5 c 128,-1,7
 132 1662 132 1662 183 1662 c 0,8,9
 233 1662 233 1662 274 1637.5 c 128,-1,10
 315 1613 315 1613 339.5 1572 c 128,-1,11
 364 1531 364 1531 364 1480 c 0,12,13
 364 1430 364 1430 339.5 1388.5 c 128,-1,14
 315 1347 315 1347 274 1322.5 c 128,-1,15
 233 1298 233 1298 183 1298 c 0,0,1
EndSplineSet
EndChar

StartChar: gravecomb
Encoding: 768 768 386
Width: 0
GlyphClass: 4
Flags: W
AnchorPoint: "Anchor-4" 258 1673 basemark 0
AnchorPoint: "Anchor-4" 258 1024 mark 0
AnchorPoint: "Anchor-0" 258 1024 mark 0
LayerCount: 2
Fore
SplineSet
353 1108 m 1,0,-1
 0 1500 l 1,1,-1
 206 1655 l 1,2,-1
 483 1214 l 1,3,-1
 353 1108 l 1,0,-1
EndSplineSet
EndChar

StartChar: acutecomb
Encoding: 769 769 387
Width: 0
GlyphClass: 4
Flags: W
AnchorPoint: "Anchor-4" 179 1693 basemark 0
AnchorPoint: "Anchor-4" 179 1024 mark 0
AnchorPoint: "Anchor-0" 179 1024 mark 0
LayerCount: 2
Fore
SplineSet
130 1108 m 1,0,-1
 0 1214 l 1,1,-1
 277 1655 l 1,2,-1
 483 1500 l 1,3,-1
 130 1108 l 1,0,-1
EndSplineSet
EndChar

StartChar: uni030B
Encoding: 779 779 388
Width: 0
GlyphClass: 4
Flags: W
AnchorPoint: "Anchor-4" 425 1680 basemark 0
AnchorPoint: "Anchor-4" 425 1024 mark 0
AnchorPoint: "Anchor-0" 425 1024 mark 0
LayerCount: 2
Fore
SplineSet
618 1223 m 1,0,-1
 503 1358 l 1,1,-1
 833 1680 l 1,2,-1
 1019 1477 l 1,3,-1
 618 1223 l 1,0,-1
116 1223 m 1,4,-1
 0 1358 l 1,5,-1
 330 1680 l 1,6,-1
 515 1477 l 1,7,-1
 116 1223 l 1,4,-1
EndSplineSet
EndChar

StartChar: uni0302
Encoding: 770 770 389
Width: 0
GlyphClass: 4
Flags: W
AnchorPoint: "Anchor-4" 424 1680 basemark 0
AnchorPoint: "Anchor-4" 424 1024 mark 0
AnchorPoint: "Anchor-0" 424 1024 mark 0
LayerCount: 2
Fore
SplineSet
118 1210 m 1,0,-1
 0 1368 l 1,1,-1
 424 1680 l 1,2,-1
 848 1368 l 1,3,-1
 730 1210 l 1,4,-1
 424 1434 l 1,5,-1
 118 1210 l 1,0,-1
EndSplineSet
EndChar

StartChar: uni030C
Encoding: 780 780 390
Width: 0
GlyphClass: 4
Flags: W
AnchorPoint: "Anchor-4" 424 1680 basemark 0
AnchorPoint: "Anchor-4" 424 1024 mark 0
AnchorPoint: "Anchor-0" 424 1024 mark 0
LayerCount: 2
Fore
SplineSet
424 1167 m 1,0,-1
 0 1478 l 1,1,-1
 118 1638 l 1,2,-1
 424 1414 l 1,3,-1
 730 1638 l 1,4,-1
 848 1478 l 1,5,-1
 424 1167 l 1,0,-1
EndSplineSet
EndChar

StartChar: uni0306
Encoding: 774 774 391
Width: 0
GlyphClass: 4
Flags: W
AnchorPoint: "Anchor-4" 450 1680 basemark 0
AnchorPoint: "Anchor-4" 450 1024 mark 0
AnchorPoint: "Anchor-0" 450 1024 mark 0
LayerCount: 2
Fore
SplineSet
450 1273 m 0,0,1
 327 1273 327 1273 230.5 1317.5 c 128,-1,2
 134 1362 134 1362 74 1442 c 128,-1,3
 14 1522 14 1522 0 1626 c 1,4,-1
 219 1680 l 1,5,6
 226 1625 226 1625 253 1576 c 128,-1,7
 280 1527 280 1527 329 1496 c 128,-1,8
 378 1465 378 1465 450 1465 c 0,9,10
 523 1465 523 1465 571.5 1496 c 128,-1,11
 620 1527 620 1527 647.5 1576 c 128,-1,12
 675 1625 675 1625 681 1680 c 1,13,-1
 900 1626 l 1,14,15
 886 1522 886 1522 826 1442 c 128,-1,16
 766 1362 766 1362 670 1317.5 c 128,-1,17
 574 1273 574 1273 450 1273 c 0,0,1
EndSplineSet
EndChar

StartChar: uni030A
Encoding: 778 778 392
Width: 0
GlyphClass: 4
Flags: W
AnchorPoint: "Anchor-4" 301 1731 basemark 0
AnchorPoint: "Anchor-4" 301 1024 mark 0
AnchorPoint: "Anchor-0" 301 1024 mark 0
LayerCount: 2
Fore
SplineSet
301 1200 m 0,0,1
 218 1200 218 1200 149.5 1234 c 128,-1,2
 81 1268 81 1268 40.5 1328 c 128,-1,3
 0 1388 0 1388 0 1465 c 1,4,-1
 0 1465 l 1,5,6
 0 1543 0 1543 40.5 1603 c 128,-1,7
 81 1663 81 1663 149.5 1697 c 128,-1,8
 218 1731 218 1731 302 1731 c 256,9,10
 386 1731 386 1731 454 1697 c 128,-1,11
 522 1663 522 1663 562.5 1603 c 128,-1,12
 603 1543 603 1543 603 1465 c 0,13,14
 603 1388 603 1388 562.5 1328 c 128,-1,15
 522 1268 522 1268 453.5 1234 c 128,-1,16
 385 1200 385 1200 301 1200 c 0,0,1
301 1342 m 0,17,18
 353 1342 353 1342 390 1378 c 128,-1,19
 427 1414 427 1414 427 1465 c 0,20,21
 427 1517 427 1517 390 1552.5 c 128,-1,22
 353 1588 353 1588 301 1588 c 0,23,24
 251 1588 251 1588 213.5 1552.5 c 128,-1,25
 176 1517 176 1517 176 1465 c 1,26,-1
 176 1465 l 1,27,28
 176 1414 176 1414 213.5 1378 c 128,-1,29
 251 1342 251 1342 301 1342 c 0,17,18
EndSplineSet
EndChar

StartChar: tildecomb
Encoding: 771 771 393
Width: 0
GlyphClass: 4
Flags: W
AnchorPoint: "Anchor-4" 536 1566 basemark 0
AnchorPoint: "Anchor-4" 536 1024 mark 0
AnchorPoint: "Anchor-0" 536 1024 mark 0
LayerCount: 2
Fore
SplineSet
741 1173 m 0,0,1
 687 1173 687 1173 635.5 1197.5 c 128,-1,2
 584 1222 584 1222 533.5 1254 c 128,-1,3
 483 1286 483 1286 432.5 1311 c 128,-1,4
 382 1336 382 1336 330 1336 c 0,5,6
 261 1336 261 1336 218 1289 c 128,-1,7
 175 1242 175 1242 154 1186 c 1,8,-1
 0 1321 l 1,9,10
 52 1425 52 1425 138.5 1495.5 c 128,-1,11
 225 1566 225 1566 326 1566 c 0,12,13
 389 1566 389 1566 448.5 1541.5 c 128,-1,14
 508 1517 508 1517 563 1485 c 128,-1,15
 618 1453 618 1453 666.5 1428 c 128,-1,16
 715 1403 715 1403 754 1403 c 0,17,18
 804 1403 804 1403 851 1448 c 128,-1,19
 898 1493 898 1493 920 1553 c 1,20,-1
 1072 1418 l 1,21,22
 1038 1347 1038 1347 981 1291.5 c 128,-1,23
 924 1236 924 1236 860.5 1204.5 c 128,-1,24
 797 1173 797 1173 741 1173 c 0,0,1
EndSplineSet
EndChar

StartChar: uni0304
Encoding: 772 772 394
Width: 0
GlyphClass: 4
Flags: W
AnchorPoint: "Anchor-4" 408 1493 basemark 0
AnchorPoint: "Anchor-4" 408 1024 mark 0
AnchorPoint: "Anchor-0" 408 1024 mark 0
LayerCount: 2
Fore
SplineSet
0 1284 m 1,0,-1
 0 1493 l 1,1,-1
 816 1493 l 1,2,-1
 816 1284 l 1,3,-1
 0 1284 l 1,0,-1
EndSplineSet
EndChar

